<?xml version="1.0" encoding="UTF-8" standalone="no"?>
<!-- Created with Inkscape (http://www.inkscape.org/) -->

<svg
   width="48"
   height="48"
   viewBox="0 0 12.7 12.7"
   version="1.1"
   id="svg1"
   inkscape:version="1.3 (0e150ed6c4, 2023-07-21)"
   sodipodi:docname="bBishop.svg"
   xmlns:inkscape="http://www.inkscape.org/namespaces/inkscape"
   xmlns:sodipodi="http://sodipodi.sourceforge.net/DTD/sodipodi-0.dtd"
   xmlns="http://www.w3.org/2000/svg"
   xmlns:svg="http://www.w3.org/2000/svg"
   xmlns:rdf="http://www.w3.org/1999/02/22-rdf-syntax-ns#"
   xmlns:cc="http://creativecommons.org/ns#"
   xmlns:dc="http://purl.org/dc/elements/1.1/">
  <sodipodi:namedview
     id="namedview1"
     pagecolor="#505050"
     bordercolor="#eeeeee"
     borderopacity="1"
     inkscape:showpageshadow="0"
     inkscape:pageopacity="0"
     inkscape:pagecheckerboard="0"
     inkscape:deskcolor="#d1d1d1"
     inkscape:document-units="mm"
     inkscape:zoom="11.630976"
     inkscape:cx="25.621238"
     inkscape:cy="17.754314"
     inkscape:window-width="1366"
     inkscape:window-height="731"
     inkscape:window-x="0"
     inkscape:window-y="0"
     inkscape:window-maximized="1"
     inkscape:current-layer="layer1" />
  <defs
     id="defs1">
    <inkscape:path-effect
       effect="mirror_symmetry"
       start_point="6.4213519,0.78163482"
       end_point="6.4213519,1.0697932"
       center_point="6.4213519,0.92571401"
       id="path-effect35"
       is_visible="true"
       lpeversion="1.2"
       lpesatellites=""
       mode="free"
       discard_orig_path="false"
       fuse_paths="false"
       oposite_fuse="false"
       split_items="false"
       split_open="false"
       link_styles="false" />
    <inkscape:path-effect
       effect="mirror_symmetry"
       start_point="6.4107998,1.2169379"
       end_point="6.4107998,3.1592621"
       center_point="6.4107998,2.1881"
       id="path-effect34"
       is_visible="true"
       lpeversion="1.2"
       lpesatellites=""
       mode="free"
       discard_orig_path="false"
       fuse_paths="false"
       oposite_fuse="false"
       split_items="false"
       split_open="false"
       link_styles="false" />
    <inkscape:path-effect
       effect="mirror_symmetry"
       start_point="6.5289629,1.3671315"
       end_point="6.5289629,3.3578997"
       center_point="6.5289629,2.3625156"
       id="path-effect33"
       is_visible="true"
       lpeversion="1.2"
       lpesatellites=""
       mode="free"
       discard_orig_path="false"
       fuse_paths="false"
       oposite_fuse="false"
       split_items="false"
       split_open="false"
       link_styles="false" />
    <inkscape:path-effect
       effect="mirror_symmetry"
       start_point="6.3577583,1.622602"
       end_point="6.3577583,3.0813944"
       center_point="6.3577583,2.3519982"
       id="path-effect10"
       is_visible="true"
       lpeversion="1.2"
       lpesatellites=""
       mode="free"
       discard_orig_path="false"
       fuse_paths="false"
       oposite_fuse="false"
       split_items="false"
       split_open="false"
       link_styles="false" />
    <inkscape:path-effect
       effect="mirror_symmetry"
       start_point="6.35,0.38214236"
       end_point="6.35,1.3832394"
       center_point="6.35,0.88269088"
       id="path-effect9"
       is_visible="true"
       lpeversion="1.2"
       lpesatellites=""
       mode="free"
       discard_orig_path="false"
       fuse_paths="false"
       oposite_fuse="false"
       split_items="false"
       split_open="false"
       link_styles="false" />
    <inkscape:path-effect
       effect="mirror_symmetry"
       start_point="6.5883282,1.7801991"
       end_point="6.5883282,3.9917237"
       center_point="6.5883282,2.8859614"
       id="path-effect8"
       is_visible="true"
       lpeversion="1.2"
       lpesatellites=""
       mode="free"
       discard_orig_path="false"
       fuse_paths="false"
       oposite_fuse="false"
       split_items="false"
       split_open="false"
       link_styles="false" />
    <inkscape:path-effect
       effect="mirror_symmetry"
       start_point="6.8275181,4.7868426"
       end_point="6.8062803,12.273485"
       center_point="6.8168992,8.5301638"
       id="path-effect1"
       is_visible="true"
       lpeversion="1.2"
       lpesatellites=""
       mode="free"
       discard_orig_path="false"
       fuse_paths="false"
       oposite_fuse="false"
       split_items="false"
       split_open="false"
       link_styles="false" />
  </defs>
  <g
     inkscape:label="Layer 1"
     inkscape:groupmode="layer"
     id="layer1">
    <path
       id="path1"
       style="fill:none;fill-opacity:1;fill-rule:evenodd;stroke:#282828;stroke-width:0.1;stroke-linecap:round;stroke-dasharray:none;stroke-opacity:1"
       inkscape:path-effect="#path-effect1"
       inkscape:original-d="m 7.6174972,4.0320361 c 0.9811654,0.2027207 0.1840743,0.9822851 -0.300455,0.8252873 -0.044465,0.8455523 2.4442927,2.6048864 1.2102819,3.9346654 0.3467394,0.2392437 0.2249575,0.368207 0,0.472885 C 8.648337,9.4634336 8.3996407,9.5286745 8.1358088,9.588457 7.8713712,9.7081129 7.9060772,9.8277687 8.1447288,9.9474246 l 1.408413,0.3585284 c 0.3746077,0.253193 0.5413452,0.532458 0,0.90053 -0.1778342,0.143847 -0.4230073,0.284709 -0.010305,0.454726 l 0.8099872,0.490227 c 0.0847,0.117534 0.337613,0.243207 0.01684,0.341123"
       d="m 7.6174972,4.0320361 c 0.9811654,0.2027207 0.1840743,0.9822851 -0.300455,0.8252873 -0.044465,0.8455523 2.4442927,2.6048864 1.2102819,3.9346654 0.3467394,0.2392437 0.2249575,0.368207 0,0.472885 C 8.648337,9.4634336 8.3996407,9.5286745 8.1358088,9.588457 7.8713712,9.7081129 7.9060772,9.8277687 8.1447288,9.9474246 l 1.408413,0.3585284 c 0.3746077,0.253193 0.5413452,0.532458 0,0.90053 -0.1778342,0.143847 -0.4230073,0.284709 -0.010305,0.454726 l 0.8099872,0.490227 c 0.0847,0.117534 0.337613,0.243207 0.01684,0.341123 M 6.0418341,4.0275663 C 5.0595343,4.2247171 5.8521898,5.0087913 6.337602,4.854545 6.3772691,5.7003359 3.8785699,7.4455218 5.1050164,8.7822805 4.7569252,9.0195532 4.8779735,9.1492053 5.1023335,9.2551579 4.980196,9.453028 5.2285182,9.5196788 5.4920066,9.5809572 5.7557611,9.7021114 5.7203768,9.8215684 5.4810502,9.9398684 L 4.0706257,10.2904 c -0.3760381,0.251064 -0.5443573,0.529379 -0.00511,0.900516 0.1770152,0.144854 0.4213852,0.287104 0.00773,0.454777 l -0.8127555,0.485624 c -0.085365,0.117051 -0.3389874,0.241287 -0.018775,0.341022"
       sodipodi:nodetypes="ccccccccccc"
       transform="translate(-0.45602208,-0.98158515)" />
    <path
       style="fill:none;fill-opacity:1;fill-rule:evenodd;stroke:#282828;stroke-width:0.1;stroke-linecap:round;stroke-dasharray:none;stroke-opacity:1"
       d="M 4.6388458,7.8006857 C 5.7121933,7.9159566 6.829881,7.957548 8.0611542,7.8103957"
       id="path3"
       sodipodi:nodetypes="cc" />
    <path
       style="fill:none;fill-opacity:1;fill-rule:evenodd;stroke:#282828;stroke-width:0.1;stroke-linecap:round;stroke-dasharray:none;stroke-opacity:1"
       d="m 4.6375044,8.2735631 c 1.1786521,0.1592944 2.3180041,0.1527809 3.4249912,0.00972"
       id="path4"
       sodipodi:nodetypes="cc" />
    <path
       style="fill:none;fill-opacity:1;fill-rule:evenodd;stroke:#282828;stroke-width:0.1;stroke-linecap:round;stroke-dasharray:none;stroke-opacity:1"
       d="m 5.2121267,8.7742783 c 0.8000716,0.1434733 1.5534436,0.1261988 2.2757466,0.00198"
       id="path5"
       sodipodi:nodetypes="cc" />
    <path
       style="fill:none;fill-opacity:1;fill-rule:evenodd;stroke:#282828;stroke-width:0.1;stroke-linecap:round;stroke-dasharray:none;stroke-opacity:1"
       d="m 3.8407062,10.482806 c 1.7550124,0.42468 3.4153312,0.366705 5.0185875,0.01788"
       id="path6"
       sodipodi:nodetypes="cc" />
    <path
       style="fill:none;fill-opacity:1;fill-rule:evenodd;stroke:#282828;stroke-width:0.1;stroke-linecap:round;stroke-dasharray:none;stroke-opacity:1"
       d="M 9.9136418,11.510974 C 7.5737068,12.2157 5.1965844,12.186471 2.7856931,11.490754 v 0"
       id="path7"
       sodipodi:nodetypes="ccc" />
    <path
       style="fill:none;fill-rule:evenodd;stroke:#282828;stroke-width:0.109;stroke-linecap:round"
       d="M 5.5850736,3.06667 7.1700252,3.06263 C 7.3498404,2.9974266 7.7952053,2.1317181 7.3991485,1.5773415 7.344817,1.5012915 6.7916192,2.1391369 6.7027612,2.0776748 6.673328,2.0573162 7.1248758,1.3298788 7.091237,1.31154 6.9111926,1.2133857 6.6694217,1.1456562 6.35,1.1243458 M 7.236526,3.06667 5.6515744,3.06263 C 5.3951891,2.9696612 4.5989469,1.249281 6.4715996,1.1243458"
       id="path33"
       sodipodi:nodetypes="ccssscccc" />
    <path
       style="fill:none;fill-rule:evenodd;stroke:#282828;stroke-width:0.109;stroke-linecap:round"
       id="path34"
       sodipodi:type="arc"
       sodipodi:cx="6.4200134"
       sodipodi:cy="0.9257403"
       sodipodi:rx="0.24621998"
       sodipodi:ry="0.14410548"
       sodipodi:start="1.5978027"
       sodipodi:end="4.7178251"
       sodipodi:open="true"
       sodipodi:arc-type="arc"
       d="M 6.4133647,1.0697932 C 6.2784663,1.0676605 6.1716369,1.0023734 6.1738258,0.92340283 6.1760148,0.84443224 6.2864062,0.7812076 6.4213519,0.78163695 m 0.00799,0.28815625 C 6.5642375,1.0676605 6.6710669,1.0023734 6.668878,0.92340283 6.666689,0.84443224 6.5562976,0.7812076 6.4213519,0.78163695"
       inkscape:path-effect="#path-effect35" />
    <path
       style="fill:#cccccc;fill-rule:evenodd;stroke:#282828;stroke-width:0.0354199;stroke-linecap:round"
       d="m 22.053179,45.167786 c -2.801753,-0.189992 -4.888496,-0.453699 -7.091387,-0.896157 -2.1818,-0.438221 -4.773481,-1.127812 -4.773481,-1.270121 0,-0.228339 0.760567,-0.80376 2.149433,-1.626194 0.874819,-0.518034 1.687304,-0.990828 1.805523,-1.050652 0.118219,-0.05982 0.292323,-0.177613 0.386898,-0.261754 0.165334,-0.147093 0.218301,-0.143627 1.375637,0.09 5.378158,1.085681 10.498565,1.094495 16.225115,0.02793 l 1.179087,-0.219604 0.239539,0.185727 c 0.131747,0.10215 0.99399,0.631268 1.916096,1.175817 1.589869,0.938896 2.321388,1.481715 2.321388,1.722574 0,0.13484 -0.949813,0.437303 -2.765375,0.880619 -3.629569,0.886253 -7.300788,1.316566 -10.946538,1.283073 -0.89927,-0.0083 -1.809141,-0.02683 -2.021935,-0.04126 z"
       id="path35"
       transform="scale(0.26458333)" />
    <path
       style="fill:#cccccc;fill-rule:evenodd;stroke:#282828;stroke-width:0.0354199;stroke-linecap:round"
       d="m 21.322372,40.438985 c -2.193855,-0.174923 -4.129928,-0.463419 -6.327004,-0.942794 -0.122439,-0.02672 -0.288628,-0.160322 -0.36931,-0.296904 -0.08068,-0.136583 -0.475476,-0.505065 -0.877322,-0.818849 -1.184743,-0.925114 -1.410678,-1.458773 -0.910077,-2.149597 0.518453,-0.715461 0.679162,-0.783087 3.488855,-1.468103 2.893957,-0.70556 2.963056,-0.727786 3.330848,-1.071354 l 0.263027,-0.245704 1.044401,0.1444 c 1.442678,0.199467 4.608959,0.198327 6.060527,-0.0022 l 1.06117,-0.146583 0.303555,0.266526 c 0.166956,0.146588 0.385846,0.300999 0.486422,0.343133 0.100576,0.04214 1.361638,0.376033 2.802359,0.741995 2.523516,0.641006 2.63502,0.67812 3.043297,1.012937 0.774923,0.635494 0.911135,1.201213 0.438443,1.820945 -0.124474,0.163194 -0.563675,0.562832 -0.976001,0.888084 -0.412326,0.325251 -0.791669,0.683514 -0.842984,0.796138 -0.08409,0.184547 -0.219494,0.227768 -1.370989,0.437608 -3.067548,0.559008 -5.205964,0.750851 -8.155875,0.731687 -1.182188,-0.0077 -2.304192,-0.0263 -2.493342,-0.04138 z"
       id="path36"
       transform="scale(0.26458333)" />
    <path
       style="fill:#cccccc;fill-rule:evenodd;stroke:#282828;stroke-width:0.0354199;stroke-linecap:round"
       d="m 21.881225,33.2321 c -0.07093,-0.01661 -0.531178,-0.07726 -1.02277,-0.134788 -0.843197,-0.09868 -0.907675,-0.120397 -1.138803,-0.383638 -0.260332,-0.296502 -0.43215,-0.381481 -1.202804,-0.594898 -0.488318,-0.13523 -0.93922,-0.416404 -0.835228,-0.520833 0.03095,-0.03108 0.649986,0.0049 1.375637,0.07993 3.139355,0.324654 7.016059,0.327647 10.046062,0.0078 0.685669,-0.07239 1.256343,-0.131694 1.268165,-0.131788 0.01182,-9.3e-5 0.02149,0.05687 0.02149,0.126588 0,0.163297 -0.31831,0.324168 -1.101852,0.556864 -0.406576,0.120744 -0.740987,0.286397 -0.945751,0.468483 -0.268938,0.239154 -0.427129,0.29854 -1.04758,0.393273 -0.657124,0.100332 -5.091085,0.209246 -5.41657,0.13305 z"
       id="path37"
       transform="scale(0.26458333)" />
    <path
       style="fill:#cccccc;fill-rule:evenodd;stroke:#282828;stroke-width:0.0354199;stroke-linecap:round"
       d="m 20.725695,31.369769 c -0.56461,-0.04041 -1.505699,-0.12922 -2.09131,-0.197361 -0.905515,-0.105365 -1.108796,-0.157492 -1.359306,-0.348565 -0.162008,-0.12357 -0.294561,-0.281306 -0.294561,-0.350526 0,-0.06922 0.129909,-0.267607 0.288686,-0.440863 l 0.288686,-0.315011 1.065457,0.100772 c 3.328685,0.31483 7.868969,0.343193 10.606075,0.06626 1.162763,-0.117647 1.208408,-0.116094 1.440294,0.04902 0.477765,0.340199 0.528316,0.665217 0.145823,0.937576 -0.296262,0.210957 -1.234342,0.348789 -3.447878,0.506598 -1.457169,0.103885 -5.141248,0.0995 -6.641966,-0.0079 z"
       id="path38"
       transform="scale(0.26458333)" />
    <path
       style="fill:#cccccc;fill-rule:evenodd;stroke:#282828;stroke-width:0.0354199;stroke-linecap:round"
       d="m 22.225134,29.604116 c -0.354656,-0.01314 -1.496005,-0.08662 -2.536331,-0.163285 -2.108943,-0.15542 -2.026322,-0.126908 -2.501042,-0.863129 -0.43679,-0.677397 -0.637129,-1.372058 -0.637129,-2.209192 0,-1.854691 0.835054,-3.548337 3.638599,-7.37976 1.6391,-2.24005 2.145843,-3.169925 2.260881,-4.148717 l 0.05411,-0.460377 -0.612862,0.04385 c -0.561292,0.04016 -0.659592,0.02084 -1.16821,-0.229547 -0.933837,-0.459726 -1.383126,-1.217263 -1.016252,-1.713482 0.093,-0.125791 0.329205,-0.318168 0.524896,-0.427506 l 0.355801,-0.198795 3.445366,0.0078 c 2.928726,0.0066 3.49634,0.02815 3.785307,0.143776 0.408302,0.163369 0.769189,0.566283 0.769189,0.858764 0,0.863356 -1.532145,1.844215 -2.474364,1.584056 -0.170627,-0.04711 -0.331751,-0.06412 -0.358053,-0.0378 -0.121433,0.121523 0.01157,0.947893 0.240104,1.491823 0.314599,0.74877 0.72391,1.399199 1.976873,3.141421 2.137019,2.971485 2.991742,4.450654 3.378318,5.846457 0.24783,0.894833 0.264734,2.040531 0.03996,2.708285 -0.175639,0.521783 -0.644767,1.350695 -0.88569,1.56494 -0.365466,0.324997 -4.893628,0.565891 -8.279469,0.44046 z"
       id="path39"
       transform="scale(0.26458333)" />
    <path
       style="fill:#cccccc;fill-rule:evenodd;stroke:#282828;stroke-width:0.0354199;stroke-linecap:round"
       d="m 21.159305,11.067378 c -0.633792,-0.830943 -1.033667,-2.1557536 -0.981298,-3.2510951 0.0626,-1.3093882 0.644804,-2.1801052 1.832184,-2.7401401 0.637241,-0.3005587 1.589373,-0.5193455 2.260123,-0.5193455 0.522318,0 1.656667,0.2499655 2.029076,0.4471276 l 0.211031,0.1117249 -0.605099,1.0747163 c -0.936037,1.6624975 -0.996276,1.8915008 -0.49755,1.8915008 0.261046,0 0.689072,-0.3082269 1.730285,-1.2460012 0.343371,-0.3092592 0.664853,-0.5487757 0.714404,-0.5322588 0.04955,0.016517 0.164995,0.2202611 0.256543,0.4527646 0.465768,1.1829051 0.01995,3.3855775 -0.881679,4.3561955 l -0.219633,0.236438 h -2.81679 -2.81679 z"
       id="path40"
       transform="scale(0.26458333)" />
    <path
       style="fill:#cccccc;fill-rule:evenodd;stroke:#282828;stroke-width:0.0354199;stroke-linecap:round"
       d=""
       id="path41"
       transform="scale(0.26458333)" />
    <path
       style="fill:#333333;fill-rule:evenodd;stroke:#282828;stroke-width:0.0354199;stroke-linecap:round"
       d="m 23.79422,3.694345 c -0.287048,-0.1153793 -0.234622,-0.3143062 0.113075,-0.4290568 0.34679,-0.1144509 0.831062,-0.052422 0.978595,0.1253445 0.231281,0.278677 -0.587345,0.5064262 -1.09167,0.3037123 z"
       id="path42"
       transform="scale(0.26458333)" />
    <path
       style="fill:#333333;fill-rule:evenodd;stroke:#282828;stroke-width:0.0354199;stroke-linecap:round"
       d="M 20.161679,40.279356 C 18.814215,40.127302 17.69654,39.955635 16.18378,39.668379 L 15.000145,39.44362 14.382763,38.873255 c -1.535575,-1.418632 -1.70111,-1.610556 -1.70111,-1.972297 0,-0.443522 0.454563,-1.047763 0.979326,-1.301796 0.210963,-0.102125 1.501619,-0.469272 2.868124,-0.81588 2.471546,-0.626899 2.903071,-0.772426 3.261525,-1.099917 0.179595,-0.164081 0.220926,-0.166459 0.94575,-0.05443 1.038995,0.160594 5.356665,0.159863 6.494798,-0.0011 l 0.836144,-0.118253 0.29521,0.259198 c 0.358492,0.31476 0.549016,0.377642 3.316515,1.094606 1.203856,0.311878 2.345205,0.636686 2.53633,0.721797 0.411287,0.183149 1.047964,0.847312 1.131568,1.180418 0.09317,0.37121 -0.237053,0.878374 -0.976567,1.499844 -0.36212,0.304318 -0.79581,0.69297 -0.963756,0.863672 -0.348841,0.354567 -0.500589,0.400211 -2.368812,0.712516 -2.55712,0.427466 -3.452451,0.498135 -6.70623,0.529324 -2.270502,0.02177 -3.38153,-0.0026 -4.169899,-0.09161 z"
       id="path43"
       transform="scale(0.26458333)" />
    <path
       style="fill:#333333;fill-rule:evenodd;stroke:#282828;stroke-width:0.0354199;stroke-linecap:round"
       d="m 21.107429,45.047404 c -3.24507,-0.31082 -5.348454,-0.635974 -7.737958,-1.196182 -1.601616,-0.375491 -2.921016,-0.748573 -3.036364,-0.858583 -0.03858,-0.03679 0.116178,-0.226219 0.343909,-0.420943 0.57468,-0.491385 3.963175,-2.506271 4.214872,-2.506271 0.113203,0 0.832576,0.115577 1.598607,0.256837 3.033348,0.559365 5.18361,0.729779 8.356947,0.662312 2.585647,-0.05497 3.86233,-0.176873 6.577264,-0.628012 l 1.848512,-0.307167 0.816784,0.50663 c 0.449232,0.278646 1.305075,0.81004 1.901873,1.180876 1.285911,0.799033 1.789444,1.200052 1.666058,1.326868 -0.123681,0.127117 -1.929206,0.633747 -3.528311,0.990042 -1.633923,0.364054 -3.572924,0.684966 -5.284235,0.874561 -1.463485,0.162138 -6.481934,0.239336 -7.737958,0.119032 z"
       id="path44"
       transform="scale(0.26458333)" />
    <path
       style="fill:#333333;fill-rule:evenodd;stroke:#282828;stroke-width:0.0354199;stroke-linecap:round"
       d="m 20.945279,33.051266 c -0.443838,-0.06462 -0.888771,-0.177821 -0.988739,-0.251548 -0.09997,-0.07373 -0.307737,-0.225793 -0.46171,-0.337923 -0.153973,-0.112131 -0.540871,-0.285182 -0.859773,-0.384558 -0.537776,-0.16758 -1.040969,-0.437588 -0.8155,-0.437588 0.05396,0 0.786788,0.0653 1.628507,0.145101 2.136917,0.202606 7.430942,0.202193 9.311345,-7.26e-4 1.650952,-0.178159 1.596054,-0.177398 1.465692,-0.02032 -0.05663,0.06823 -0.408163,0.225697 -0.781194,0.349928 -0.373032,0.12423 -0.824734,0.32563 -1.003784,0.447555 -0.179048,0.121924 -0.45476,0.275946 -0.61269,0.34227 -0.632341,0.265556 -5.374047,0.367395 -6.882154,0.147809 z"
       id="path45"
       transform="scale(0.26458333)" />
    <path
       style="fill:#333333;fill-rule:evenodd;stroke:#282828;stroke-width:0.0354199;stroke-linecap:round"
       d="m 20.419611,31.284431 c -1.777788,-0.144466 -2.719719,-0.299073 -3.044329,-0.499693 -0.169832,-0.104963 -0.308786,-0.236905 -0.308786,-0.293205 0,-0.0563 0.112182,-0.238462 0.249294,-0.404802 l 0.249295,-0.302438 1.233814,0.124075 c 1.637598,0.164679 9.236524,0.189168 10.589852,0.03413 0.810336,-0.09283 0.963221,-0.08953 1.185916,0.02563 0.364579,0.188532 0.492789,0.503006 0.294431,0.722188 -0.272346,0.300939 -0.953804,0.428348 -3.223085,0.602606 -1.347497,0.103474 -5.91462,0.09811 -7.226402,-0.0085 z"
       id="path46"
       transform="scale(0.26458333)" />
    <path
       style="fill:#333333;fill-rule:evenodd;stroke:#282828;stroke-width:0.0354199;stroke-linecap:round"
       d="m 21.623293,29.515148 c -1.817884,-0.112395 -3.620511,-0.290862 -3.810014,-0.377205 -0.269124,-0.122621 -0.567764,-0.538419 -0.889392,-1.238307 -0.192811,-0.419572 -0.243515,-0.669865 -0.271638,-1.340901 -0.07909,-1.887184 0.659871,-3.44656 3.520742,-7.429574 1.643686,-2.288403 2.07151,-3.038977 2.272386,-3.986666 0.176632,-0.83331 0.210842,-0.784285 -0.547271,-0.784285 -0.541682,0 -0.753277,-0.04103 -1.098345,-0.212986 -0.575969,-0.287017 -1.062907,-0.79731 -1.115836,-1.169353 -0.04826,-0.339258 0.04166,-0.479415 0.512649,-0.799039 l 0.33301,-0.225986 3.4056,4.79e-4 c 2.0713,2.92e-4 3.530528,0.03518 3.724461,0.08904 0.416443,0.115659 0.841832,0.541582 0.841832,0.842889 0,0.789725 -1.342676,1.640052 -2.38587,1.51099 l -0.451381,-0.05584 0.001,0.332322 c 0.0027,0.88274 0.520142,1.965696 1.801965,3.771413 1.377178,1.940045 2.44082,3.549354 2.954903,4.47082 0.856009,1.534352 1.211288,3.01298 1.002875,4.173852 -0.110246,0.614077 -0.710401,1.841105 -0.989023,2.022076 -0.508748,0.330446 -5.968271,0.582131 -8.812674,0.406268 z"
       id="path47"
       transform="scale(0.26458333)" />
    <path
       style="fill:#333333;fill-rule:evenodd;stroke:#282828;stroke-width:0.0354199;stroke-linecap:round"
       d="M 21.200787,11.015461 C 20.321285,9.7803141 20.00261,7.7913608 20.500684,6.6458915 c 0.493467,-1.1348744 2.105911,-2.0055241 3.707421,-2.0018461 0.794304,0.00182 2.14394,0.3320237 2.14394,0.5245323 0,0.04128 -0.290174,0.6067288 -0.64483,1.2565523 -0.693911,1.2714268 -0.783095,1.6187584 -0.437895,1.7053983 0.113815,0.028566 0.297591,0.00477 0.408393,-0.052883 0.202955,-0.1055996 1.026338,-0.7591115 1.663071,-1.3199655 0.18915,-0.1666092 0.394245,-0.3043784 0.455768,-0.3061538 0.242548,-0.007 0.399409,0.6080242 0.393887,1.5443633 -0.0064,1.087751 -0.272415,2.0195397 -0.78669,2.7557367 l -0.327211,0.468413 -2.848915,0.02265 -2.848914,0.02264 z"
       id="path48"
       transform="scale(0.26458333)" />
  </g>
  <metadata
     id="metadata1">
    <rdf:RDF>
      <cc:License
         rdf:about="http://creativecommons.org/licenses/by-sa/4.0/">
        <cc:permits
           rdf:resource="http://creativecommons.org/ns#Reproduction" />
        <cc:permits
           rdf:resource="http://creativecommons.org/ns#Distribution" />
        <cc:requires
           rdf:resource="http://creativecommons.org/ns#Notice" />
        <cc:requires
           rdf:resource="http://creativecommons.org/ns#Attribution" />
        <cc:permits
           rdf:resource="http://creativecommons.org/ns#DerivativeWorks" />
        <cc:requires
           rdf:resource="http://creativecommons.org/ns#ShareAlike" />
      </cc:License>
      <cc:Work
         rdf:about="">
        <cc:license
           rdf:resource="http://creativecommons.org/licenses/by-sa/4.0/" />
        <dc:creator>
          <cc:Agent>
            <dc:title>Curtis Walker</dc:title>
          </cc:Agent>
        </dc:creator>
      </cc:Work>
    </rdf:RDF>
  </metadata>
</svg>
