<?xml version="1.0" encoding="UTF-8" standalone="no"?>
<!-- Created with Inkscape (http://www.inkscape.org/) -->

<svg
   width="48"
   height="48"
   viewBox="0 0 12.7 12.7"
   version="1.1"
   id="svg1"
   inkscape:version="1.3 (0e150ed6c4, 2023-07-21)"
   sodipodi:docname="bKing.svg"
   xmlns:inkscape="http://www.inkscape.org/namespaces/inkscape"
   xmlns:sodipodi="http://sodipodi.sourceforge.net/DTD/sodipodi-0.dtd"
   xmlns="http://www.w3.org/2000/svg"
   xmlns:svg="http://www.w3.org/2000/svg"
   xmlns:rdf="http://www.w3.org/1999/02/22-rdf-syntax-ns#"
   xmlns:cc="http://creativecommons.org/ns#"
   xmlns:dc="http://purl.org/dc/elements/1.1/">
  <sodipodi:namedview
     id="namedview1"
     pagecolor="#505050"
     bordercolor="#eeeeee"
     borderopacity="1"
     inkscape:showpageshadow="0"
     inkscape:pageopacity="0"
     inkscape:pagecheckerboard="0"
     inkscape:deskcolor="#d1d1d1"
     inkscape:document-units="mm"
     inkscape:zoom="11.630976"
     inkscape:cx="28.028602"
     inkscape:cy="16.464654"
     inkscape:window-width="1366"
     inkscape:window-height="731"
     inkscape:window-x="0"
     inkscape:window-y="0"
     inkscape:window-maximized="1"
     inkscape:current-layer="layer1" />
  <defs
     id="defs1">
    <inkscape:path-effect
       effect="mirror_symmetry"
       start_point="6.3577583,1.622602"
       end_point="6.3577583,3.0813944"
       center_point="6.3577583,2.3519982"
       id="path-effect10"
       is_visible="true"
       lpeversion="1.2"
       lpesatellites=""
       mode="free"
       discard_orig_path="false"
       fuse_paths="false"
       oposite_fuse="false"
       split_items="false"
       split_open="false"
       link_styles="false" />
    <inkscape:path-effect
       effect="mirror_symmetry"
       start_point="6.35,0.38214236"
       end_point="6.35,1.3832394"
       center_point="6.35,0.88269088"
       id="path-effect9"
       is_visible="true"
       lpeversion="1.2"
       lpesatellites=""
       mode="free"
       discard_orig_path="false"
       fuse_paths="false"
       oposite_fuse="false"
       split_items="false"
       split_open="false"
       link_styles="false" />
    <inkscape:path-effect
       effect="mirror_symmetry"
       start_point="6.5883282,1.7801991"
       end_point="6.5883282,3.9917237"
       center_point="6.5883282,2.8859614"
       id="path-effect8"
       is_visible="true"
       lpeversion="1.2"
       lpesatellites=""
       mode="free"
       discard_orig_path="false"
       fuse_paths="false"
       oposite_fuse="false"
       split_items="false"
       split_open="false"
       link_styles="false" />
    <inkscape:path-effect
       effect="mirror_symmetry"
       start_point="6.8275181,4.7868426"
       end_point="6.8062803,12.273485"
       center_point="6.8168992,8.5301638"
       id="path-effect1"
       is_visible="true"
       lpeversion="1.2"
       lpesatellites=""
       mode="free"
       discard_orig_path="false"
       fuse_paths="false"
       oposite_fuse="false"
       split_items="false"
       split_open="false"
       link_styles="false" />
  </defs>
  <g
     inkscape:label="Layer 1"
     inkscape:groupmode="layer"
     id="layer1">
    <path
       id="path1"
       style="fill:none;fill-opacity:1;fill-rule:evenodd;stroke:#282828;stroke-width:0.1;stroke-linecap:round;stroke-dasharray:none;stroke-opacity:1"
       inkscape:path-effect="#path-effect1"
       inkscape:original-d="m 6.8060221,3.8422692 1.5215233,0.00434 C 8.9547772,3.8836807 9.3888739,3.5234987 9.3115496,4.240131 L 8.7632815,5.6975864 c 0.4935707,0.7820501 -0.4918701,2.0649613 -0.2359571,3.0943928 0.3467394,0.2392437 0.2249575,0.368207 0,0.472885 C 8.648337,9.4634336 8.3996407,9.5286745 8.1358088,9.588457 7.8713712,9.7081129 7.9060772,9.8277687 8.1447288,9.9474246 l 1.408413,0.3585284 c 0.3746077,0.253193 0.5413452,0.532458 0,0.90053 -0.1778342,0.143847 -0.4230073,0.284709 -0.010305,0.454726 l 0.8099872,0.490227 c 0.0847,0.117534 0.337613,0.243207 0.01684,0.341123"
       d="m 6.8060221,3.8422692 1.5215233,0.00434 C 8.9547772,3.8836807 9.3888739,3.5234987 9.3115496,4.240131 L 8.7632815,5.6975864 c 0.4935707,0.7820501 -0.4918701,2.0649613 -0.2359571,3.0943928 0.3467394,0.2392437 0.2249575,0.368207 0,0.472885 C 8.648337,9.4634336 8.3996407,9.5286745 8.1358088,9.588457 7.8713712,9.7081129 7.9060772,9.8277687 8.1447288,9.9474246 l 1.408413,0.3585284 c 0.3746077,0.253193 0.5413452,0.532458 0,0.90053 -0.1778342,0.143847 -0.4230073,0.284709 -0.010305,0.454726 l 0.8099872,0.490227 c 0.0847,0.117534 0.337613,0.243207 0.01684,0.341123 M 6.8543728,3.8424064 5.3328493,3.838114 C 4.7054173,3.8716263 4.2733711,3.5089873 4.3466283,4.2260467 L 4.8866188,5.6865892 C 4.3886191,6.4658265 5.3667655,7.7543079 5.1050161,8.7822709 4.756925,9.0195436 4.8779732,9.1491957 5.1023332,9.2551483 4.980196,9.453028 5.2285182,9.5196788 5.4920066,9.5809572 5.7557611,9.7021114 5.7203768,9.8215684 5.4810502,9.9398684 L 4.0706257,10.2904 c -0.3760381,0.251064 -0.5443573,0.529379 -0.00511,0.900516 0.1770152,0.144854 0.4213852,0.287104 0.00773,0.454777 l -0.8127555,0.485624 c -0.085365,0.117051 -0.3389874,0.241287 -0.018775,0.341022"
       sodipodi:nodetypes="ccccccccccccc"
       transform="translate(-0.45602208,-0.98158515)" />
    <path
       style="fill:none;fill-opacity:1;fill-rule:evenodd;stroke:#282828;stroke-width:0.1;stroke-linecap:round;stroke-dasharray:none;stroke-opacity:1"
       d="M 7.189927,4.8547845 C 6.5894835,4.7348459 6.0379152,4.7479319 5.510073,4.8255942"
       id="path2"
       sodipodi:nodetypes="cc" />
    <path
       style="fill:none;fill-opacity:1;fill-rule:evenodd;stroke:#282828;stroke-width:0.1;stroke-linecap:round;stroke-dasharray:none;stroke-opacity:1"
       d="M 4.6388458,7.8006857 C 5.7121933,7.9159566 6.829881,7.957548 8.0611542,7.8103957"
       id="path3"
       sodipodi:nodetypes="cc" />
    <path
       style="fill:none;fill-opacity:1;fill-rule:evenodd;stroke:#282828;stroke-width:0.1;stroke-linecap:round;stroke-dasharray:none;stroke-opacity:1"
       d="m 4.6375044,8.2735631 c 1.1786521,0.1592944 2.3180041,0.1527809 3.4249912,0.00972"
       id="path4"
       sodipodi:nodetypes="cc" />
    <path
       style="fill:none;fill-opacity:1;fill-rule:evenodd;stroke:#282828;stroke-width:0.1;stroke-linecap:round;stroke-dasharray:none;stroke-opacity:1"
       d="m 5.2121267,8.7742783 c 0.8000716,0.1434733 1.5534436,0.1261988 2.2757466,0.00198"
       id="path5"
       sodipodi:nodetypes="cc" />
    <path
       style="fill:none;fill-opacity:1;fill-rule:evenodd;stroke:#282828;stroke-width:0.1;stroke-linecap:round;stroke-dasharray:none;stroke-opacity:1"
       d="m 3.8407062,10.482806 c 1.7550124,0.42468 3.4153312,0.366705 5.0185875,0.01788"
       id="path6"
       sodipodi:nodetypes="cc" />
    <path
       style="fill:none;fill-opacity:1;fill-rule:evenodd;stroke:#282828;stroke-width:0.1;stroke-linecap:round;stroke-dasharray:none;stroke-opacity:1"
       d="M 9.9136418,11.510974 C 7.5737068,12.2157 5.1965844,12.186471 2.7856931,11.490754 v 0"
       id="path7"
       sodipodi:nodetypes="ccc" />
    <path
       style="fill:none;fill-rule:evenodd;stroke:#282828;stroke-width:0.109;stroke-linecap:round;stroke-opacity:1"
       d="M 6.3499999,1.3887042 C 6.7340204,1.1939078 6.4955393,0.98526153 6.7271248,0.98183646 7.0612096,0.91256205 6.8801216,0.83297128 6.7587812,0.75457697 L 6.5018647,0.73924863 6.3499999,0.38760736 m 2e-7,1.00109684 C 5.9659796,1.1939078 6.2044607,0.98526153 5.9728752,0.98183646 5.6387904,0.91256205 5.8198784,0.83297128 5.9412188,0.75457697 L 6.1981353,0.73924863 6.3500001,0.38760736"
       id="path9"
       inkscape:path-effect="#path-effect9"
       inkscape:original-d="M 6.3499999,1.3887042 C 6.7340204,1.1939078 6.4955393,0.98526153 6.7271248,0.98183646 7.0612096,0.91256205 6.8801216,0.83297128 6.7587812,0.75457697 L 6.5018647,0.73924863 6.3499999,0.38760736"
       sodipodi:nodetypes="ccccc" />
    <path
       style="fill:none;fill-rule:evenodd;stroke:#282828;stroke-width:0.109;stroke-linecap:round;stroke-opacity:1"
       d="M 8.2541366,2.8474966 C 8.7080676,1.5301887 8.9124368,0.40339026 6.3499999,1.3887042 M 4.46138,2.8474966 C 4.007449,1.5301887 3.8030798,0.40339026 6.3655167,1.3887042"
       id="path10"
       inkscape:path-effect="#path-effect10"
       inkscape:original-d="M 8.2541366,2.8474966 C 8.7080676,1.5301887 8.9124368,0.40339026 6.3499999,1.3887042"
       sodipodi:nodetypes="cc" />
    <path
       style="fill:#cccccc;fill-rule:evenodd;stroke:#282828;stroke-width:0.0354199;stroke-linecap:round;stroke-opacity:1"
       d="m 22.053179,45.167786 c -2.801753,-0.189992 -4.888496,-0.453699 -7.091387,-0.896157 -2.1818,-0.438221 -4.773481,-1.127812 -4.773481,-1.270121 0,-0.237407 0.770849,-0.807967 2.321387,-1.71822 0.969394,-0.56909 1.859857,-1.110035 1.978806,-1.2021 0.215357,-0.166686 0.221345,-0.166375 1.418625,0.07366 5.40665,1.083934 10.499736,1.092093 16.223788,0.02599 l 1.179087,-0.219604 0.239539,0.185727 c 0.131747,0.10215 0.99399,0.631268 1.916096,1.175817 1.589869,0.938896 2.321388,1.481715 2.321388,1.722574 0,0.13484 -0.949813,0.437303 -2.765375,0.880619 -3.629569,0.886253 -7.300788,1.316566 -10.946538,1.283073 -0.89927,-0.0083 -1.809141,-0.02683 -2.021935,-0.04126 z"
       id="path11"
       transform="scale(0.26458333)" />
    <path
       style="fill:#cccccc;fill-rule:evenodd;stroke:#282828;stroke-width:0.0354199;stroke-linecap:round;stroke-opacity:1"
       d="m 21.322372,40.438985 c -2.193855,-0.174923 -4.129928,-0.463419 -6.327004,-0.942794 -0.122439,-0.02672 -0.288628,-0.160322 -0.36931,-0.296904 -0.08068,-0.136583 -0.475476,-0.505065 -0.877322,-0.818849 -1.184743,-0.925114 -1.410678,-1.458773 -0.910077,-2.149597 0.518453,-0.715461 0.679162,-0.783087 3.488855,-1.468103 2.893957,-0.70556 2.963056,-0.727786 3.330848,-1.071354 l 0.263027,-0.245704 1.044401,0.1444 c 1.442678,0.199467 4.608959,0.198327 6.060527,-0.0022 l 1.06117,-0.146583 0.303555,0.266526 c 0.166956,0.146588 0.385846,0.300999 0.486422,0.343133 0.100576,0.04214 1.361638,0.376033 2.802359,0.741995 2.523516,0.641006 2.63502,0.67812 3.043297,1.012937 0.774923,0.635494 0.911135,1.201213 0.438443,1.820945 -0.124474,0.163194 -0.563675,0.562832 -0.976001,0.888084 -0.412326,0.325251 -0.791669,0.683514 -0.842984,0.796138 -0.08409,0.184547 -0.219494,0.227768 -1.370989,0.437608 -3.067548,0.559008 -5.205964,0.750851 -8.155875,0.731687 -1.182188,-0.0077 -2.304192,-0.0263 -2.493342,-0.04138 z"
       id="path12"
       transform="scale(0.26458333)" />
    <path
       style="fill:#cccccc;fill-rule:evenodd;stroke:#282828;stroke-width:0.0354199;stroke-linecap:round;stroke-opacity:1"
       d="m 21.881225,33.2321 c -0.07093,-0.01661 -0.531178,-0.07726 -1.02277,-0.134788 -0.843197,-0.09868 -0.907675,-0.120397 -1.138803,-0.383638 -0.260332,-0.296502 -0.43215,-0.381481 -1.202804,-0.594898 -0.488318,-0.13523 -0.93922,-0.416404 -0.835228,-0.520833 0.03095,-0.03108 0.649986,0.0049 1.375637,0.07993 3.139355,0.324654 7.016059,0.327647 10.046062,0.0078 0.685669,-0.07239 1.256343,-0.131694 1.268165,-0.131788 0.01182,-9.3e-5 0.02149,0.05687 0.02149,0.126588 0,0.163297 -0.31831,0.324168 -1.101852,0.556864 -0.406576,0.120744 -0.740987,0.286397 -0.945751,0.468483 -0.268938,0.239154 -0.427129,0.29854 -1.04758,0.393273 -0.657124,0.100332 -5.091085,0.209246 -5.41657,0.13305 z"
       id="path13"
       transform="scale(0.26458333)" />
    <path
       style="fill:#cccccc;fill-rule:evenodd;stroke:#282828;stroke-width:0.0354199;stroke-linecap:round;stroke-opacity:1"
       d="m 20.725695,31.369769 c -0.56461,-0.04041 -1.505699,-0.12922 -2.09131,-0.197361 -0.905515,-0.105365 -1.108796,-0.157492 -1.359306,-0.348565 -0.162008,-0.12357 -0.294561,-0.281306 -0.294561,-0.350526 0,-0.06922 0.129909,-0.267607 0.288686,-0.440863 l 0.288686,-0.315011 1.065457,0.100772 c 3.328685,0.31483 7.868969,0.343193 10.606075,0.06626 1.162763,-0.117647 1.208408,-0.116094 1.440294,0.04902 0.477765,0.340199 0.528316,0.665217 0.145823,0.937576 -0.296262,0.210957 -1.234342,0.348789 -3.447878,0.506598 -1.457169,0.103885 -5.141248,0.0995 -6.641966,-0.0079 z"
       id="path14"
       transform="scale(0.26458333)" />
    <path
       style="fill:#cccccc;fill-rule:evenodd;stroke:#282828;stroke-width:0.0354199;stroke-linecap:round;stroke-opacity:1"
       d="m 22.139157,29.608283 c -0.401944,-0.01764 -1.47455,-0.09012 -2.383569,-0.16105 -0.909019,-0.07093 -1.715971,-0.128971 -1.793228,-0.128971 -0.09735,0 -0.123102,-0.04525 -0.08389,-0.147425 0.106468,-0.277454 0.05899,-2.053978 -0.07546,-2.823638 -0.07388,-0.422922 -0.309475,-1.426676 -0.523544,-2.230564 -0.684701,-2.571246 -0.835089,-3.405972 -0.797741,-4.427832 0.02761,-0.755315 0.07128,-0.987016 0.267386,-1.418625 l 0.23439,-0.515864 -1.033218,-2.78821 c -0.865202,-2.334808 -1.033218,-2.866475 -1.033218,-3.269502 0,-0.305115 0.05114,-0.554305 0.139712,-0.680758 0.148861,-0.212529 0.238099,-0.215301 2.009721,-0.06241 0.260081,0.02244 3.374609,0.06137 6.921173,0.08651 5.358197,0.03797 6.60818,0.02448 7.394048,-0.07984 1.257246,-0.166882 1.470405,-0.161162 1.676558,0.04499 0.136737,0.136738 0.171954,0.286591 0.171954,0.731685 0,0.505743 -0.100185,0.826034 -1.038708,3.320736 l -1.038708,2.761005 0.234849,0.523312 c 0.18191,0.40535 0.243862,0.698513 0.274834,1.300545 0.04985,0.969012 -0.08479,1.718018 -0.752272,4.184848 -0.650873,2.405447 -0.807714,3.345948 -0.758238,4.54678 l 0.03841,0.932332 -0.39308,0.05035 c -1.558409,0.199633 -5.724103,0.336487 -7.658163,0.251591 z m 5.201627,-11.252128 c 0,-0.133117 -0.09017,-0.194213 -0.399232,-0.270507 -1.643559,-0.40572 -6.032101,-0.350322 -6.298283,0.07951 -0.115933,0.187207 0.06953,0.34327 0.335194,0.282057 0.09457,-0.02179 0.694267,-0.08445 1.332648,-0.139243 1.256502,-0.107845 2.887212,-0.05309 3.954956,0.132784 0.860135,0.149738 1.074717,0.132847 1.074717,-0.0846 z"
       id="path15"
       transform="scale(0.26458333)" />
    <path
       style="fill:#cccccc;fill-rule:evenodd;stroke:#282828;stroke-width:0.0354199;stroke-linecap:round;stroke-opacity:1"
       d="M 17.185418,10.516289 C 17.034519,10.486427 16.949922,10.301066 16.690346,9.4315303 16.130282,7.5554097 15.957511,6.4178108 16.116402,5.6524361 c 0.13765,-0.6630599 0.390406,-1.007846 0.950183,-1.2961543 0.465342,-0.2396701 0.491061,-0.2428722 1.633479,-0.2033703 1.308221,0.045235 2.093923,0.220126 3.997945,0.8899112 0.614738,0.2162486 1.21443,0.3941626 1.332648,0.3953643 0.118219,0.0012 0.655968,-0.1592228 1.194998,-0.356499 1.665292,-0.6094703 2.831028,-0.8765393 4.058156,-0.9297196 1.188807,-0.05152 1.551334,0.016714 2.043641,0.3846499 0.869911,0.6501458 0.86521,2.2777235 -0.01471,5.0928401 l -0.282176,0.9027616 -6.831574,0.01004 c -3.757366,0.0055 -6.913473,-0.0062 -7.013572,-0.02597 z"
       id="path16"
       transform="scale(0.26458333)" />
    <path
       style="fill:#cccccc;fill-rule:evenodd;stroke:#282828;stroke-width:0.0354199;stroke-linecap:round;stroke-opacity:1"
       d="M 23.710312,4.7661753 C 23.537153,4.6296986 23.394305,4.4120304 23.330075,4.1867819 23.190764,3.6982288 23.030697,3.5321815 22.63861,3.4694842 21.974521,3.3632921 22.216562,3.1486027 23.111043,3.050437 l 0.499011,-0.054764 0.196768,-0.4446144 0.196768,-0.4446143 0.193865,0.4462408 0.193864,0.4462408 0.485994,0.053138 c 0.890163,0.097329 1.1186,0.3120126 0.44638,0.419505 -0.375388,0.060027 -0.549264,0.2528611 -0.645806,0.7162217 -0.03282,0.1575259 -0.185222,0.387992 -0.355341,0.5373581 -0.163829,0.1438445 -0.306198,0.2611064 -0.316375,0.260582 -0.01018,-5.243e-4 -0.143313,-0.099324 -0.295859,-0.2195554 z"
       id="path17"
       transform="scale(0.26458333)" />
    <path
       style="fill:#333333;fill-rule:evenodd;stroke:#282828;stroke-width:0.0354199;stroke-linecap:round"
       d="m 21.107429,45.047404 c -3.24507,-0.31082 -5.348454,-0.635974 -7.737958,-1.196182 -1.601616,-0.375491 -2.921016,-0.748573 -3.036364,-0.858583 -0.129748,-0.123742 0.700085,-0.727876 2.515049,-1.831003 1.084088,-0.658904 1.89254,-1.096211 2.02657,-1.096211 0.122642,0 0.849738,0.115577 1.615769,0.256837 3.033348,0.559365 5.18361,0.729779 8.356947,0.662312 2.585647,-0.05497 3.86233,-0.176873 6.577264,-0.628012 l 1.848512,-0.307167 0.816784,0.50663 c 0.449232,0.278646 1.305075,0.81004 1.901873,1.180876 1.285911,0.799033 1.789444,1.200052 1.666058,1.326868 -0.123681,0.127117 -1.929206,0.633747 -3.528311,0.990042 -1.633923,0.364054 -3.572924,0.684966 -5.284235,0.874561 -1.463485,0.162138 -6.481934,0.239336 -7.737958,0.119032 z"
       id="path8"
       transform="scale(0.26458333)" />
    <path
       style="fill:#333333;fill-rule:evenodd;stroke:#282828;stroke-width:0.0354199;stroke-linecap:round"
       d="M 20.161679,40.279356 C 18.814215,40.127302 17.69654,39.955635 16.18378,39.668379 L 15.000145,39.44362 14.382763,38.873255 c -1.535575,-1.418632 -1.70111,-1.610556 -1.70111,-1.972297 0,-0.443522 0.454563,-1.047763 0.979326,-1.301796 0.210963,-0.102125 1.501619,-0.469272 2.868124,-0.81588 2.471546,-0.626899 2.903071,-0.772426 3.261525,-1.099917 0.179595,-0.164081 0.220926,-0.166459 0.94575,-0.05443 1.038995,0.160594 5.356665,0.159863 6.494798,-0.0011 l 0.836144,-0.118253 0.29521,0.259198 c 0.358492,0.31476 0.549016,0.377642 3.316515,1.094606 1.203856,0.311878 2.345205,0.636686 2.53633,0.721797 0.411287,0.183149 1.047964,0.847312 1.131568,1.180418 0.09317,0.37121 -0.237053,0.878374 -0.976567,1.499844 -0.36212,0.304318 -0.79581,0.69297 -0.963756,0.863672 -0.348841,0.354567 -0.500589,0.400211 -2.368812,0.712516 -2.55712,0.427466 -3.452451,0.498135 -6.70623,0.529324 -2.270502,0.02177 -3.38153,-0.0026 -4.169899,-0.09161 z"
       id="path18"
       transform="scale(0.26458333)" />
    <path
       style="fill:#333333;fill-rule:evenodd;stroke:#282828;stroke-width:0.0354199;stroke-linecap:round"
       d="m 20.945279,33.051266 c -0.443838,-0.06462 -0.888771,-0.177821 -0.988739,-0.251548 -0.09997,-0.07373 -0.307737,-0.225793 -0.46171,-0.337923 -0.153973,-0.112131 -0.540871,-0.285182 -0.859773,-0.384558 -0.537776,-0.16758 -1.040969,-0.437588 -0.8155,-0.437588 0.05396,0 0.786788,0.0653 1.628507,0.145101 2.136917,0.202606 7.430942,0.202193 9.311345,-7.26e-4 1.650952,-0.178159 1.596054,-0.177398 1.465692,-0.02032 -0.05663,0.06823 -0.408163,0.225697 -0.781194,0.349928 -0.373032,0.12423 -0.824734,0.32563 -1.003784,0.447555 -0.179048,0.121924 -0.45476,0.275946 -0.61269,0.34227 -0.632341,0.265556 -5.374047,0.367395 -6.882154,0.147809 z"
       id="path19"
       transform="scale(0.26458333)" />
    <path
       style="fill:#333333;fill-rule:evenodd;stroke:#282828;stroke-width:0.0354199;stroke-linecap:round"
       d="m 20.419611,31.284431 c -1.777788,-0.144466 -2.719719,-0.299073 -3.044329,-0.499693 -0.169832,-0.104963 -0.308786,-0.236905 -0.308786,-0.293205 0,-0.0563 0.112182,-0.238462 0.249294,-0.404802 l 0.249295,-0.302438 1.233814,0.124075 c 1.637598,0.164679 9.236524,0.189168 10.589852,0.03413 0.810336,-0.09283 0.963221,-0.08953 1.185916,0.02563 0.364579,0.188532 0.492789,0.503006 0.294431,0.722188 -0.272346,0.300939 -0.953804,0.428348 -3.223085,0.602606 -1.347497,0.103474 -5.91462,0.09811 -7.226402,-0.0085 z"
       id="path20"
       transform="scale(0.26458333)" />
    <path
       style="fill:#333333;fill-rule:evenodd;stroke:#282828;stroke-width:0.0354199;stroke-linecap:round"
       d="m 19.946735,29.408071 c -1.087613,-0.08767 -1.977478,-0.163319 -1.977478,-0.168104 0,-2.561054 -0.03579,-2.832044 -0.733511,-5.553219 -0.594821,-2.319866 -0.709944,-3.017476 -0.666657,-4.039709 0.02895,-0.683593 0.08283,-0.968534 0.26152,-1.382905 l 0.225062,-0.521909 -0.687561,-1.842467 c -1.082535,-2.900889 -1.36507,-3.78274 -1.36507,-4.260668 0,-0.77638 -0.152864,-0.742401 2.839243,-0.63113 2.650586,0.09857 13.34572,0.06237 14.426656,-0.04882 0.72852,-0.07494 0.875313,0.04874 0.875313,0.737545 0,0.548589 -0.217735,1.229625 -1.368428,4.280206 l -0.69165,1.833621 0.234236,0.530755 c 0.218885,0.495975 0.233762,0.606814 0.227037,1.691449 -0.0069,1.114936 -0.02506,1.228481 -0.460431,2.880239 -0.897107,3.403565 -1.080738,4.472409 -0.977786,5.691292 0.0622,0.736438 0.178011,0.673572 -1.476787,0.801664 -2.248417,0.17404 -6.538239,0.175109 -8.683708,0.0022 z m 7.437037,-10.9984 c 0,-0.226368 -0.144116,-0.318541 -0.687818,-0.439909 -1.063302,-0.237356 -5.079081,-0.239574 -5.795296,-0.0032 -0.246985,0.08151 -0.309093,0.145924 -0.309093,0.320556 v 0.218545 l 0.924256,-0.07475 c 1.165309,-0.09425 3.967041,-0.07093 4.535303,0.03775 0.236438,0.04522 0.633008,0.08677 0.881268,0.09233 0.387841,0.0087 0.45138,-0.01261 0.45138,-0.151315 z"
       id="path21"
       transform="scale(0.26458333)" />
    <path
       style="fill:#333333;fill-rule:evenodd;stroke:#282828;stroke-width:0.0354199;stroke-linecap:round"
       d="M 17.068758,10.321505 C 16.92557,10.053956 16.403067,8.1755118 16.255602,7.3981399 15.998726,6.0440016 16.137592,5.2244986 16.71184,4.7057001 17.217915,4.2484917 17.528232,4.180322 18.824231,4.2416554 c 1.345695,0.063685 1.444153,0.084812 3.556649,0.7631822 l 1.660348,0.5331755 1.348857,-0.4451963 c 2.004128,-0.6614708 2.645445,-0.7990214 3.971166,-0.8517401 1.153785,-0.045882 1.163485,-0.044681 1.629754,0.2017676 0.373377,0.197351 0.513683,0.334641 0.687818,0.6730381 0.41191,0.800466 0.257476,2.2381481 -0.510239,4.7500136 l -0.190513,0.623336 h -6.909774 c -6.763715,0 -6.911672,-0.0035 -6.999539,-0.167727 z"
       id="path22"
       transform="scale(0.26458333)" />
    <path
       style="fill:#333333;fill-rule:evenodd;stroke:#282828;stroke-width:0.0354199;stroke-linecap:round"
       d="M 23.702169,4.6449681 C 23.563075,4.5058746 23.422704,4.2840475 23.390233,4.1520191 23.283862,3.7195161 23.099192,3.5312074 22.675113,3.4228089 l -0.40699,-0.1040304 0.343909,-0.1051902 c 0.18915,-0.057855 0.501181,-0.1081636 0.693401,-0.1117977 0.333531,-0.00631 0.357336,-0.025258 0.521261,-0.4149997 l 0.171769,-0.4083923 0.177302,0.3950207 0.177303,0.3950207 0.533104,0.05572 c 0.764116,0.079866 0.893594,0.1794478 0.396175,0.3046994 -0.381214,0.095991 -0.41337,0.1279958 -0.643151,0.640136 C 24.505633,4.366682 24.2983,4.6729703 24.176194,4.7529772 23.961054,4.8939423 23.948219,4.8910177 23.702169,4.6449681 Z"
       id="path23"
       transform="scale(0.26458333)" />
  </g>
  <metadata
     id="metadata1">
    <rdf:RDF>
      <cc:Work
         rdf:about="">
        <dc:creator>
          <cc:Agent>
            <dc:title>Curtis Walker</dc:title>
          </cc:Agent>
        </dc:creator>
        <cc:license
           rdf:resource="http://creativecommons.org/licenses/by-sa/4.0/" />
      </cc:Work>
      <cc:License
         rdf:about="http://creativecommons.org/licenses/by-sa/4.0/">
        <cc:permits
           rdf:resource="http://creativecommons.org/ns#Reproduction" />
        <cc:permits
           rdf:resource="http://creativecommons.org/ns#Distribution" />
        <cc:requires
           rdf:resource="http://creativecommons.org/ns#Notice" />
        <cc:requires
           rdf:resource="http://creativecommons.org/ns#Attribution" />
        <cc:permits
           rdf:resource="http://creativecommons.org/ns#DerivativeWorks" />
        <cc:requires
           rdf:resource="http://creativecommons.org/ns#ShareAlike" />
      </cc:License>
    </rdf:RDF>
  </metadata>
</svg>
