<?xml version="1.0" encoding="UTF-8" standalone="no"?>
<!-- Created with Inkscape (http://www.inkscape.org/) -->

<svg
   width="48"
   height="48"
   viewBox="0 0 12.7 12.7"
   version="1.1"
   id="svg1"
   inkscape:version="1.3.1 (9b9bdc1480, 2023-11-25, custom)"
   sodipodi:docname="bKnight.svg"
   xmlns:inkscape="http://www.inkscape.org/namespaces/inkscape"
   xmlns:sodipodi="http://sodipodi.sourceforge.net/DTD/sodipodi-0.dtd"
   xmlns="http://www.w3.org/2000/svg"
   xmlns:svg="http://www.w3.org/2000/svg"
   xmlns:rdf="http://www.w3.org/1999/02/22-rdf-syntax-ns#"
   xmlns:cc="http://creativecommons.org/ns#"
   xmlns:dc="http://purl.org/dc/elements/1.1/">
  <sodipodi:namedview
     id="namedview1"
     pagecolor="#505050"
     bordercolor="#eeeeee"
     borderopacity="1"
     inkscape:showpageshadow="0"
     inkscape:pageopacity="0"
     inkscape:pagecheckerboard="0"
     inkscape:deskcolor="#d1d1d1"
     inkscape:document-units="mm"
     inkscape:zoom="11.630976"
     inkscape:cx="24.58951"
     inkscape:cy="18.957996"
     inkscape:window-width="1452"
     inkscape:window-height="991"
     inkscape:window-x="26"
     inkscape:window-y="23"
     inkscape:window-maximized="0"
     inkscape:current-layer="layer1" />
  <defs
     id="defs1">
    <inkscape:path-effect
       effect="mirror_symmetry"
       start_point="6.4213519,0.78163482"
       end_point="6.4213519,1.0697932"
       center_point="6.4213519,0.92571401"
       id="path-effect35"
       is_visible="true"
       lpeversion="1.2"
       lpesatellites=""
       mode="free"
       discard_orig_path="false"
       fuse_paths="false"
       oposite_fuse="false"
       split_items="false"
       split_open="false"
       link_styles="false" />
    <inkscape:path-effect
       effect="mirror_symmetry"
       start_point="6.4107998,1.2169379"
       end_point="6.4107998,3.1592621"
       center_point="6.4107998,2.1881"
       id="path-effect34"
       is_visible="true"
       lpeversion="1.2"
       lpesatellites=""
       mode="free"
       discard_orig_path="false"
       fuse_paths="false"
       oposite_fuse="false"
       split_items="false"
       split_open="false"
       link_styles="false" />
    <inkscape:path-effect
       effect="mirror_symmetry"
       start_point="6.5289629,1.3671315"
       end_point="6.5289629,3.3578997"
       center_point="6.5289629,2.3625156"
       id="path-effect33"
       is_visible="true"
       lpeversion="1.2"
       lpesatellites=""
       mode="free"
       discard_orig_path="false"
       fuse_paths="false"
       oposite_fuse="false"
       split_items="false"
       split_open="false"
       link_styles="false" />
    <inkscape:path-effect
       effect="mirror_symmetry"
       start_point="6.3577583,1.622602"
       end_point="6.3577583,3.0813944"
       center_point="6.3577583,2.3519982"
       id="path-effect10"
       is_visible="true"
       lpeversion="1.2"
       lpesatellites=""
       mode="free"
       discard_orig_path="false"
       fuse_paths="false"
       oposite_fuse="false"
       split_items="false"
       split_open="false"
       link_styles="false" />
    <inkscape:path-effect
       effect="mirror_symmetry"
       start_point="6.35,0.38214236"
       end_point="6.35,1.3832394"
       center_point="6.35,0.88269088"
       id="path-effect9"
       is_visible="true"
       lpeversion="1.2"
       lpesatellites=""
       mode="free"
       discard_orig_path="false"
       fuse_paths="false"
       oposite_fuse="false"
       split_items="false"
       split_open="false"
       link_styles="false" />
    <inkscape:path-effect
       effect="mirror_symmetry"
       start_point="6.5883282,1.7801991"
       end_point="6.5883282,3.9917237"
       center_point="6.5883282,2.8859614"
       id="path-effect8"
       is_visible="true"
       lpeversion="1.2"
       lpesatellites=""
       mode="free"
       discard_orig_path="false"
       fuse_paths="false"
       oposite_fuse="false"
       split_items="false"
       split_open="false"
       link_styles="false" />
    <inkscape:path-effect
       effect="mirror_symmetry"
       start_point="6.8275181,4.7868426"
       end_point="6.8062803,12.273485"
       center_point="6.8168992,8.5301638"
       id="path-effect1"
       is_visible="true"
       lpeversion="1.2"
       lpesatellites=""
       mode="free"
       discard_orig_path="false"
       fuse_paths="false"
       oposite_fuse="false"
       split_items="false"
       split_open="false"
       link_styles="false" />
  </defs>
  <g
     inkscape:label="Layer 1"
     inkscape:groupmode="layer"
     id="layer1">
    <path
       id="path1"
       style="fill:none;fill-opacity:1;fill-rule:evenodd;stroke:#282828;stroke-width:0.1;stroke-linecap:round;stroke-dasharray:none;stroke-opacity:1"
       d="M 5.1050164,8.7822805 C 4.7569252,9.0195532 4.8779735,9.1492053 5.1023335,9.2551579 4.980196,9.453028 5.2285182,9.5196788 5.4920066,9.5809572 5.7557611,9.7021114 5.7203768,9.8215684 5.4810502,9.9398684 L 4.0706257,10.2904 c -0.3760381,0.251064 -0.5443573,0.529379 -0.00511,0.900516 0.1770152,0.144854 0.4213852,0.287104 0.00773,0.454777 l -0.8127555,0.485624 c -0.085365,0.117051 -0.3389874,0.241287 -0.018775,0.341022 m 7.1279528,0.02022 c 0.320773,-0.09792 0.06786,-0.223589 -0.01684,-0.341123 L 9.5428368,11.661209 c -0.4127023,-0.170017 -0.1675292,-0.310879 0.010305,-0.454726 0.5413452,-0.368072 0.3746077,-0.647337 0,-0.90053 L 8.1447288,9.9474246 C 7.9060772,9.8277687 7.8713712,9.7081129 8.1358088,9.588457 8.3996407,9.5286745 8.648337,9.4634336 8.5273241,9.2648738 c 0.2249575,-0.104678 0.3467394,-0.2336413 0,-0.472885 C 10.148092,6.8704971 10.50749,2.8853329 8.2568647,2.5061563 8.4878413,2.2815872 8.7698491,2.0881917 8.5671763,1.5987179 7.9621855,1.5514902 7.4751162,1.7931909 6.9855871,2.0288648 6.3941155,1.6644136 5.9337029,1.7898813 5.0448679,2.6445114 4.4908051,3.5372004 3.9748513,3.9763121 3.4462547,4.5659 3.3062537,4.8852716 2.9879589,5.1252864 3.2928683,5.3649944 3.2132883,5.5549771 3.1604342,5.4803347 3.2937125,5.6703174 L 3.7620938,5.4657616 c 0.065259,0.1964936 0.034003,0.3111465 -0.089718,0.5231234 L 4.070438,6.028868 C 4.4838706,6.197028 4.745843,5.5900388 5.3647379,5.2399346 5.6706627,5.5731673 6.1013598,5.4375864 6.571638,5.1921077 L 7.3401859,4.4286554 C 4.7706467,7.0556566 4.024132,7.0215648 5.0948679,8.7822709"
       sodipodi:nodetypes="cccccccccccccccccccccccccccccccc"
       transform="translate(-0.45602208,-0.98158515)" />
    <path
       style="fill:none;fill-opacity:1;fill-rule:evenodd;stroke:#282828;stroke-width:0.1;stroke-linecap:round;stroke-dasharray:none;stroke-opacity:1"
       d="M 4.6388458,7.8006857 C 5.7121933,7.9159566 6.829881,7.957548 8.0611542,7.8103957"
       id="path3"
       sodipodi:nodetypes="cc" />
    <path
       style="fill:none;fill-opacity:1;fill-rule:evenodd;stroke:#282828;stroke-width:0.1;stroke-linecap:round;stroke-dasharray:none;stroke-opacity:1"
       d="m 4.6375044,8.2735631 c 1.1786521,0.1592944 2.3180041,0.1527809 3.4249912,0.00972"
       id="path4"
       sodipodi:nodetypes="cc" />
    <path
       style="fill:none;fill-opacity:1;fill-rule:evenodd;stroke:#282828;stroke-width:0.1;stroke-linecap:round;stroke-dasharray:none;stroke-opacity:1"
       d="m 5.2121267,8.7742783 c 0.8000716,0.1434733 1.5534436,0.1261988 2.2757466,0.00198"
       id="path5"
       sodipodi:nodetypes="cc" />
    <path
       style="fill:none;fill-opacity:1;fill-rule:evenodd;stroke:#282828;stroke-width:0.1;stroke-linecap:round;stroke-dasharray:none;stroke-opacity:1"
       d="m 3.8407062,10.482806 c 1.7550124,0.42468 3.4153312,0.366705 5.0185875,0.01788"
       id="path6"
       sodipodi:nodetypes="cc" />
    <path
       style="fill:none;fill-opacity:1;fill-rule:evenodd;stroke:#282828;stroke-width:0.1;stroke-linecap:round;stroke-dasharray:none;stroke-opacity:1"
       d="M 9.9136418,11.510974 C 7.5737068,12.2157 5.1965844,12.186471 2.7856931,11.490754 v 0"
       id="path7"
       sodipodi:nodetypes="ccc" />
    <path
       style="fill:#cccccc;fill-rule:evenodd;stroke:#282828;stroke-width:0.0354199;stroke-linecap:round"
       d=""
       id="path41"
       transform="scale(0.26458333)" />
    <path
       style="fill:none;fill-rule:evenodd;stroke:#282828;stroke-width:0.109;stroke-linecap:round"
       id="path48"
       sodipodi:type="arc"
       sodipodi:cx="1.3567684"
       sodipodi:cy="5.2806854"
       sodipodi:rx="0.32345042"
       sodipodi:ry="0.185984"
       sodipodi:start="0.66197569"
       sodipodi:end="4.4727429"
       sodipodi:arc-type="slice"
       d="M 1.6118994,5.3950054 A 0.32345042,0.185984 0 0 1 1.2423908,5.4546531 0.32345042,0.185984 0 0 1 1.0339175,5.269367 0.32345042,0.185984 0 0 1 1.2799946,5.1000165 l 0.076774,0.1806689 z"
       transform="rotate(-53.405618)"
       inkscape:transform-center-x="-0.19263518"
       inkscape:transform-center-y="0.14827812" />
    <path
       style="fill:none;fill-rule:evenodd;stroke:#282828;stroke-width:0.109;stroke-linecap:round"
       d="m 3.1054352,3.8087622 c 0.046495,0.097864 0.067991,0.1957289 -0.076819,0.2935933"
       id="path49"
       sodipodi:nodetypes="cc" />
    <path
       style="fill:none;fill-rule:evenodd;stroke:#282828;stroke-width:0.109;stroke-linecap:round"
       d="M 6.8156959,1.2572358 C 7.1068107,1.0213119 7.4470129,0.87809606 7.8413183,0.83706128 7.8622375,1.0347156 7.7910079,1.2323698 7.5154241,1.4300241"
       id="path50"
       sodipodi:nodetypes="ccc" />
    <path
       style="fill:none;fill-rule:evenodd;stroke:#282828;stroke-width:0.109;stroke-linecap:round"
       d="M 7.6508024,7.5430596 C 9.0387577,5.4118525 9.6884707,3.410586 7.8954785,1.8392689"
       id="path51"
       sodipodi:nodetypes="cc" />
    <path
       style="fill:#cccccc;fill-rule:evenodd;stroke:#282828;stroke-width:0.0354199;stroke-linecap:round"
       d="m 20.677542,29.526543 c -0.975859,-0.06409 -2.993859,-0.251524 -3.022444,-0.280732 -0.148171,-0.151397 -1.129025,-2.086484 -1.332255,-2.628351 -0.245021,-0.653293 -0.277543,-0.842223 -0.282488,-1.641052 -0.005,-0.806995 0.01895,-0.955123 0.225737,-1.396351 0.553397,-1.180817 1.392168,-2.127562 4.590332,-5.181241 2.823581,-2.696018 5.280677,-5.139967 5.280677,-5.252424 0,-0.05488 -0.05997,-0.149544 -0.133262,-0.210373 -0.114537,-0.09506 -0.347085,0.101009 -1.655063,1.395424 -1.434428,1.419555 -1.559543,1.521486 -2.17917,1.775388 -0.740132,0.303279 -1.545333,0.529778 -1.883361,0.529778 -0.398138,0 -1.012063,-0.231392 -1.37356,-0.517704 l -0.351078,-0.278058 -0.302473,0.161443 c -0.379785,0.202709 -1.224196,0.884109 -2.320877,1.87284 -0.467082,0.421105 -1.021455,0.842274 -1.23194,0.93593 -0.340906,0.151688 -0.440577,0.159621 -0.912674,0.07263 -0.291486,-0.05371 -0.664152,-0.09765 -0.828147,-0.09765 -0.39391,0 -0.429431,-0.05172 -0.280434,-0.408319 0.150499,-0.360194 0.158228,-1.177122 0.01421,-1.501729 l -0.103593,-0.23349 -0.742041,0.331911 c -0.408123,0.182551 -0.819456,0.356482 -0.914075,0.386513 -0.252869,0.08026 -0.295465,-0.138573 -0.101159,-0.519693 l 0.166174,-0.325942 -0.269666,-0.278226 c -0.23287,-0.24026 -0.26359,-0.323529 -0.225134,-0.610239 0.09326,-0.695276 0.95298,-1.916553 2.539461,-3.607416 2.051653,-2.1866426 3.140468,-3.5148521 4.110191,-5.0138913 0.653613,-1.0103829 2.426852,-2.4995471 3.713428,-3.1185334 1.154361,-0.5553759 2.077737,-0.5424626 3.2593,0.045581 l 0.534521,0.2660223 1.057628,-0.4762693 C 27.578893,2.8871654 28.804631,2.5459862 29.97438,2.5393301 l 0.527151,-0.003 0.09618,0.3819817 c 0.224076,0.8898878 0.08567,1.2620447 -0.818012,2.1994671 -0.400733,0.4156967 -0.697511,0.7742613 -0.659506,0.7968101 0.038,0.022549 0.243203,0.069318 0.455997,0.1039316 0.657215,0.1069042 1.695329,0.5294378 2.318329,0.9436076 0.974511,0.6478538 1.655774,1.490901 2.282032,2.823962 1.607684,3.4221388 1.372765,8.8979228 -0.59829,13.9457148 -0.94125,2.410504 -2.78638,5.455142 -3.381699,5.580122 -1.23611,0.259506 -6.893321,0.387053 -9.519024,0.214616 z m 8.879504,-1.562424 c 1.639943,-2.535457 3.080268,-5.427523 3.800187,-7.630486 1.434951,-4.390979 1.043062,-8.09166 -1.187526,-11.214015 -0.651303,-0.9116884 -2.083287,-2.3703994 -2.326966,-2.3703994 -0.403972,0 -0.283177,0.2516083 0.4836,1.0073073 1.619939,1.5965338 2.626849,3.3048731 3.139066,5.3257891 0.167742,0.661816 0.192221,0.976686 0.189426,2.436589 -0.0027,1.412127 -0.03398,1.818943 -0.19832,2.579319 -0.554794,2.566983 -1.783285,5.419626 -3.675899,8.535708 -1.065298,1.753952 -1.100457,1.820989 -1.03902,1.981088 0.110787,0.288707 0.311161,0.128767 0.815452,-0.6509 z M 11.781102,15.52992 c 0.384766,-0.384765 0.437636,-0.847227 0.142922,-1.250162 -0.07847,-0.107281 -0.172752,-0.14429 -0.271279,-0.106481 -0.125254,0.04806 -0.141364,0.122291 -0.09445,0.435151 0.0492,0.328104 0.02807,0.407946 -0.162341,0.613405 -0.248796,0.268455 -0.259056,0.308508 -0.115733,0.45183 0.151578,0.151579 0.227284,0.129853 0.500879,-0.143743 z m 7.374613,-6.5809445 c 0.299487,-0.1568985 0.733845,-0.6198599 0.910361,-0.9703106 0.130743,-0.2595753 0.197202,-1.0574916 0.08808,-1.0574916 -0.02778,0 -0.289116,0.1334348 -0.580743,0.2965217 -0.492939,0.2756671 -0.557251,0.2904507 -0.914417,0.2102007 -0.442755,-0.09948 -0.542794,-0.020698 -0.695947,0.5480702 -0.217889,0.8091756 0.455993,1.358946 1.192668,0.9730096 z m 9.860281,-3.7536799 c 0.653056,-0.6176337 0.974091,-1.3817014 0.852613,-2.0292329 -0.0523,-0.2787972 -0.06096,-0.2837559 -0.409362,-0.234317 -1.188634,0.1686725 -2.527687,0.6723855 -3.365134,1.2658666 -0.510524,0.3617972 -0.692559,0.6763776 -0.446118,0.7709463 0.067,0.025712 0.349552,-0.1069076 0.627882,-0.2947107 0.27833,-0.187803 0.680158,-0.4315442 0.892952,-0.5416469 0.478948,-0.2478149 1.737761,-0.65012 2.034226,-0.65012 0.19678,0 0.213647,0.024787 0.160886,0.2364375 -0.115678,0.4640499 -0.330682,0.8036941 -0.743989,1.1752932 -0.248696,0.2235986 -0.419395,0.4504626 -0.419395,0.557387 0,0.3107866 0.323637,0.2092218 0.815439,-0.2559031 z"
       id="path52"
       transform="scale(0.26458333)" />
    <path
       style="fill:#cccccc;fill-rule:evenodd;stroke:#282828;stroke-width:0.0354199;stroke-linecap:round"
       d="m 18.494555,8.5297854 c -0.104079,-0.1040796 -0.123294,-0.3182048 -0.04651,-0.518301 0.03887,-0.1012855 0.109179,-0.1107913 0.342657,-0.046325 0.200013,0.055226 0.351378,0.050271 0.474326,-0.015529 0.284574,-0.1522994 0.305283,-0.018953 0.04005,0.2578903 -0.295206,0.3081283 -0.674037,0.4587517 -0.810524,0.3222647 z"
       id="path53"
       transform="scale(0.26458333)" />
    <path
       style="fill:#cccccc;fill-rule:evenodd;stroke:#282828;stroke-width:0.0354199;stroke-linecap:round"
       d="m 21.537316,31.416954 c -1.618495,-0.08563 -3.81411,-0.32558 -4.040934,-0.441626 -0.330098,-0.168882 -0.540652,-0.418434 -0.496263,-0.588178 0.02386,-0.09122 0.175871,-0.282195 0.337811,-0.424381 0.24597,-0.215964 0.346933,-0.251318 0.613343,-0.214772 0.748679,0.102704 2.439018,0.219408 4.424057,0.305446 2.174189,0.09424 4.871806,0.02247 7.016247,-0.186668 1.108107,-0.108066 1.292838,-0.06481 1.553445,0.363721 0.199433,0.327942 0.162145,0.449501 -0.208072,0.678308 -0.335905,0.2076 -1.810638,0.383551 -4.321465,0.515596 -1.80167,0.09475 -2.980467,0.09295 -4.878169,-0.0074 z"
       id="path54"
       transform="scale(0.26458333)" />
    <path
       style="fill:#cccccc;fill-rule:evenodd;stroke:#282828;stroke-width:0.0354199;stroke-linecap:round"
       d="m 21.876292,33.222951 c -1.464876,-0.130943 -1.846624,-0.221124 -2.120093,-0.500835 -0.137347,-0.140482 -0.41182,-0.312348 -0.60994,-0.381925 -0.198119,-0.06958 -0.569198,-0.197628 -0.824619,-0.284557 -0.414346,-0.141017 -0.71642,-0.384296 -0.607274,-0.489075 0.02197,-0.02109 0.484881,0.01333 1.028687,0.07649 2.690888,0.312535 6.960041,0.372693 9.457504,0.133268 2.24589,-0.215308 2.149433,-0.212061 2.149433,-0.07235 0,0.156102 -0.396381,0.356413 -0.988739,0.49966 -0.471289,0.113969 -0.873655,0.327039 -1.109297,0.587421 -0.366393,0.40486 -3.957028,0.648096 -6.375662,0.431899 z"
       id="path55"
       transform="scale(0.26458333)" />
    <path
       style="fill:#cccccc;fill-rule:evenodd;stroke:#282828;stroke-width:0.0354199;stroke-linecap:round"
       d="m 21.515433,40.444227 c -1.445924,-0.08736 -3.53738,-0.353916 -5.017553,-0.639478 -1.617016,-0.311963 -1.77674,-0.360736 -1.840634,-0.562048 -0.03039,-0.09573 -0.415491,-0.460855 -0.855793,-0.811383 -0.792704,-0.631078 -1.096513,-0.991254 -1.205899,-1.429632 -0.08273,-0.33157 0.226139,-0.870999 0.724119,-1.26463 0.39906,-0.315439 0.558885,-0.366916 3.115459,-1.003428 2.117947,-0.527307 2.771432,-0.723001 3.052712,-0.914173 0.196841,-0.133784 0.370945,-0.276744 0.386898,-0.317689 0.01595,-0.04095 0.377213,-0.01607 0.8028,0.05527 1.102505,0.184822 5.430024,0.18746 6.618291,0.004 l 0.857811,-0.132416 0.160014,0.203425 c 0.26763,0.340235 0.586329,0.450039 3.339034,1.150423 2.865155,0.728994 3.022889,0.79569 3.526976,1.491324 0.304375,0.420035 0.320343,0.857064 0.04619,1.264045 -0.108239,0.160678 -0.537025,0.564224 -0.952859,0.896769 -0.415835,0.332545 -0.818964,0.708294 -0.895844,0.834998 -0.157675,0.259863 -0.288906,0.296873 -2.210378,0.623383 -3.273168,0.556199 -6.509536,0.741033 -9.651341,0.551203 z"
       id="path56"
       transform="scale(0.26458333)" />
    <path
       style="fill:#333333;fill-rule:evenodd;stroke:#282828;stroke-width:0.0354199;stroke-linecap:round"
       d="m 21.150418,45.126807 c -1.337242,-0.116901 -3.667834,-0.406905 -4.758399,-0.592106 -2.183514,-0.370806 -5.518236,-1.169173 -6.05225,-1.448972 l -0.218885,-0.114685 0.334634,-0.339593 c 0.287202,-0.291457 2.644302,-1.762095 3.558783,-2.220389 0.165506,-0.08294 0.387725,-0.230173 0.493819,-0.327174 l 0.192898,-0.176367 0.881818,0.184076 c 3.228786,0.674 6.039948,0.929314 9.350583,0.849234 2.728248,-0.06599 5.377577,-0.360419 7.769659,-0.863463 l 0.590554,-0.124191 0.383276,0.292562 c 0.210803,0.160909 0.414678,0.292561 0.453058,0.292561 0.03838,0 0.741505,0.409073 1.5625,0.90905 1.50267,0.915109 2.250314,1.508859 2.091779,1.661207 -0.239604,0.230253 -3.710054,1.092665 -5.886664,1.462844 -2.762717,0.46986 -3.653919,0.540522 -7.136116,0.565812 -1.773282,0.01288 -3.398254,0.0082 -3.611047,-0.01041 z"
       id="path57"
       transform="scale(0.26458333)" />
    <path
       style="fill:#333333;fill-rule:evenodd;stroke:#282828;stroke-width:0.0354199;stroke-linecap:round"
       d="m 21.193406,40.355845 c -1.493735,-0.1141 -3.584106,-0.400508 -4.986684,-0.683239 -1.275348,-0.257084 -1.293513,-0.26398 -1.636969,-0.621393 -0.191021,-0.198784 -0.66389,-0.643501 -1.05082,-0.988261 -1.035658,-0.922785 -1.10065,-1.307436 -0.350304,-2.073267 0.416501,-0.425096 0.74622,-0.544765 3.339014,-1.211864 2.296275,-0.590808 2.984183,-0.818646 3.279986,-1.086344 0.131407,-0.118922 0.29027,-0.122091 1.409656,-0.02812 1.365888,0.114661 5.670072,0.06329 6.444419,-0.07691 0.40277,-0.07293 0.447388,-0.06249 0.707331,0.165509 0.293616,0.257528 1.058501,0.528794 2.53676,0.899661 1.872477,0.46977 3.13395,0.840974 3.516464,1.034764 0.532983,0.270021 0.934027,0.818391 0.935613,1.279313 0.0011,0.332921 -0.04392,0.391868 -1.010233,1.321421 -0.556288,0.535126 -1.088812,1.026465 -1.183387,1.091864 -0.36732,0.254005 -4.103184,0.813587 -6.577264,0.985185 -1.44239,0.100041 -4.007024,0.09607 -5.373582,-0.0083 z"
       id="path58"
       transform="scale(0.26458333)" />
    <path
       style="fill:#333333;fill-rule:evenodd;stroke:#282828;stroke-width:0.0354199;stroke-linecap:round"
       d="m 21.580304,33.139763 c -1.045029,-0.112337 -1.417659,-0.220356 -1.896558,-0.54978 -0.232499,-0.159932 -0.67402,-0.37441 -0.981156,-0.476618 -0.307137,-0.102209 -0.646146,-0.25934 -0.753353,-0.349181 l -0.194923,-0.163347 0.386898,0.04167 c 0.212794,0.02292 0.754451,0.08366 1.203682,0.134975 0.449232,0.05132 2.325686,0.112821 4.1699,0.136671 2.665549,0.03447 3.658082,0.01518 4.840378,-0.09407 0.817995,-0.07559 1.59179,-0.136207 1.719546,-0.134703 0.225921,0.0027 0.227573,0.0063 0.06033,0.132873 -0.09457,0.07158 -0.432875,0.209457 -0.751777,0.306402 -0.318902,0.09694 -0.7058,0.268984 -0.859773,0.382311 -0.442321,0.325557 -0.751914,0.443634 -1.441997,0.549968 -0.832955,0.128349 -4.556254,0.184415 -5.501195,0.08284 z"
       id="path59"
       transform="scale(0.26458333)" />
    <path
       style="fill:#333333;fill-rule:evenodd;stroke:#282828;stroke-width:0.0354199;stroke-linecap:round"
       d="m 21.11262,31.330557 c -1.6668,-0.112468 -3.410044,-0.335846 -3.66999,-0.470269 -0.133139,-0.06885 -0.282345,-0.200433 -0.331568,-0.292408 -0.07442,-0.13906 -0.03657,-0.22015 0.224704,-0.481429 0.293868,-0.293868 0.339833,-0.310942 0.710284,-0.263841 2.226915,0.283141 8.228068,0.366179 10.891399,0.150704 1.619374,-0.131014 1.741767,-0.110359 1.970825,0.332587 0.121671,0.235288 0.118194,0.262898 -0.05322,0.4226 -0.213013,0.198451 -0.716056,0.31911 -1.821358,0.43687 -2.349985,0.250369 -5.641401,0.319008 -7.921071,0.165186 z"
       id="path60"
       transform="scale(0.26458333)" />
    <path
       style="fill:#333333;fill-rule:evenodd;stroke:#282828;stroke-width:0.0354199;stroke-linecap:round"
       d="m 19.817769,29.398934 c -2.059214,-0.170177 -2.08843,-0.176508 -2.28493,-0.49507 -0.418712,-0.67881 -1.214507,-2.443232 -1.337384,-2.965222 -0.09155,-0.388901 -0.121781,-0.804106 -0.0933,-1.281316 0.03632,-0.608526 0.08596,-0.785717 0.359648,-1.283625 0.66085,-1.202268 1.372264,-1.95971 6.60718,-7.034644 3.018145,-2.925908 3.231621,-3.159475 3.06795,-3.356686 -0.05878,-0.07082 -0.160509,-0.128764 -0.226077,-0.128764 -0.06557,0 -0.747573,0.606305 -1.51557,1.347344 -0.767995,0.741038 -1.570306,1.458032 -1.78291,1.593319 -0.493252,0.313869 -1.869907,0.756932 -2.344254,0.754474 -0.400334,-0.0021 -0.97921,-0.233156 -1.413088,-0.564091 l -0.279806,-0.213418 -0.32448,0.168209 c -0.323073,0.16748 -0.897032,0.621865 -2.473466,1.958166 -1.162705,0.985595 -1.240056,1.015682 -2.282742,0.887955 l -0.844782,-0.103486 0.09075,-0.227445 c 0.121143,-0.303622 0.12079,-1.371651 -5.51e-4,-1.667443 l -0.09694,-0.236314 -0.496544,0.222114 c -0.895686,0.400657 -1.305782,0.547225 -1.346553,0.481257 -0.02208,-0.03572 0.02849,-0.218319 0.112373,-0.405775 l 0.152512,-0.34083 -0.244796,-0.282418 c -0.134638,-0.155329 -0.244796,-0.380231 -0.244796,-0.499782 0,-0.59333 0.915129,-1.898651 2.678941,-3.821183 2.041621,-2.2253411 2.717234,-3.0404968 3.710951,-4.4774163 0.631544,-0.913216 1.419524,-1.7359355 2.336805,-2.4398252 1.930087,-1.4810835 3.142943,-1.7507998 4.663747,-1.0371299 l 0.688603,0.3231413 1.063838,-0.4697855 c 1.905198,-0.8413266 3.080303,-1.1767132 4.132452,-1.1794436 0.316813,-8.222e-4 0.600767,0.039758 0.632018,0.090323 0.03121,0.050499 0.07687,0.3136924 0.101454,0.584875 0.05704,0.6290669 -0.09659,0.9377618 -0.91632,1.8412295 -0.334052,0.3681745 -0.607368,0.7059731 -0.607368,0.7506634 0,0.04469 0.106397,0.1042836 0.236438,0.1324293 2.725955,0.5899996 4.280109,2.0391344 5.21461,4.862243 0.492206,1.486945 0.60723,2.346917 0.602472,4.504374 -0.0029,1.315184 -0.04774,2.174556 -0.147171,2.820502 -0.557807,3.62381 -1.82623,6.970153 -3.721834,9.818914 -0.629621,0.94621 -0.934198,1.212288 -1.467854,1.282319 -1.761841,0.231201 -7.598647,0.282342 -9.959222,0.08726 z m 9.389745,-0.832974 c 0.433876,-0.473773 1.706983,-2.650816 2.62719,-4.492562 1.264386,-2.530597 2.056767,-4.89229 2.301636,-6.860031 0.164885,-1.32499 0.06842,-3.427314 -0.205225,-4.472663 -0.424836,-1.62291 -1.158948,-3.0184011 -2.323166,-4.4161641 -0.750269,-0.900775 -1.6317,-1.6845587 -1.848083,-1.6433474 -0.351468,0.066939 -0.183883,0.3812543 0.725224,1.3601931 1.479696,1.593358 2.282668,2.9417194 2.841238,4.7710454 0.225159,0.737401 0.235853,0.854792 0.238724,2.620496 0.0035,2.135186 -0.06583,2.573892 -0.719834,4.556797 -0.731973,2.219309 -1.635413,4.123626 -3.143358,6.625728 -0.928218,1.540173 -1.082153,1.843983 -1.018439,2.010018 0.07393,0.192652 0.31861,0.164869 0.524093,-0.05951 z M 11.822119,15.567544 c 0.328522,-0.348335 0.406975,-0.660552 0.270769,-1.077578 -0.07131,-0.21833 -0.156867,-0.311868 -0.304344,-0.332727 -0.258923,-0.03662 -0.350662,0.109237 -0.292834,0.465588 0.03514,0.216524 -0.0079,0.349163 -0.191282,0.589596 -0.228718,0.299864 -0.231479,0.315903 -0.0827,0.480307 0.209232,0.231198 0.277747,0.216912 0.600387,-0.125186 z m 7.579635,-6.7166318 c 0.491724,-0.3750566 0.775841,-0.8399111 0.843287,-1.3797351 0.03323,-0.2659794 0.02693,-0.5170937 -0.01401,-0.558032 -0.04192,-0.041926 -0.298617,0.044389 -0.587756,0.197638 -0.42745,0.2265563 -0.596592,0.2690099 -1.011076,0.2537726 -0.493583,-0.018145 -0.498806,-0.01578 -0.623336,0.2822619 -0.475509,1.1380539 0.440878,1.9302309 1.392892,1.2040946 z M 28.617678,5.5951261 C 28.96515,5.4154418 29.566585,4.7293444 29.760084,4.2919085 29.879178,4.022677 29.921087,3.765908 29.902883,3.4170318 l -0.02577,-0.4938033 -0.515863,0.014695 c -0.885073,0.025212 -2.479746,0.6178128 -3.363968,1.2500934 -0.518254,0.3705888 -0.690213,0.8425155 -0.306488,0.8411317 0.07996,-2.884e-4 0.493594,-0.2140224 0.919182,-0.4749645 1.015765,-0.6227999 2.708285,-1.1831993 2.708285,-0.896723 0,0.2008074 -0.37556,0.8034999 -0.776734,1.2464904 -0.459816,0.5077445 -0.480662,0.5534808 -0.323776,0.7103671 0.127835,0.1278341 0.114358,0.1284809 0.399926,-0.019192 z"
       id="path61"
       transform="scale(0.26458333)" />
    <path
       style="fill:#333333;fill-rule:evenodd;stroke:#282828;stroke-width:0.0354199;stroke-linecap:round"
       d="m 18.515579,8.4241245 c -0.05693,-0.1483598 -0.008,-0.3957783 0.07701,-0.3897877 0.03546,0.0025 0.228914,0.00593 0.429886,0.00763 l 0.365404,0.00309 -0.251809,0.2058434 C 18.820872,8.5085698 18.574388,8.577379 18.515579,8.4241245 Z"
       id="path62"
       transform="scale(0.26458333)" />
  </g>
  <metadata
     id="metadata62">
    <rdf:RDF>
      <cc:License
         rdf:about="http://creativecommons.org/licenses/by-sa/4.0/">
        <cc:permits
           rdf:resource="http://creativecommons.org/ns#Reproduction" />
        <cc:permits
           rdf:resource="http://creativecommons.org/ns#Distribution" />
        <cc:requires
           rdf:resource="http://creativecommons.org/ns#Notice" />
        <cc:requires
           rdf:resource="http://creativecommons.org/ns#Attribution" />
        <cc:permits
           rdf:resource="http://creativecommons.org/ns#DerivativeWorks" />
        <cc:requires
           rdf:resource="http://creativecommons.org/ns#ShareAlike" />
      </cc:License>
      <cc:Work
         rdf:about="">
        <cc:license
           rdf:resource="http://creativecommons.org/licenses/by-sa/4.0/" />
        <dc:creator>
          <cc:Agent>
            <dc:title>Curtis Walker</dc:title>
          </cc:Agent>
        </dc:creator>
      </cc:Work>
    </rdf:RDF>
  </metadata>
</svg>
