<?xml version="1.0" encoding="UTF-8" standalone="no"?>
<!-- Created with Inkscape (http://www.inkscape.org/) -->

<svg
   width="48"
   height="48"
   viewBox="0 0 12.7 12.7"
   version="1.1"
   id="svg1"
   inkscape:version="1.3 (0e150ed6c4, 2023-07-21)"
   sodipodi:docname="bPawn.svg"
   xmlns:inkscape="http://www.inkscape.org/namespaces/inkscape"
   xmlns:sodipodi="http://sodipodi.sourceforge.net/DTD/sodipodi-0.dtd"
   xmlns="http://www.w3.org/2000/svg"
   xmlns:svg="http://www.w3.org/2000/svg"
   xmlns:rdf="http://www.w3.org/1999/02/22-rdf-syntax-ns#"
   xmlns:cc="http://creativecommons.org/ns#"
   xmlns:dc="http://purl.org/dc/elements/1.1/">
  <sodipodi:namedview
     id="namedview1"
     pagecolor="#505050"
     bordercolor="#eeeeee"
     borderopacity="1"
     inkscape:showpageshadow="0"
     inkscape:pageopacity="0"
     inkscape:pagecheckerboard="0"
     inkscape:deskcolor="#d1d1d1"
     inkscape:document-units="mm"
     inkscape:zoom="11.630976"
     inkscape:cx="23.64376"
     inkscape:cy="41.656005"
     inkscape:window-width="1366"
     inkscape:window-height="731"
     inkscape:window-x="0"
     inkscape:window-y="0"
     inkscape:window-maximized="1"
     inkscape:current-layer="layer1" />
  <defs
     id="defs1">
    <inkscape:path-effect
       effect="mirror_symmetry"
       start_point="6.5883282,1.7801991"
       end_point="6.5883282,3.9917237"
       center_point="6.5883282,2.8859614"
       id="path-effect8"
       is_visible="true"
       lpeversion="1.2"
       lpesatellites=""
       mode="free"
       discard_orig_path="false"
       fuse_paths="false"
       oposite_fuse="false"
       split_items="false"
       split_open="false"
       link_styles="false" />
    <inkscape:path-effect
       effect="mirror_symmetry"
       start_point="6.8275181,4.7868426"
       end_point="6.8062803,12.273485"
       center_point="6.8168992,8.5301638"
       id="path-effect1"
       is_visible="true"
       lpeversion="1.2"
       lpesatellites=""
       mode="free"
       discard_orig_path="false"
       fuse_paths="false"
       oposite_fuse="false"
       split_items="false"
       split_open="false"
       link_styles="false" />
  </defs>
  <g
     inkscape:label="Layer 1"
     inkscape:groupmode="layer"
     id="layer1">
    <path
       id="path10"
       style="fill:none;fill-opacity:1;fill-rule:evenodd;stroke:#282828;stroke-width:0.41196851;stroke-linecap:round;stroke-dasharray:none;stroke-opacity:1"
       transform="scale(0.26458333)"
       d="m 19.645814,44.923254 c -3.019334,-0.367331 -6.07765,-0.937602 -8.081867,-1.506991 -1.36441,-0.387623 -1.404816,-0.418223 -1.021414,-0.773548 0.245585,-0.2276 2.012955,-1.347028 3.041881,-1.926685 0.354656,-0.1998 0.756705,-0.448991 0.89344,-0.553758 l 0.248611,-0.190486 1.170015,0.235329 c 3.131653,0.629881 5.111088,0.795923 8.779006,0.736415 3.292516,-0.05342 5.370133,-0.261373 7.963937,-0.797138 0.634806,-0.131123 0.636012,-0.131019 0.914145,0.0787 0.153176,0.115501 0.665399,0.4307 1.138274,0.700443 1.090807,0.62223 2.699863,1.685612 2.91981,1.929623 0.141865,0.157386 0.148993,0.199054 0.04505,0.263296 -0.369131,0.228136 -4.179592,1.13288 -6.146016,1.459292 -2.335056,0.387601 -3.07317,0.439057 -6.835196,0.476497 -3.238241,0.03223 -3.81057,0.01732 -5.029672,-0.130994 z m 1.504603,0.203551 c -1.337241,-0.1169 -3.667834,-0.406904 -4.758399,-0.592105 -2.183514,-0.370806 -5.518235,-1.169174 -6.05225,-1.448972 l -0.218884,-0.114686 0.334634,-0.339592 c 0.287202,-0.291458 2.644302,-1.762096 3.558783,-2.22039 0.165506,-0.08294 0.387724,-0.230172 0.493818,-0.327174 l 0.192898,-0.176367 0.881818,0.184077 c 3.228786,0.673999 6.039948,0.929313 9.350583,0.849234 2.728248,-0.06599 5.377577,-0.36042 7.769659,-0.863463 l 0.590553,-0.124191 0.383277,0.292562 c 0.210803,0.160908 0.414678,0.292561 0.453058,0.292561 0.03838,0 0.741505,0.409072 1.5625,0.90905 1.502669,0.915109 2.250313,1.508858 2.091779,1.661206 -0.239604,0.230254 -3.710054,1.092665 -5.886664,1.462845 -2.762717,0.469859 -3.653919,0.540521 -7.136116,0.565811 -1.773282,0.01288 -3.398253,0.0082 -3.611047,-0.01041 z M 23.844762,15.600602 C 21.22288,15.538738 19.146548,13.644977 19.189091,11.354302 19.231635,9.0636277 21.377201,7.2296909 24,7.2421448 m 0.155237,8.3584572 c 2.621884,-0.06186 4.698216,-1.955625 4.655672,-4.2463 C 28.768365,9.0636277 26.6228,7.2296909 24,7.2421448 M 37.468883,43.506044 c -8.843849,2.663531 -17.828249,2.55306 -26.940279,-0.07642 v 0 m 3.987451,-3.809567 c 6.633118,1.605089 12.908339,1.385971 18.96789,0.06758 M 19.699377,33.162627 c 3.023892,0.542261 5.871283,0.476972 8.601247,0.0075 M 17.527576,31.27016 c 4.454748,0.602058 8.76096,0.57744 12.944849,0.03674 m -12.939779,-1.82399 c 4.056746,0.43567 8.281078,0.592865 12.934709,0.0367 M 27.174528,18.348792 C 24.905135,17.895481 22.820467,17.94494 20.825473,18.238466 m 3.246402,-2.637865 5.588403,-0.512246 c 2.37064,0.14013 1.361389,2.313954 0,3.224517 h -2.503525 c 1.865464,2.95578 2.381727,7.315963 3.348957,11.206728 1.310511,0.904228 0.850233,1.391648 0,1.787282 0.45737,0.750498 -0.482584,0.997078 -1.479744,1.223028 -0.999449,0.452243 -0.868277,0.904485 0.03371,1.356728 l 5.323136,1.355068 c 1.41584,0.95695 2.046029,2.012439 0,3.403578 -0.672129,0.543673 -1.598768,1.076065 -0.03895,1.718649 l 3.061369,1.852827 c 0.320126,0.444223 1.276018,0.919207 0.06365,1.289283 M 24.083702,15.600635 18.498295,15.056691 c -2.371397,0.126678 -1.374495,2.306193 -0.01829,3.224465 l 2.503485,0.01421 c -1.882205,2.945142 -2.423197,7.302326 -3.412486,11.18754 -1.31562,0.896779 -0.858115,1.386803 -0.01014,1.787253 -0.461621,0.747892 0.47692,0.999801 1.472782,1.231404 0.996867,0.457906 0.863131,0.909397 -0.04141,1.356515 l -5.330739,1.324844 c -1.421246,0.948903 -2.057413,2.000802 -0.01931,3.403525 0.669034,0.547479 1.592637,1.085117 0.02922,1.718842 l -3.071832,1.835429 c -0.32264,0.442398 -1.2812126,0.911951 -0.07096,1.288902" />
    <path
       style="fill:#ffffff;fill-opacity:1;fill-rule:evenodd;stroke:#282828;stroke-width:0.0354199;stroke-linecap:round;stroke-dasharray:none;stroke-opacity:1"
       d="m 23.057661,15.260316 c -0.805931,-0.113015 -1.886751,-0.66667 -2.501466,-1.281385 -2.527902,-2.527902 -0.457997,-6.4559169 3.402007,-6.4559169 1.352173,0 2.401297,0.3720635 3.282082,1.1639652 0.585984,0.5268499 0.904776,0.9986627 1.135417,1.6804157 0.638201,1.886466 -0.537179,3.949025 -2.673857,4.692089 -0.669021,0.232662 -1.803005,0.318791 -2.644183,0.200832 z"
       id="path11"
       transform="scale(0.26458333)" />
    <path
       style="fill:#ffffff;fill-opacity:1;fill-rule:evenodd;stroke:#282828;stroke-width:0.0354199;stroke-linecap:round;stroke-dasharray:none;stroke-opacity:1"
       d="m 26.309055,17.965208 c -1.04591,-0.180635 -2.860122,-0.238622 -3.954956,-0.12641 -0.543806,0.05573 -1.632596,0.12193 -2.419534,0.1471 l -1.430794,0.04576 -0.359423,-0.370361 C 17.34858,16.841312 17.125446,16.0657 17.560233,15.630913 c 0.333593,-0.333593 0.842109,-0.341883 3.547393,-0.05783 1.276654,0.134049 2.592018,0.244195 2.923031,0.24477 0.331012,5.75e-4 1.751886,-0.109634 3.157496,-0.244908 1.405611,-0.135273 2.691894,-0.220394 2.858407,-0.189156 0.166512,0.03124 0.408745,0.14797 0.538294,0.259403 0.452076,0.388859 0.222553,1.21046 -0.56699,2.029596 l -0.410059,0.42543 -1.32696,-0.01083 c -0.729828,-0.006 -1.617133,-0.06094 -1.97179,-0.12219 z"
       id="path12"
       transform="scale(0.26458333)" />
    <path
       style="fill:#ffffff;fill-opacity:1;fill-rule:evenodd;stroke:#282828;stroke-width:0.0354199;stroke-linecap:round;stroke-dasharray:none;stroke-opacity:1"
       d="m 20.935474,29.525936 c -1.087122,-0.06642 -2.985603,-0.24139 -3.022799,-0.278587 -0.02463,-0.02463 1.008167,-4.587757 1.297482,-5.732556 0.472366,-1.869122 1.375729,-4.217998 1.894303,-4.92547 0.08392,-0.114486 0.318159,-0.177323 0.917599,-0.246152 0.944276,-0.108424 3.529654,-0.03667 4.41085,0.122426 l 0.596728,0.107733 0.330184,0.613864 c 0.398652,0.74116 0.91026,2.078029 1.264798,3.30501 0.459913,1.591659 1.56243,6.724359 1.458241,6.788751 -0.106114,0.06558 -0.756898,0.129288 -2.570123,0.251589 -1.435541,0.09683 -4.942022,0.0933 -6.577263,-0.0066 z"
       id="path13"
       transform="scale(0.26458333)" />
    <path
       style="fill:#ffffff;fill-opacity:1;fill-rule:evenodd;stroke:#282828;stroke-width:0.0354199;stroke-linecap:round;stroke-dasharray:none;stroke-opacity:1"
       d="m 22.225133,31.416019 c -0.898463,-0.03112 -2.289564,-0.123809 -3.091336,-0.205968 -1.232935,-0.126341 -1.508088,-0.181145 -1.784029,-0.355339 -0.41,-0.258822 -0.419933,-0.482053 -0.0375,-0.842736 l 0.288763,-0.272339 1.108368,0.105884 c 0.609602,0.05824 2.20036,0.154366 3.535018,0.213624 2.499061,0.110955 5.051742,0.04364 7.273157,-0.191791 l 0.930123,-0.09858 0.295054,0.285977 c 0.360214,0.349134 0.369961,0.517839 0.04568,0.790704 -0.20521,0.172673 -0.40696,0.227085 -1.139199,0.30724 -2.438103,0.266889 -4.850787,0.352463 -7.4241,0.263321 z"
       id="path14"
       transform="scale(0.26458333)" />
    <path
       style="fill:#ffffff;fill-opacity:1;fill-rule:evenodd;stroke:#282828;stroke-width:0.0354199;stroke-linecap:round;stroke-dasharray:none;stroke-opacity:1"
       d="m 22.111037,33.229979 c -1.689141,-0.141806 -2.053141,-0.226766 -2.382457,-0.556083 -0.211095,-0.211095 -0.473868,-0.348472 -0.919941,-0.480944 -0.757254,-0.224884 -1.097314,-0.392053 -1.097314,-0.539426 0,-0.09006 0.17585,-0.09062 0.944335,-0.003 3.421131,0.390118 7.547867,0.383256 11.15697,-0.01855 0.927276,-0.103235 0.639826,0.235757 -0.478517,0.564319 -0.42334,0.124375 -0.734818,0.28041 -0.952707,0.47726 -0.302628,0.273406 -0.389866,0.30114 -1.338353,0.425476 -1.253928,0.164376 -3.745713,0.230528 -4.932016,0.130936 z"
       id="path15"
       transform="scale(0.26458333)" />
    <path
       style="fill:#ffffff;fill-opacity:1;fill-rule:evenodd;stroke:#282828;stroke-width:0.0354199;stroke-linecap:round;stroke-dasharray:none;stroke-opacity:1"
       d="m 21.929039,40.447465 c -2.888557,-0.158076 -7.22692,-0.849496 -7.22692,-1.151778 0,-0.116314 -0.414845,-0.512196 -1.220547,-1.164752 -0.262733,-0.212794 -0.563738,-0.511008 -0.6689,-0.662698 -0.387914,-0.559543 -0.173527,-1.19352 0.599788,-1.773665 0.344554,-0.258487 0.682101,-0.363605 3.084236,-0.96049 2.440148,-0.60633 2.734577,-0.698662 3.087887,-0.968349 l 0.390548,-0.298113 0.781092,0.108553 c 1.735963,0.241255 4.659527,0.238408 6.514175,-0.0063 l 0.832376,-0.109847 0.316374,0.27778 c 0.174006,0.15278 0.399128,0.309094 0.500272,0.347367 0.101144,0.03827 1.278063,0.346604 2.615376,0.685183 2.810948,0.71167 2.757778,0.694166 3.208315,1.056227 0.675389,0.542758 0.845213,1.113269 0.498418,1.674396 -0.09962,0.161182 -0.546367,0.583835 -0.99278,0.939228 -0.446412,0.355393 -0.853156,0.737245 -0.903875,0.848561 -0.08166,0.179232 -0.226317,0.228088 -1.264125,0.426957 -3.237708,0.620424 -7.09963,0.89881 -10.15171,0.731784 z"
       id="path16"
       transform="scale(0.26458333)" />
    <path
       style="fill:#ffffff;fill-opacity:1;fill-rule:evenodd;stroke:#282828;stroke-width:0.0354199;stroke-linecap:round;stroke-dasharray:none;stroke-opacity:1"
       d="m 20.677542,44.783129 c -1.621866,-0.137753 -5.259869,-0.71163 -7.050139,-1.112126 -1.389069,-0.310744 -2.88024,-0.734193 -2.88024,-0.817904 0,-0.101479 0.729053,-0.581419 2.532133,-1.666919 l 1.543394,-0.929162 0.56305,0.106592 c 4.102125,0.776577 6.630838,0.963291 10.622395,0.784329 2.797424,-0.125422 4.974023,-0.376994 6.819566,-0.788205 0.312666,-0.06967 0.407662,-0.05699 0.601841,0.08031 0.126815,0.08967 0.636815,0.404616 1.133334,0.699875 1.118853,0.665336 2.751274,1.74246 2.751274,1.815379 0,0.07023 -1.645573,0.499645 -3.407316,0.889137 -1.72942,0.382347 -3.570173,0.693872 -4.803516,0.812937 -0.961229,0.0928 -7.640178,0.192476 -8.425776,0.125752 z"
       id="path17"
       transform="scale(0.26458333)" />
    <path
       style="fill:#ffccaa;fill-opacity:1;fill-rule:evenodd;stroke:#282828;stroke-width:0.0354199;stroke-linecap:round;stroke-dasharray:none;stroke-opacity:1"
       d="m 21.838235,33.143745 c -1.355134,-0.131203 -1.531798,-0.176471 -2.042315,-0.523312 -0.271709,-0.184597 -0.784189,-0.433032 -1.138845,-0.552079 -1.280597,-0.429856 -1.08989,-0.453336 1.676558,-0.206417 1.410574,0.125901 6.089943,0.1273 7.566002,0.0023 2.548951,-0.215922 2.424406,-0.211805 2.23541,-0.0739 -0.09458,0.06901 -0.384748,0.194328 -0.64483,0.278484 -0.587058,0.189958 -0.921592,0.35582 -1.220268,0.605006 -0.282887,0.236014 -0.909189,0.352416 -2.519744,0.468311 -1.336076,0.09614 -2.929006,0.09681 -3.911968,0.0016 z"
       id="path18"
       transform="scale(0.26458333)" />
    <path
       style="fill:#ffccaa;fill-opacity:1;fill-rule:evenodd;stroke:#282828;stroke-width:0.0354199;stroke-linecap:round;stroke-dasharray:none;stroke-opacity:1"
       d="m 20.462598,29.440379 c -1.309683,-0.103995 -2.408733,-0.223794 -2.452238,-0.267299 -0.0763,-0.0763 1.37225,-6.114071 1.722216,-7.178438 0.457925,-1.392714 1.093999,-2.912406 1.353241,-3.233131 0.158598,-0.196213 0.302288,-0.256478 0.795407,-0.333602 0.724436,-0.113303 3.78508,-0.04208 4.588847,0.106789 l 0.547913,0.10148 0.416416,0.87173 c 0.814936,1.705994 1.469542,4.017541 2.295725,8.106665 0.173737,0.859897 0.295444,1.583891 0.27046,1.608875 -0.215227,0.215227 -7.478901,0.380431 -9.537987,0.216931 z"
       id="path19"
       transform="scale(0.26458333)" />
    <path
       style="fill:#ffccaa;fill-opacity:1;fill-rule:evenodd;stroke:#282828;stroke-width:0.0354199;stroke-linecap:round;stroke-dasharray:none;stroke-opacity:1"
       d="m 22.526054,31.366035 c -2.431047,-0.07873 -4.695274,-0.326238 -5.070162,-0.554221 -0.396886,-0.241361 -0.413356,-0.392164 -0.07919,-0.725137 l 0.291637,-0.290599 0.773796,0.07929 c 2.801491,0.287056 8.476988,0.32902 10.908612,0.08066 l 1.107198,-0.113088 0.251916,0.281942 c 0.513504,0.574711 0.128076,0.833299 -1.498104,1.005095 -1.276646,0.134869 -4.539186,0.301996 -5.396041,0.276416 -0.307369,-0.0092 -0.887715,-0.02733 -1.289659,-0.04035 z"
       id="path20"
       transform="scale(0.26458333)" />
    <path
       style="fill:#ffccaa;fill-opacity:1;fill-rule:evenodd;stroke:#282828;stroke-width:0.0354199;stroke-linecap:round;stroke-dasharray:none;stroke-opacity:1"
       d="m 21.494326,40.361919 c -1.989653,-0.145817 -5.720974,-0.687249 -6.356555,-0.922366 -0.172573,-0.06384 -0.852514,-0.658959 -1.996813,-1.747717 -0.351091,-0.33405 -0.416317,-0.445849 -0.416317,-0.713582 0,-0.418252 0.176074,-0.74133 0.603321,-1.107039 0.383192,-0.327998 1.037596,-0.543092 3.566578,-1.172291 1.895279,-0.471536 2.405796,-0.640505 2.766539,-0.915658 l 0.310919,-0.237149 0.868636,0.09899 c 2.033501,0.231738 5.152831,0.204038 6.827079,-0.06063 0.380394,-0.06013 0.464806,-0.04705 0.590178,0.09149 0.320183,0.353798 0.778736,0.517265 3.201093,1.141137 1.386093,0.356985 2.644526,0.708075 2.79652,0.780201 0.151994,0.07213 0.442415,0.300343 0.64538,0.50715 0.298819,0.304473 0.377568,0.451768 0.413909,0.774188 0.04973,0.441253 0.110936,0.366719 -1.655131,2.015717 l -0.587421,0.548481 -0.995722,0.196849 c -3.142133,0.621181 -7.70852,0.932834 -10.582193,0.722229 z"
       id="path21"
       transform="scale(0.26458333)" />
    <path
       style="fill:#ffccaa;fill-opacity:1;fill-rule:evenodd;stroke:#282828;stroke-width:0.0354199;stroke-linecap:round;stroke-dasharray:none;stroke-opacity:1"
       d="M 19.344894,44.569931 C 16.348743,44.17345 12.997839,43.521385 11.365348,43.017159 l -0.543609,-0.167903 0.328116,-0.23734 c 0.180463,-0.130537 1.078031,-0.696493 1.994594,-1.25768 l 1.666478,-1.020339 0.826864,0.146878 c 3.299761,0.586148 5.00763,0.744904 8.005968,0.744198 3.351766,-7.88e-4 5.991602,-0.204522 8.396089,-0.647983 l 1.131009,-0.208592 0.932447,0.568256 c 1.631643,0.994364 3.038938,1.939378 2.994691,2.01097 -0.102001,0.165042 -4.496926,1.142187 -6.578651,1.462663 -2.272152,0.349792 -9.010091,0.446054 -11.17445,0.159644 z"
       id="path22"
       transform="scale(0.26458333)" />
    <path
       style="fill:#ffccaa;fill-opacity:1;fill-rule:evenodd;stroke:#282828;stroke-width:0.0354199;stroke-linecap:round;stroke-dasharray:none;stroke-opacity:1"
       d="m 26.051123,17.867643 c -0.902393,-0.122532 -2.399764,-0.115842 -6.087706,0.0272 l -1.401943,0.05438 -0.261705,-0.247913 c -0.339543,-0.321649 -0.708189,-0.862492 -0.828267,-1.215158 -0.209921,-0.616528 0.214906,-1.050769 1.032351,-1.055232 0.202491,-0.0011 1.521581,0.103674 2.931312,0.232843 l 2.563146,0.234853 2.982611,-0.246972 c 2.86588,-0.237305 2.99491,-0.241135 3.296872,-0.09784 0.703343,0.333757 0.614461,0.955612 -0.293012,2.050057 l -0.338624,0.408392 -1.346137,-0.01101 c -0.740374,-0.0061 -1.752379,-0.06617 -2.248898,-0.133593 z"
       id="path23"
       transform="scale(0.26458333)" />
    <path
       style="fill:#ffeeaa;fill-opacity:1;fill-rule:evenodd;stroke:#282828;stroke-width:0.0354199;stroke-linecap:round;stroke-dasharray:none;stroke-opacity:1"
       d="m 22.807385,15.137434 c -1.019813,-0.247113 -2.123907,-0.99006 -2.686486,-1.80774 -1.441078,-2.094535 -0.13256,-4.8900273 2.616667,-5.5901968 0.652631,-0.166211 1.822337,-0.1653421 2.53176,0.00188 1.217893,0.2870779 2.365459,1.1853902 2.866934,2.2442308 0.257078,0.542807 0.279239,0.657833 0.279239,1.449372 0,0.792298 -0.02151,0.903632 -0.274014,1.418626 -0.871947,1.77834 -3.238535,2.791608 -5.3341,2.283828 z"
       id="path24"
       transform="scale(0.26458333)" />
    <path
       style="fill:#ffeeaa;fill-opacity:1;fill-rule:evenodd;stroke:#282828;stroke-width:0.0354199;stroke-linecap:round;stroke-dasharray:none;stroke-opacity:1"
       d="m 20.978462,44.622177 c -1.593995,-0.07975 -3.602727,-0.362887 -6.147377,-0.866487 -1.733169,-0.343003 -3.644097,-0.813492 -3.759301,-0.925576 -0.05079,-0.04941 2.225255,-1.521915 3.464265,-2.241229 l 0.306805,-0.178117 1.498718,0.251825 c 2.585646,0.434457 3.668309,0.532271 6.442414,0.582048 3.734074,0.067 6.746408,-0.138328 9.513613,-0.648475 l 0.872894,-0.160922 1.319527,0.827431 c 1.51088,0.947422 2.362131,1.518483 2.43197,1.631484 0.0815,0.131867 -4.118612,1.087649 -6.264615,1.425583 -1.742993,0.274472 -6.97209,0.437864 -9.678913,0.302435 z"
       id="path25"
       transform="scale(0.26458333)" />
    <path
       style="fill:#fff6d5;fill-opacity:1;fill-rule:evenodd;stroke:#282828;stroke-width:0.0354199;stroke-linecap:round;stroke-dasharray:none;stroke-opacity:1"
       d="m 19.946735,40.148877 c -1.569603,-0.18534 -3.99745,-0.557829 -4.476303,-0.686771 -0.363186,-0.09779 -0.939505,-0.547066 -1.993687,-1.554181 -0.568313,-0.54294 -0.666493,-0.678565 -0.666324,-0.920459 2.42e-4,-0.347382 0.16415,-0.675261 0.486891,-0.973965 0.43125,-0.399131 0.710479,-0.497696 3.382285,-1.193913 2.221955,-0.578995 2.585235,-0.698038 3.033827,-0.994152 l 0.325542,-0.214888 0.921129,0.108665 c 1.185565,0.139861 5.123469,0.136217 6.228644,-0.0058 l 0.836695,-0.10749 0.286914,0.21884 c 0.386378,0.294706 0.687204,0.394919 3.284311,1.094094 1.229476,0.330991 2.390169,0.671703 2.57932,0.757138 0.779418,0.352049 1.270849,1.19701 0.966412,1.66164 -0.07164,0.109343 -0.576188,0.6147 -1.121209,1.123016 l -0.990946,0.924212 -1.068367,0.205212 c -1.27217,0.244358 -3.446219,0.522073 -5.046664,0.644666 -1.846388,0.141432 -5.415875,0.09743 -6.96847,-0.0859 z"
       id="path26"
       transform="scale(0.26458333)" />
    <path
       style="fill:#fff6d5;fill-opacity:1;fill-rule:evenodd;stroke:#282828;stroke-width:0.0354199;stroke-linecap:round;stroke-dasharray:none;stroke-opacity:1"
       d="m 20.516318,44.528378 c -1.277189,-0.08626 -3.577482,-0.425662 -5.549559,-0.818816 -1.720777,-0.343055 -3.541327,-0.785929 -3.644225,-0.886509 -0.06687,-0.06536 1.643936,-1.222278 2.922505,-1.976316 l 0.617637,-0.364252 1.617773,0.25863 c 2.480475,0.396548 3.07992,0.453509 5.443764,0.517278 3.989778,0.107633 7.179962,-0.0668 10.016356,-0.547668 l 1.203682,-0.204067 0.64483,0.398137 c 2.037584,1.258067 3.020584,1.941688 2.893931,2.012566 -0.435,0.243439 -5.081117,1.220493 -6.676933,1.404124 -2.260193,0.260082 -7.130258,0.366258 -9.489761,0.206893 z"
       id="path27"
       transform="scale(0.26458333)" />
    <path
       style="fill:#fff6d5;fill-opacity:1;fill-rule:evenodd;stroke:#282828;stroke-width:0.0354199;stroke-linecap:round;stroke-dasharray:none;stroke-opacity:1"
       d="m 22.125385,33.101732 c -1.315605,-0.09445 -1.752342,-0.203024 -2.40848,-0.598759 -0.310086,-0.187022 -0.813287,-0.423066 -1.118224,-0.524542 -0.304937,-0.101477 -0.542287,-0.195096 -0.527445,-0.208042 0.01484,-0.01295 0.665368,0.02753 1.445612,0.08994 1.740828,0.139251 7.211696,0.15802 8.741295,0.02999 0.612665,-0.05128 1.22757,-0.0803 1.366454,-0.06448 0.221479,0.02522 0.183828,0.05397 -0.306336,0.23388 -0.307369,0.112817 -0.715284,0.312293 -0.906479,0.443279 -0.191193,0.130987 -0.500712,0.278405 -0.687818,0.327597 -0.895526,0.235444 -4.000918,0.385839 -5.598579,0.271141 z"
       id="path28"
       transform="scale(0.26458333)" />
    <path
       style="fill:#fff6d5;fill-opacity:1;fill-rule:evenodd;stroke:#282828;stroke-width:0.0354199;stroke-linecap:round;stroke-dasharray:none;stroke-opacity:1"
       d="m 22.826974,31.326747 c -1.434595,-0.05044 -3.347099,-0.204192 -4.286038,-0.344572 -0.722141,-0.107967 -0.984385,-0.184379 -1.160694,-0.338198 l -0.22777,-0.198716 0.300921,-0.295251 0.30092,-0.295251 0.601842,0.06972 c 2.284787,0.264689 8.868468,0.311907 11.13406,0.07985 l 0.902762,-0.09247 0.236438,0.263405 c 0.13004,0.144872 0.236437,0.300592 0.236437,0.346043 0,0.181338 -0.463999,0.367441 -1.180298,0.473397 -1.351198,0.199873 -5.249622,0.388601 -6.85858,0.332033 z"
       id="path29"
       transform="scale(0.26458333)" />
    <path
       style="fill:#fff6d5;fill-opacity:1;fill-rule:evenodd;stroke:#282828;stroke-width:0.0354199;stroke-linecap:round;stroke-dasharray:none;stroke-opacity:1"
       d="m 19.226812,29.268769 c -0.608751,-0.06326 -1.12,-0.128203 -1.136109,-0.144312 -0.06267,-0.06267 1.046761,-4.774474 1.513794,-6.429141 0.305026,-1.080689 0.898788,-2.66801 1.279723,-3.421121 0.407712,-0.806051 0.485365,-0.829029 2.759539,-0.81656 1.901209,0.01042 3.259946,0.136869 3.372474,0.313846 0.18381,0.289085 0.897711,2.020983 1.157817,2.808822 0.557294,1.687997 1.880137,7.460577 1.741446,7.599268 -0.224397,0.224397 -8.706568,0.295181 -10.688684,0.0892 z"
       id="path30"
       transform="scale(0.26458333)" />
    <path
       style="fill:#fff6d5;fill-opacity:1;fill-rule:evenodd;stroke:#282828;stroke-width:0.0354199;stroke-linecap:round;stroke-dasharray:none;stroke-opacity:1"
       d="m 26.953885,17.877478 c -1.916121,-0.159807 -3.275301,-0.1804 -5.709895,-0.08651 l -2.614712,0.100834 -0.363064,-0.35632 c -0.199685,-0.195977 -0.468917,-0.565535 -0.598293,-0.821241 -0.205564,-0.406291 -0.222365,-0.495974 -0.133231,-0.711163 0.2286,-0.551889 0.657905,-0.575545 4.346534,-0.239509 l 2.149433,0.195815 2.321387,-0.196764 c 3.110182,-0.263623 3.718299,-0.275253 4.021021,-0.0769 0.480979,0.31515 0.39333,0.748469 -0.352778,1.74404 l -0.401106,0.535217 -0.94575,-0.01148 c -0.520163,-0.0063 -1.293958,-0.04052 -1.719546,-0.07602 z"
       id="path31"
       transform="scale(0.26458333)" />
    <path
       style="fill:#cccccc;fill-opacity:1;fill-rule:evenodd;stroke:#282828;stroke-width:0.0354199;stroke-linecap:round;stroke-dasharray:none;stroke-opacity:1"
       d="M 23.084906,15.136249 C 21.716303,14.840834 20.3988,13.858308 19.876238,12.74339 c -0.199244,-0.425099 -0.230424,-0.602149 -0.230424,-1.308409 0,-0.746883 0.02389,-0.86562 0.279187,-1.387428 0.48852,-0.998508 1.363191,-1.7433455 2.518357,-2.1445408 0.734641,-0.2551446 2.191872,-0.2782368 2.962935,-0.046953 1.133066,0.3398688 2.206351,1.211972 2.675115,2.1736788 0.221814,0.455068 0.244918,0.587665 0.244857,1.405243 -6.2e-5,0.822871 -0.02148,0.943718 -0.242077,1.36556 -0.714186,1.365749 -2.255759,2.291918 -3.953825,2.375436 -0.385851,0.01898 -0.856307,0.0011 -1.045457,-0.03973 z"
       id="path32"
       transform="scale(0.26458333)" />
    <path
       style="fill:#cccccc;fill-opacity:1;fill-rule:evenodd;stroke:#282828;stroke-width:0.0354199;stroke-linecap:round;stroke-dasharray:none;stroke-opacity:1"
       d="m 26.438021,17.779123 c -0.520163,-0.04396 -2.501375,-0.05945 -4.402695,-0.03444 l -3.456944,0.04548 -0.348517,-0.404827 c -0.4435,-0.515156 -0.7211,-1.075713 -0.647522,-1.307538 0.160688,-0.506284 0.898241,-0.549361 4.281967,-0.250088 l 2.132518,0.18861 2.295313,-0.185732 c 1.262422,-0.102152 2.665794,-0.185055 3.118605,-0.184229 0.761053,0.0014 0.838218,0.01739 1.020748,0.211686 0.263501,0.280484 0.200535,0.515948 -0.363385,1.358902 l -0.445758,0.666324 -1.11929,-0.01212 c -0.615609,-0.0067 -1.544877,-0.04808 -2.06504,-0.09204 z"
       id="path33"
       transform="scale(0.26458333)" />
    <path
       style="fill:#cccccc;fill-opacity:1;fill-rule:evenodd;stroke:#282828;stroke-width:0.0354199;stroke-linecap:round;stroke-dasharray:none;stroke-opacity:1"
       d="m 19.529699,29.233331 c -1.269179,-0.112295 -1.397536,-0.147634 -1.345578,-0.370465 0.02429,-0.104189 0.157191,-0.692402 0.295328,-1.30714 0.936621,-4.168157 1.67629,-6.654561 2.420823,-8.137614 0.350153,-0.69748 0.543325,-0.82019 1.40401,-0.891885 0.834689,-0.06953 4.124889,0.08271 4.44876,0.205842 0.170343,0.06476 0.306723,0.282656 0.609168,0.973256 0.214329,0.489395 0.509053,1.227994 0.654943,1.641331 0.460507,1.304714 1.816972,6.980309 1.816972,7.602405 0,0.121921 -0.07376,0.195303 -0.236438,0.235232 -0.357483,0.08774 -9.146698,0.130553 -10.067988,0.04904 z"
       id="path34"
       transform="scale(0.26458333)" />
    <path
       style="fill:#cccccc;fill-opacity:1;fill-rule:evenodd;stroke:#282828;stroke-width:0.0354199;stroke-linecap:round;stroke-dasharray:none;stroke-opacity:1"
       d="m 21.494326,31.206316 c -1.41214,-0.101796 -3.232463,-0.315368 -3.615018,-0.424137 -0.167691,-0.04768 -0.380485,-0.142993 -0.472875,-0.211811 -0.163706,-0.121938 -0.161356,-0.131827 0.09232,-0.388416 l 0.260306,-0.263292 0.771422,0.09161 c 1.227515,0.14578 8.938256,0.207923 10.518467,0.08477 l 1.339325,-0.104379 0.195344,0.244144 c 0.247756,0.30965 0.218447,0.390014 -0.19209,0.526712 -1.055185,0.351348 -6.451278,0.621113 -8.897204,0.444794 z"
       id="path35"
       transform="scale(0.26458333)" />
    <path
       style="fill:#cccccc;fill-opacity:1;fill-rule:evenodd;stroke:#282828;stroke-width:0.0354199;stroke-linecap:round;stroke-dasharray:none;stroke-opacity:1"
       d="m 21.786244,33.010247 c -0.946501,-0.0918 -1.271091,-0.189956 -2.293893,-0.693672 l -0.878265,-0.432533 1.332649,0.06313 c 1.788314,0.08472 6.897212,0.08717 8.339798,0.004 l 1.160694,-0.06692 -0.83578,0.432318 c -0.958798,0.495951 -1.313096,0.574982 -3.119176,0.695781 -1.459231,0.0976 -2.685263,0.09691 -3.706027,-0.0021 z"
       id="path36"
       transform="scale(0.26458333)" />
    <path
       style="fill:#cccccc;fill-opacity:1;fill-rule:evenodd;stroke:#282828;stroke-width:0.0354199;stroke-linecap:round;stroke-dasharray:none;stroke-opacity:1"
       d="m 20.548576,40.146463 c -0.89982,-0.08449 -4.180024,-0.554792 -4.806264,-0.689097 -0.477351,-0.102373 -1.133634,-0.576861 -2.125587,-1.53678 -0.819747,-0.793275 -0.888252,-1.006922 -0.504128,-1.572212 0.326875,-0.48104 0.811831,-0.711095 2.409632,-1.14309 2.889937,-0.781348 3.615448,-1.004204 4.088477,-1.25586 l 0.480756,-0.255766 1.023847,0.08981 c 1.334055,0.117025 4.589019,0.11661 5.875076,-7.48e-4 l 1.011843,-0.09233 0.329434,0.22356 c 0.358903,0.243559 0.995905,0.449367 3.862231,1.247846 1.037792,0.2891 2.018408,0.606917 2.179148,0.706259 0.395998,0.24474 0.791677,0.809036 0.791677,1.129045 0,0.21714 -0.156293,0.410357 -0.967245,1.195763 -0.531985,0.515226 -1.044624,0.989194 -1.139199,1.053262 -0.208386,0.141166 -2.241553,0.498718 -4.221661,0.742419 -1.155683,0.142235 -2.068332,0.184515 -4.462047,0.206713 -1.655063,0.01535 -3.376759,-0.0066 -3.82599,-0.04879 z"
       id="path37"
       transform="scale(0.26458333)" />
    <path
       style="fill:#333333;fill-opacity:1;fill-rule:evenodd;stroke:none;stroke-width:0.0354199;stroke-linecap:round;stroke-dasharray:none;stroke-opacity:1"
       d="m 20.247655,44.447785 c -2.142263,-0.191438 -6.574902,-0.993261 -8.364096,-1.512987 l -0.454183,-0.131932 0.196251,-0.153603 c 0.331886,-0.25976 1.966603,-1.330091 2.632264,-1.723474 l 0.630488,-0.372597 1.776876,0.273059 c 2.505751,0.385068 3.087466,0.433596 5.946776,0.496101 3.589992,0.07848 6.53145,-0.09953 9.447265,-0.571731 l 1.064477,-0.172385 1.205973,0.749268 c 1.492931,0.927554 2.253646,1.482307 2.156132,1.572365 -0.162191,0.149788 -4.400118,1.062276 -5.963935,1.284123 -0.354656,0.05031 -1.109107,0.132827 -1.676557,0.183366 -1.358223,0.120968 -7.501036,0.17843 -8.597731,0.08043 z"
       id="path38"
       transform="scale(0.26458333)" />
    <path
       style="fill:#333333;fill-opacity:1;fill-rule:evenodd;stroke:none;stroke-width:0.0354199;stroke-linecap:round;stroke-dasharray:none;stroke-opacity:1"
       d="m 20.72053,40.100252 c -1.497712,-0.179839 -2.656351,-0.338112 -3.783001,-0.516768 -1.612423,-0.255685 -1.855192,-0.379598 -3.104744,-1.584698 -1.001795,-0.966158 -1.058107,-1.141844 -0.547239,-1.707314 0.399109,-0.441765 0.959541,-0.666711 3.222096,-1.293284 2.048545,-0.567306 3.024115,-0.884833 3.325716,-1.08245 0.175265,-0.114838 0.453629,-0.120095 2.228647,-0.04209 1.398861,0.06148 2.631889,0.06153 3.973011,1.77e-4 l 1.944646,-0.08896 0.47829,0.254926 c 0.26306,0.140209 1.367057,0.510273 2.453329,0.822362 2.584469,0.742529 3.306303,0.981475 3.559944,1.178436 0.29325,0.227719 0.607515,0.712912 0.607515,0.93794 0,0.209635 -1.681771,1.982685 -2.076845,2.189567 -0.290853,0.152306 -2.114736,0.488001 -3.941566,0.725466 -1.185159,0.154055 -1.96338,0.18921 -4.728752,0.213614 -1.820569,0.01607 -3.44554,0.01295 -3.611047,-0.0069 z"
       id="path39"
       transform="scale(0.26458333)" />
    <path
       style="fill:#333333;fill-opacity:1;fill-rule:evenodd;stroke:none;stroke-width:0.0354199;stroke-linecap:round;stroke-dasharray:none;stroke-opacity:1"
       d="m 21.580303,32.921267 c -0.686137,-0.08866 -1.242384,-0.266325 -1.948848,-0.622458 l -0.540092,-0.272263 h 4.994675 4.994674 l -0.66359,0.310651 c -0.364976,0.170858 -0.862857,0.354002 -1.106403,0.406987 -1.104389,0.240266 -4.443018,0.343437 -5.730416,0.177083 z"
       id="path40"
       transform="scale(0.26458333)" />
    <path
       style="fill:#333333;fill-opacity:1;fill-rule:evenodd;stroke:none;stroke-width:0.0354199;stroke-linecap:round;stroke-dasharray:none;stroke-opacity:1"
       d="m 21.107428,31.116133 c -2.165502,-0.175216 -3.740012,-0.459181 -3.740012,-0.674516 0,-0.03391 0.09006,-0.146263 0.200137,-0.249674 0.196763,-0.184849 0.221047,-0.186474 1.44012,-0.09637 0.731922,0.0541 3.327762,0.08271 6.335464,0.06982 5.085789,-0.02179 5.095722,-0.02149 5.221541,0.158141 0.10138,0.14474 0.104641,0.197751 0.01665,0.270775 -0.509206,0.422603 -6.572595,0.756574 -9.473902,0.521822 z"
       id="path41"
       transform="scale(0.26458333)" />
    <path
       style="fill:#333333;fill-opacity:1;fill-rule:evenodd;stroke:none;stroke-width:0.0354199;stroke-linecap:round;stroke-dasharray:none;stroke-opacity:1"
       d="m 19.645814,29.175176 c -0.77607,-0.06364 -1.21089,-0.125574 -1.3095,-0.186519 -0.0786,-0.04857 -0.01042,-0.472439 0.276327,-1.718001 0.879911,-3.822125 1.576282,-6.166975 2.244785,-7.558733 0.491714,-1.023702 0.588739,-1.079771 1.946996,-1.125155 1.292583,-0.04319 3.836575,0.125728 4.007791,0.266111 0.161142,0.132124 0.585587,1.051266 1.001083,2.167863 0.536231,1.44106 1.977295,7.347577 1.917713,7.860172 l -0.02585,0.222404 -1.375637,0.05284 c -1.419168,0.05451 -8.07317,0.06909 -8.683708,0.01902 z"
       id="path42"
       transform="scale(0.26458333)" />
    <path
       style="fill:#333333;fill-opacity:1;fill-rule:evenodd;stroke:none;stroke-width:0.0354199;stroke-linecap:round;stroke-dasharray:none;stroke-opacity:1"
       d="m 22.815178,17.732843 -4.224685,-0.02313 -0.298273,-0.364599 c -0.396248,-0.48436 -0.686948,-1.068663 -0.626473,-1.259203 0.02689,-0.08471 0.146684,-0.198579 0.266219,-0.253042 0.324953,-0.148059 1.86154,-0.12046 4.110924,0.07384 1.896969,0.163856 2.081519,0.165929 3.542093,0.03979 0.847471,-0.07319 2.221804,-0.156775 3.054072,-0.185744 1.469158,-0.05114 1.518597,-0.04729 1.698052,0.132164 0.10166,0.10166 0.184836,0.235799 0.184836,0.298088 0,0.06229 -0.200261,0.449186 -0.445024,0.859773 l -0.445025,0.746521 -1.296016,-0.02066 c -0.712808,-0.01137 -3.197124,-0.03107 -5.5207,-0.04379 z"
       id="path43"
       transform="scale(0.26458333)" />
    <path
       style="fill:#333333;fill-opacity:1;fill-rule:evenodd;stroke:none;stroke-width:0.0354199;stroke-linecap:round;stroke-dasharray:none;stroke-opacity:1"
       d="m 22.853877,15.00564 c -1.239218,-0.341307 -2.36111,-1.238977 -2.958205,-2.366976 -0.123787,-0.233852 -0.159801,-0.492547 -0.161585,-1.160694 -0.0021,-0.7787 0.02147,-0.908417 0.249717,-1.375637 0.360404,-0.7377391 1.167512,-1.5178218 1.959598,-1.8939818 1.822158,-0.865339 4.051491,-0.476845 5.373528,0.9364161 0.782812,0.8368287 0.92712,1.1944127 0.92425,2.2902137 -0.0022,0.823519 -0.02395,0.944189 -0.248303,1.374702 -0.852285,1.635469 -3.329954,2.694206 -5.139,2.195957 z"
       id="path44"
       transform="scale(0.26458333)" />
  </g>
  <metadata
     id="metadata1">
    <rdf:RDF>
      <cc:License
         rdf:about="http://creativecommons.org/licenses/by-sa/4.0/">
        <cc:permits
           rdf:resource="http://creativecommons.org/ns#Reproduction" />
        <cc:permits
           rdf:resource="http://creativecommons.org/ns#Distribution" />
        <cc:requires
           rdf:resource="http://creativecommons.org/ns#Notice" />
        <cc:requires
           rdf:resource="http://creativecommons.org/ns#Attribution" />
        <cc:permits
           rdf:resource="http://creativecommons.org/ns#DerivativeWorks" />
        <cc:requires
           rdf:resource="http://creativecommons.org/ns#ShareAlike" />
      </cc:License>
      <cc:Work
         rdf:about="">
        <cc:license
           rdf:resource="http://creativecommons.org/licenses/by-sa/4.0/" />
        <dc:creator>
          <cc:Agent>
            <dc:title>Curtis Walker</dc:title>
          </cc:Agent>
        </dc:creator>
      </cc:Work>
    </rdf:RDF>
  </metadata>
</svg>
