<?xml version="1.0" encoding="UTF-8" standalone="no"?>
<!-- Created with Inkscape (http://www.inkscape.org/) -->

<svg
   width="48"
   height="48"
   viewBox="0 0 12.7 12.7"
   version="1.1"
   id="svg1"
   inkscape:version="1.3 (0e150ed6c4, 2023-07-21)"
   sodipodi:docname="bQueen.svg"
   xmlns:inkscape="http://www.inkscape.org/namespaces/inkscape"
   xmlns:sodipodi="http://sodipodi.sourceforge.net/DTD/sodipodi-0.dtd"
   xmlns="http://www.w3.org/2000/svg"
   xmlns:svg="http://www.w3.org/2000/svg"
   xmlns:rdf="http://www.w3.org/1999/02/22-rdf-syntax-ns#"
   xmlns:cc="http://creativecommons.org/ns#"
   xmlns:dc="http://purl.org/dc/elements/1.1/">
  <sodipodi:namedview
     id="namedview1"
     pagecolor="#505050"
     bordercolor="#eeeeee"
     borderopacity="1"
     inkscape:showpageshadow="0"
     inkscape:pageopacity="0"
     inkscape:pagecheckerboard="0"
     inkscape:deskcolor="#d1d1d1"
     inkscape:document-units="mm"
     inkscape:zoom="16.448684"
     inkscape:cx="24.865211"
     inkscape:cy="24.470043"
     inkscape:window-width="1366"
     inkscape:window-height="731"
     inkscape:window-x="0"
     inkscape:window-y="0"
     inkscape:window-maximized="1"
     inkscape:current-layer="layer1" />
  <defs
     id="defs1">
    <inkscape:path-effect
       effect="mirror_symmetry"
       start_point="6.3595931,0.70873641"
       end_point="6.3595931,1.31263"
       center_point="6.3595931,1.0106832"
       id="path-effect29"
       is_visible="true"
       lpeversion="1.2"
       lpesatellites=""
       mode="free"
       discard_orig_path="false"
       fuse_paths="false"
       oposite_fuse="false"
       split_items="false"
       split_open="false"
       link_styles="false" />
    <inkscape:path-effect
       effect="mirror_symmetry"
       start_point="6.3577583,1.622602"
       end_point="6.3577583,3.0813944"
       center_point="6.3577583,2.3519982"
       id="path-effect10"
       is_visible="true"
       lpeversion="1.2"
       lpesatellites=""
       mode="free"
       discard_orig_path="false"
       fuse_paths="false"
       oposite_fuse="false"
       split_items="false"
       split_open="false"
       link_styles="false" />
    <inkscape:path-effect
       effect="mirror_symmetry"
       start_point="6.35,0.38214236"
       end_point="6.35,1.3832394"
       center_point="6.35,0.88269088"
       id="path-effect9"
       is_visible="true"
       lpeversion="1.2"
       lpesatellites=""
       mode="free"
       discard_orig_path="false"
       fuse_paths="false"
       oposite_fuse="false"
       split_items="false"
       split_open="false"
       link_styles="false" />
    <inkscape:path-effect
       effect="mirror_symmetry"
       start_point="6.5883282,1.7801991"
       end_point="6.5883282,3.9917237"
       center_point="6.5883282,2.8859614"
       id="path-effect8"
       is_visible="true"
       lpeversion="1.2"
       lpesatellites=""
       mode="free"
       discard_orig_path="false"
       fuse_paths="false"
       oposite_fuse="false"
       split_items="false"
       split_open="false"
       link_styles="false" />
    <inkscape:path-effect
       effect="mirror_symmetry"
       start_point="6.8275181,4.7868426"
       end_point="6.8062803,12.273485"
       center_point="6.8168992,8.5301638"
       id="path-effect1"
       is_visible="true"
       lpeversion="1.2"
       lpesatellites=""
       mode="free"
       discard_orig_path="false"
       fuse_paths="false"
       oposite_fuse="false"
       split_items="false"
       split_open="false"
       link_styles="false" />
  </defs>
  <g
     inkscape:label="Layer 1"
     inkscape:groupmode="layer"
     id="layer1">
    <path
       id="path1"
       style="fill:none;fill-opacity:1;fill-rule:evenodd;stroke:#282828;stroke-width:0.1;stroke-linecap:round;stroke-dasharray:none;stroke-opacity:1"
       inkscape:path-effect="#path-effect1"
       inkscape:original-d="M 6.7926931,3.2596585 C 7.1396199,3.3491368 7.1928532,3.559674 7.3662009,3.8600944 7.5225925,3.5735861 7.7905954,3.4262639 8.1476495,3.2788213 8.3883667,3.4508007 8.3248193,3.6617287 8.3412076,3.8447654 8.5117188,3.5028031 8.6516664,3.3331474 8.9051737,3.2113754 9.0419526,3.1456738 9.2541341,3.8340605 8.6215516,4.4152741 L 7.6852763,5.0686352 c 0.4935707,0.7820501 0.5861351,2.6939125 0.8420481,3.723344 0.3467394,0.2392437 0.2249575,0.368207 0,0.472885 C 8.648337,9.4634336 8.3996407,9.5286745 8.1358088,9.588457 7.8713712,9.7081129 7.9060772,9.8277687 8.1447288,9.9474246 l 1.408413,0.3585284 c 0.3746077,0.253193 0.5413452,0.532458 0,0.90053 -0.1778342,0.143847 -0.4230073,0.284709 -0.010305,0.454726 l 0.8099872,0.490227 c 0.0847,0.117534 0.337613,0.243207 0.01684,0.341123"
       d="M 6.7926931,3.2596585 C 7.1396199,3.3491368 7.1928532,3.559674 7.3662009,3.8600944 7.5225925,3.5735861 7.7905954,3.4262639 8.1476495,3.2788213 8.3883667,3.4508007 8.3248193,3.6617287 8.3412076,3.8447654 8.5117188,3.5028031 8.6516664,3.3331474 8.9051737,3.2113754 9.0419526,3.1456738 9.2541341,3.8340605 8.6215516,4.4152741 L 7.6852763,5.0686352 c 0.4935707,0.7820501 0.5861351,2.6939125 0.8420481,3.723344 0.3467394,0.2392437 0.2249575,0.368207 0,0.472885 C 8.648337,9.4634336 8.3996407,9.5286745 8.1358088,9.588457 7.8713712,9.7081129 7.9060772,9.8277687 8.1447288,9.9474246 l 1.408413,0.3585284 c 0.3746077,0.253193 0.5413452,0.532458 0,0.90053 -0.1778342,0.143847 -0.4230073,0.284709 -0.010305,0.454726 l 0.8099872,0.490227 c 0.0847,0.117534 0.337613,0.243207 0.01684,0.341123 M 6.871007,3.2598807 C 6.5235781,3.3473892 6.4691512,3.557621 6.2941018,3.8570531 6.1393383,3.5696621 5.8721755,3.4208218 5.5159637,3.2713558 5.2742746,3.4419668 5.3366243,3.6532519 5.3191978,3.8361927 5.1506295,3.4932685 5.0116467,3.3228215 4.7588343,3.1996132 4.6224304,3.1331367 4.4063467,3.8203085 5.0356216,4.4051017 L 5.968175,5.0637642 C 5.4701753,5.8430015 5.3667655,7.7543079 5.1050161,8.7822709 4.756925,9.0195436 4.8779732,9.1491957 5.1023332,9.2551483 4.980196,9.453028 5.2285182,9.5196788 5.4920066,9.5809572 5.7557611,9.7021114 5.7203768,9.8215684 5.4810502,9.9398684 L 4.0706257,10.2904 c -0.3760381,0.251064 -0.5443573,0.529379 -0.00511,0.900516 0.1770152,0.144854 0.4213852,0.287104 0.00773,0.454777 l -0.8127555,0.485624 c -0.085365,0.117051 -0.3389874,0.241287 -0.018775,0.341022"
       sodipodi:nodetypes="ccccsccccccccccc"
       transform="translate(-0.45602208,-0.98158515)" />
    <path
       style="fill:none;fill-opacity:1;fill-rule:evenodd;stroke:#282828;stroke-width:0.1;stroke-linecap:round;stroke-dasharray:none;stroke-opacity:1"
       d="M 7.189927,4.8547845 C 6.5894835,4.7348459 6.0379152,4.7479319 5.510073,4.8255942"
       id="path2"
       sodipodi:nodetypes="cc" />
    <path
       style="fill:none;fill-opacity:1;fill-rule:evenodd;stroke:#282828;stroke-width:0.1;stroke-linecap:round;stroke-dasharray:none;stroke-opacity:1"
       d="M 4.6388458,7.8006857 C 5.7121933,7.9159566 6.829881,7.957548 8.0611542,7.8103957"
       id="path3"
       sodipodi:nodetypes="cc" />
    <path
       style="fill:none;fill-opacity:1;fill-rule:evenodd;stroke:#282828;stroke-width:0.1;stroke-linecap:round;stroke-dasharray:none;stroke-opacity:1"
       d="m 4.6375044,8.2735631 c 1.1786521,0.1592944 2.3180041,0.1527809 3.4249912,0.00972"
       id="path4"
       sodipodi:nodetypes="cc" />
    <path
       style="fill:none;fill-opacity:1;fill-rule:evenodd;stroke:#282828;stroke-width:0.1;stroke-linecap:round;stroke-dasharray:none;stroke-opacity:1"
       d="m 5.2121267,8.7742783 c 0.8000716,0.1434733 1.5534436,0.1261988 2.2757466,0.00198"
       id="path5"
       sodipodi:nodetypes="cc" />
    <path
       style="fill:none;fill-opacity:1;fill-rule:evenodd;stroke:#282828;stroke-width:0.1;stroke-linecap:round;stroke-dasharray:none;stroke-opacity:1"
       d="m 3.8407062,10.482806 c 1.7550124,0.42468 3.4153312,0.366705 5.0185875,0.01788"
       id="path6"
       sodipodi:nodetypes="cc" />
    <path
       style="fill:none;fill-opacity:1;fill-rule:evenodd;stroke:#282828;stroke-width:0.1;stroke-linecap:round;stroke-dasharray:none;stroke-opacity:1"
       d="M 9.9136418,11.510974 C 7.5737068,12.2157 5.1965844,12.186471 2.7856931,11.490754 v 0"
       id="path7"
       sodipodi:nodetypes="ccc" />
    <path
       style="fill:none;fill-rule:evenodd;stroke:#282828;stroke-width:0.109;stroke-linecap:round;stroke-opacity:1"
       d="M 7.3766853,2.3988217 C 8.4908403,0.86516311 7.8037377,2.5650496 6.3499999,1.3887042 M 5.3388313,2.3988217 C 4.2246763,0.86516311 4.9117789,2.5650496 6.3655167,1.3887042"
       id="path10"
       inkscape:path-effect="#path-effect10"
       inkscape:original-d="M 7.3766853,2.3988217 C 8.4908403,0.86516311 7.8037377,2.5650496 6.3499999,1.3887042"
       sodipodi:nodetypes="cc" />
    <path
       style="fill:none;fill-rule:evenodd;stroke:#282828;stroke-width:0.0354199;stroke-linecap:round;stroke-opacity:1"
       d="m 22.053179,45.167786 c -2.801753,-0.189992 -4.888496,-0.453699 -7.091387,-0.896157 -2.1818,-0.438221 -4.773481,-1.127812 -4.773481,-1.270121 0,-0.237407 0.770849,-0.807967 2.321387,-1.71822 0.969394,-0.56909 1.859857,-1.110035 1.978806,-1.2021 0.215357,-0.166686 0.221345,-0.166375 1.418625,0.07366 5.40665,1.083934 10.499736,1.092093 16.223788,0.02599 l 1.179087,-0.219604 0.239539,0.185727 c 0.131747,0.10215 0.99399,0.631268 1.916096,1.175817 1.589869,0.938896 2.321388,1.481715 2.321388,1.722574 0,0.13484 -0.949813,0.437303 -2.765375,0.880619 -3.629569,0.886253 -7.300788,1.316566 -10.946538,1.283073 -0.89927,-0.0083 -1.809141,-0.02683 -2.021935,-0.04126 z"
       id="path11"
       transform="scale(0.26458333)" />
    <path
       style="fill:none;fill-rule:evenodd;stroke:#282828;stroke-width:0.0354199;stroke-linecap:round;stroke-opacity:1"
       d="m 21.322372,40.438985 c -2.193855,-0.174923 -4.129928,-0.463419 -6.327004,-0.942794 -0.122439,-0.02672 -0.288628,-0.160322 -0.36931,-0.296904 -0.08068,-0.136583 -0.475476,-0.505065 -0.877322,-0.818849 -1.184743,-0.925114 -1.410678,-1.458773 -0.910077,-2.149597 0.518453,-0.715461 0.679162,-0.783087 3.488855,-1.468103 2.893957,-0.70556 2.963056,-0.727786 3.330848,-1.071354 l 0.263027,-0.245704 1.044401,0.1444 c 1.442678,0.199467 4.608959,0.198327 6.060527,-0.0022 l 1.06117,-0.146583 0.303555,0.266526 c 0.166956,0.146588 0.385846,0.300999 0.486422,0.343133 0.100576,0.04214 1.361638,0.376033 2.802359,0.741995 2.523516,0.641006 2.63502,0.67812 3.043297,1.012937 0.774923,0.635494 0.911135,1.201213 0.438443,1.820945 -0.124474,0.163194 -0.563675,0.562832 -0.976001,0.888084 -0.412326,0.325251 -0.791669,0.683514 -0.842984,0.796138 -0.08409,0.184547 -0.219494,0.227768 -1.370989,0.437608 -3.067548,0.559008 -5.205964,0.750851 -8.155875,0.731687 -1.182188,-0.0077 -2.304192,-0.0263 -2.493342,-0.04138 z"
       id="path12"
       transform="scale(0.26458333)" />
    <path
       style="fill:none;fill-rule:evenodd;stroke:#282828;stroke-width:0.0354199;stroke-linecap:round;stroke-opacity:1"
       d="m 21.881225,33.2321 c -0.07093,-0.01661 -0.531178,-0.07726 -1.02277,-0.134788 -0.843197,-0.09868 -0.907675,-0.120397 -1.138803,-0.383638 -0.260332,-0.296502 -0.43215,-0.381481 -1.202804,-0.594898 -0.488318,-0.13523 -0.93922,-0.416404 -0.835228,-0.520833 0.03095,-0.03108 0.649986,0.0049 1.375637,0.07993 3.139355,0.324654 7.016059,0.327647 10.046062,0.0078 0.685669,-0.07239 1.256343,-0.131694 1.268165,-0.131788 0.01182,-9.3e-5 0.02149,0.05687 0.02149,0.126588 0,0.163297 -0.31831,0.324168 -1.101852,0.556864 -0.406576,0.120744 -0.740987,0.286397 -0.945751,0.468483 -0.268938,0.239154 -0.427129,0.29854 -1.04758,0.393273 -0.657124,0.100332 -5.091085,0.209246 -5.41657,0.13305 z"
       id="path17"
       transform="scale(0.26458333)" />
    <path
       style="fill:none;fill-rule:evenodd;stroke:#282828;stroke-width:0.0354199;stroke-linecap:round;stroke-opacity:1"
       d="m 20.725695,31.369769 c -0.56461,-0.04041 -1.505699,-0.12922 -2.09131,-0.197361 -0.905515,-0.105365 -1.108796,-0.157492 -1.359306,-0.348565 -0.162008,-0.12357 -0.294561,-0.281306 -0.294561,-0.350526 0,-0.06922 0.129909,-0.267607 0.288686,-0.440863 l 0.288686,-0.315011 1.065457,0.100772 c 3.328685,0.31483 7.868969,0.343193 10.606075,0.06626 1.162763,-0.117647 1.208408,-0.116094 1.440294,0.04902 0.477765,0.340199 0.528316,0.665217 0.145823,0.937576 -0.296262,0.210957 -1.234342,0.348789 -3.447878,0.506598 -1.457169,0.103885 -5.141248,0.0995 -6.641966,-0.0079 z"
       id="path18"
       transform="scale(0.26458333)" />
    <path
       style="fill:none;fill-rule:evenodd;stroke:#282828;stroke-width:0.0354199;stroke-linecap:round;stroke-opacity:1"
       d="m 21.107429,45.047404 c -3.24507,-0.31082 -5.348454,-0.635974 -7.737958,-1.196182 -1.601616,-0.375491 -2.921016,-0.748573 -3.036364,-0.858583 -0.129748,-0.123742 0.700085,-0.727876 2.515049,-1.831003 1.084088,-0.658904 1.89254,-1.096211 2.02657,-1.096211 0.122642,0 0.849738,0.115577 1.615769,0.256837 3.033348,0.559365 5.18361,0.729779 8.356947,0.662312 2.585647,-0.05497 3.86233,-0.176873 6.577264,-0.628012 l 1.848512,-0.307167 0.816784,0.50663 c 0.449232,0.278646 1.305075,0.81004 1.901873,1.180876 1.285911,0.799033 1.789444,1.200052 1.666058,1.326868 -0.123681,0.127117 -1.929206,0.633747 -3.528311,0.990042 -1.633923,0.364054 -3.572924,0.684966 -5.284235,0.874561 -1.463485,0.162138 -6.481934,0.239336 -7.737958,0.119032 z"
       id="path22"
       transform="scale(0.26458333)" />
    <path
       style="fill:none;fill-rule:evenodd;stroke:#282828;stroke-width:0.0354199;stroke-linecap:round;stroke-opacity:1"
       d="M 20.161679,40.279356 C 18.814215,40.127302 17.69654,39.955635 16.18378,39.668379 L 15.000145,39.44362 14.382763,38.873255 c -1.535575,-1.418632 -1.70111,-1.610556 -1.70111,-1.972297 0,-0.443522 0.454563,-1.047763 0.979326,-1.301796 0.210963,-0.102125 1.501619,-0.469272 2.868124,-0.81588 2.471546,-0.626899 2.903071,-0.772426 3.261525,-1.099917 0.179595,-0.164081 0.220926,-0.166459 0.94575,-0.05443 1.038995,0.160594 5.356665,0.159863 6.494798,-0.0011 l 0.836144,-0.118253 0.29521,0.259198 c 0.358492,0.31476 0.549016,0.377642 3.316515,1.094606 1.203856,0.311878 2.345205,0.636686 2.53633,0.721797 0.411287,0.183149 1.047964,0.847312 1.131568,1.180418 0.09317,0.37121 -0.237053,0.878374 -0.976567,1.499844 -0.36212,0.304318 -0.79581,0.69297 -0.963756,0.863672 -0.348841,0.354567 -0.500589,0.400211 -2.368812,0.712516 -2.55712,0.427466 -3.452451,0.498135 -6.70623,0.529324 -2.270502,0.02177 -3.38153,-0.0026 -4.169899,-0.09161 z"
       id="path23"
       transform="scale(0.26458333)" />
    <path
       style="fill:none;fill-rule:evenodd;stroke:#282828;stroke-width:0.0354199;stroke-linecap:round;stroke-opacity:1"
       d="m 20.945279,33.051266 c -0.443838,-0.06462 -0.888771,-0.177821 -0.988739,-0.251548 -0.09997,-0.07373 -0.307737,-0.225793 -0.46171,-0.337923 -0.153973,-0.112131 -0.540871,-0.285182 -0.859773,-0.384558 -0.537776,-0.16758 -1.040969,-0.437588 -0.8155,-0.437588 0.05396,0 0.786788,0.0653 1.628507,0.145101 2.136917,0.202606 7.430942,0.202193 9.311345,-7.26e-4 1.650952,-0.178159 1.596054,-0.177398 1.465692,-0.02032 -0.05663,0.06823 -0.408163,0.225697 -0.781194,0.349928 -0.373032,0.12423 -0.824734,0.32563 -1.003784,0.447555 -0.179048,0.121924 -0.45476,0.275946 -0.61269,0.34227 -0.632341,0.265556 -5.374047,0.367395 -6.882154,0.147809 z"
       id="path24"
       transform="scale(0.26458333)" />
    <path
       style="fill:none;fill-rule:evenodd;stroke:#282828;stroke-width:0.0354199;stroke-linecap:round;stroke-opacity:1"
       d="m 20.419611,31.284431 c -1.777788,-0.144466 -2.719719,-0.299073 -3.044329,-0.499693 -0.169832,-0.104963 -0.308786,-0.236905 -0.308786,-0.293205 0,-0.0563 0.112182,-0.238462 0.249294,-0.404802 l 0.249295,-0.302438 1.233814,0.124075 c 1.637598,0.164679 9.236524,0.189168 10.589852,0.03413 0.810336,-0.09283 0.963221,-0.08953 1.185916,0.02563 0.364579,0.188532 0.492789,0.503006 0.294431,0.722188 -0.272346,0.300939 -0.953804,0.428348 -3.223085,0.602606 -1.347497,0.103474 -5.91462,0.09811 -7.226402,-0.0085 z"
       id="path25"
       transform="scale(0.26458333)" />
    <path
       style="fill:none;fill-rule:evenodd;stroke:none;stroke-width:0.0354199;stroke-linecap:round;stroke-opacity:1"
       d="M 23.702169,4.6449681 C 23.563075,4.5058746 23.422704,4.2840475 23.390233,4.1520191 23.283862,3.7195161 23.099192,3.5312074 22.675113,3.4228089 l -0.40699,-0.1040304 0.343909,-0.1051902 c 0.18915,-0.057855 0.501181,-0.1081636 0.693401,-0.1117977 0.333531,-0.00631 0.357336,-0.025258 0.521261,-0.4149997 l 0.171769,-0.4083923 0.177302,0.3950207 0.177303,0.3950207 0.533104,0.05572 c 0.764116,0.079866 0.893594,0.1794478 0.396175,0.3046994 -0.381214,0.095991 -0.41337,0.1279958 -0.643151,0.640136 C 24.505633,4.366682 24.2983,4.6729703 24.176194,4.7529772 23.961054,4.8939423 23.948219,4.8910177 23.702169,4.6449681 Z"
       id="path28"
       transform="scale(0.26458333)" />
    <path
       style="fill:none;fill-rule:evenodd;stroke:#282828;stroke-width:0.109;stroke-linecap:round;stroke-opacity:1"
       id="path29"
       sodipodi:type="arc"
       sodipodi:cx="6.3572063"
       sodipodi:cy="1.0107383"
       sodipodi:rx="0.30436221"
       sodipodi:ry="0.30200183"
       sodipodi:start="1.5978027"
       sodipodi:end="4.7178251"
       sodipodi:open="true"
       sodipodi:arc-type="arc"
       d="M 6.3489876,1.31263 C 6.1822343,1.3081604 6.0501784,1.1713383 6.0528842,1.0058396 6.05559,0.84034096 6.1920492,0.7078411 6.3588609,0.70874088 M 6.3701986,1.31263 C 6.5369519,1.3081604 6.6690078,1.1713383 6.666302,1.0058396 6.6635962,0.84034096 6.527137,0.7078411 6.3603253,0.70874088"
       inkscape:path-effect="#path-effect29" />
    <path
       style="fill:#cccccc;fill-rule:evenodd;stroke:#282828;stroke-width:0.0250457;stroke-linecap:round;stroke-opacity:1"
       d="m 21.187105,45.006689 c -1.569908,-0.122024 -4.591763,-0.537682 -6.140309,-0.844602 -1.612567,-0.319609 -3.954879,-0.905226 -4.517123,-1.129355 l -0.17027,-0.06788 0.17027,-0.178489 c 0.328786,-0.344653 2.731939,-1.868436 3.873446,-2.45606 l 0.453323,-0.233362 1.93423,0.319792 c 3.320956,0.549062 4.695442,0.654045 7.861756,0.600476 2.853979,-0.04828 4.154684,-0.176295 7.605407,-0.748491 l 1.009136,-0.167334 1.361875,0.843099 c 2.427383,1.502725 3.075077,1.964072 2.938704,2.093217 -0.143861,0.136234 -2.390562,0.749977 -3.887044,1.061843 -2.565078,0.534562 -4.523431,0.795975 -6.657068,0.888628 -1.26502,0.05493 -5.206907,0.06744 -5.836333,0.01851 z"
       id="path30"
       transform="scale(0.26458333)" />
    <path
       style="fill:#cccccc;fill-rule:evenodd;stroke:#282828;stroke-width:0.0250457;stroke-linecap:round;stroke-opacity:1"
       d="m 20.487961,40.26463 c -1.031063,-0.09372 -3.812998,-0.525214 -5.011043,-0.77723 -0.432598,-0.091 -0.469024,-0.112909 -1.001876,-0.602581 -1.838385,-1.689412 -1.936641,-1.847432 -1.558587,-2.506579 0.390532,-0.6809 0.550823,-0.747263 3.937827,-1.630314 2.028545,-0.528878 2.43769,-0.663003 2.815726,-0.923046 0.301344,-0.207288 0.336975,-0.216832 0.68945,-0.184679 2.110432,0.192519 5.618076,0.197767 6.998354,0.01047 0.36781,-0.04991 0.672607,-0.09097 0.677326,-0.09125 0.0047,-2.78e-4 0.141507,0.109638 0.303975,0.244257 0.35641,0.295317 0.716688,0.417041 3.12237,1.054933 2.758868,0.731543 2.800152,0.7457 3.207768,1.10005 0.368328,0.320195 0.622326,0.711294 0.622326,0.958237 0,0.33522 -0.291466,0.702314 -1.222193,1.539325 -0.481381,0.43291 -0.917843,0.820265 -0.969915,0.860789 -0.14976,0.116547 -0.721626,0.247678 -2.063551,0.473182 -2.653489,0.445905 -3.751544,0.519986 -7.5082,0.506546 -1.538117,-0.0055 -2.906007,-0.01995 -3.039757,-0.03211 z"
       id="path31"
       transform="scale(0.26458333)" />
    <path
       style="fill:#cccccc;fill-rule:evenodd;stroke:#282828;stroke-width:0.0250457;stroke-linecap:round;stroke-opacity:1"
       d="m 21.673466,33.069322 c -1.028907,-0.0675 -1.533121,-0.200595 -1.987915,-0.524734 -0.207264,-0.14772 -0.590273,-0.347123 -0.851132,-0.443118 -0.604302,-0.222381 -0.949357,-0.368757 -0.921623,-0.390962 0.01197,-0.0096 0.377421,0.0172 0.812106,0.05952 3.008588,0.292913 8.807547,0.260251 11.247101,-0.06335 0.220391,-0.02923 0.232606,-0.02407 0.130344,0.05507 -0.06206,0.04803 -0.376674,0.188293 -0.699144,0.311689 -0.322469,0.123397 -0.818849,0.356489 -1.103067,0.517984 -0.621765,0.353292 -0.836148,0.393992 -2.522998,0.478982 -1.359657,0.06851 -3.049768,0.06806 -4.103672,-0.0011 z"
       id="path32"
       transform="scale(0.26458333)" />
    <path
       style="fill:#cccccc;fill-rule:evenodd;stroke:#282828;stroke-width:0.0250457;stroke-linecap:round;stroke-opacity:1"
       d="m 20.549389,31.242754 c -1.862265,-0.125563 -3.022912,-0.34411 -3.300228,-0.621426 l -0.153,-0.153 0.232245,-0.316381 0.232244,-0.31638 0.460536,0.04213 c 0.253295,0.02317 0.747793,0.06736 1.098885,0.09821 1.185188,0.104125 7.546073,0.140846 9.180065,0.053 2.107619,-0.113313 2.122214,-0.112981 2.355667,0.05353 0.423252,0.301889 0.279688,0.651115 -0.338399,0.823169 -0.44331,0.123401 -1.553187,0.26183 -2.736447,0.341302 -1.070522,0.0719 -5.946339,0.06902 -7.031568,-0.0041 z"
       id="path33"
       transform="scale(0.26458333)" />
    <path
       style="fill:#cccccc;fill-rule:evenodd;stroke:#282828;stroke-width:0.0250457;stroke-linecap:round;stroke-opacity:1"
       d="m 22.463803,29.627241 c -1.31438,-0.04793 -4.549392,-0.293477 -4.605487,-0.349572 -0.0098,-0.0098 0.0356,-0.247484 0.100978,-0.528106 0.137025,-0.588186 0.424394,-2.246525 0.825867,-4.765881 0.757272,-4.75209 1.333124,-6.96609 2.162389,-8.313817 0.102181,-0.166065 0.177364,-0.308444 0.167073,-0.316398 -0.01029,-0.008 -0.812087,-0.572084 -1.781769,-1.253624 -0.969683,-0.681539 -1.895005,-1.361608 -2.056273,-1.511265 -0.369008,-0.342441 -0.88912,-1.126891 -1.096662,-1.65402 -0.28621,-0.726937 -0.338036,-1.5899131 -0.12636,-2.1040643 0.09833,-0.2388382 0.181079,-0.245562 0.489433,-0.039769 0.615121,0.4105259 1.038254,0.9435919 1.579131,1.9894013 0.442492,0.855577 0.42503,0.869368 0.500095,-0.394975 0.0459,-0.7731814 0.06208,-0.852102 0.230383,-1.1243328 0.09956,-0.1610301 0.226795,-0.3015989 0.282751,-0.312375 0.217618,-0.041909 1.586843,0.7177116 2.024884,1.1233678 0.267991,0.248179 0.6611,0.762804 0.753991,0.987061 0.04392,0.106046 0.107602,0.183565 0.141503,0.172265 0.0339,-0.0113 0.263973,-0.374822 0.51127,-0.807827 0.505855,-0.8857209 0.760911,-1.1811287 1.209161,-1.4004562 0.35252,-0.1724869 0.453165,-0.154804 0.910736,0.1600129 0.282312,0.1942363 0.579632,0.5958228 0.965651,1.3042943 0.12753,0.234061 0.286381,0.51639 0.353001,0.627396 l 0.121128,0.20183 0.184462,-0.32342 c 0.429849,-0.753658 0.94933,-1.1975482 2.033251,-1.7373892 0.678999,-0.3381711 0.683287,-0.3393485 0.812005,-0.222938 0.333094,0.3012439 0.406309,0.6666516 0.477919,2.3852352 0.0069,0.165831 0.131401,-0.01513 0.496966,-0.72239 0.443314,-0.8576797 0.9059,-1.4347979 1.445913,-1.8039077 0.430298,-0.2941165 0.477262,-0.2863664 0.605847,0.099977 0.09792,0.2941984 0.08505,1.0726547 -0.02476,1.4980337 -0.111749,0.432897 -0.378359,1.021386 -0.6254,1.380449 -0.426431,0.619796 -0.774547,0.911708 -2.632382,2.207381 -1.822654,1.271139 -1.881493,1.318409 -1.79953,1.445718 0.640754,0.995242 1.144837,2.529808 1.62089,4.934429 0.132395,0.668746 0.435677,2.474362 0.67396,4.012479 0.395882,2.555408 0.621075,3.878478 0.779348,4.578874 0.04315,0.190947 0.04012,0.268828 -0.01114,0.285954 -0.141304,0.04722 -2.291384,0.213821 -3.505364,0.271626 -1.132908,0.05394 -3.027458,0.06331 -4.194865,0.02074 z m 4.912141,-11.242032 c 0.01,-0.0698 -0.01842,-0.157246 -0.06309,-0.194322 -0.04467,-0.03708 -0.47688,-0.129303 -0.960458,-0.204949 -0.751202,-0.11751 -1.122679,-0.137903 -2.551097,-0.140051 -1.477766,-0.0022 -2.622914,0.06857 -3.054955,0.188844 -0.124832,0.03475 -0.149221,0.357094 -0.0304,0.401741 0.0418,0.01571 0.349572,-0.0088 0.683945,-0.05455 1.457554,-0.199253 3.783673,-0.168133 5.045997,0.06751 0.617327,0.115239 0.90728,0.09522 0.930059,-0.06422 z"
       id="path34"
       transform="scale(0.26458333)" />
    <path
       style="fill:#cccccc;fill-rule:evenodd;stroke:#282828;stroke-width:0.0250457;stroke-linecap:round;stroke-opacity:1"
       d="M 25.852137,9.9514115 C 25.519361,9.3557469 25.242235,9.0218757 24.886162,8.7876408 24.74089,8.6920768 24.550247,8.565184 24.462511,8.5056567 24.281922,8.3831306 23.937812,8.3689559 23.801296,8.4784197 23.75114,8.5186367 23.586052,8.6222616 23.434434,8.7086972 23.049947,8.927888 22.644999,9.3811637 22.344474,9.9287373 L 22.089029,10.39417 21.620804,9.9239069 C 21.36328,9.6652622 20.984439,9.3578915 20.778936,9.2408609 20.573433,9.1238302 20.378243,8.9733622 20.345181,8.9064876 20.312119,8.8396129 19.985469,8.401888 19.619291,7.9337654 19.253113,7.4656428 18.958999,7.0758666 18.965703,7.0675959 c 0.0067,-0.00827 0.17413,0.015439 0.372056,0.052688 1.16824,0.2198604 2.741555,-0.2204174 4.14699,-1.1604977 l 0.544619,-0.3642894 0.509114,0.3426224 c 0.672225,0.4523919 1.602328,0.8917249 2.241776,1.0588992 0.54474,0.1424145 1.597082,0.1925621 2.109842,0.100541 L 29.14569,7.051691 28.596197,7.7359088 C 28.293975,8.1122285 27.934747,8.589636 27.797913,8.7968143 27.649361,9.0217316 27.437097,9.2464292 27.271081,9.354504 26.874369,9.6127607 26.48656,9.9572678 26.295223,10.2214 l -0.165002,0.227779 z"
       id="path35"
       transform="scale(0.26458333)" />
    <path
       style="fill:#333333;fill-rule:evenodd;stroke:#282828;stroke-width:0.0250457;stroke-linecap:round;stroke-opacity:1"
       d="m 23.643505,4.6294894 c -0.857031,-0.4002892 -0.556994,-1.7107881 0.391784,-1.7112283 0.688352,-3.195e-4 1.159139,0.793606 0.789744,1.3318085 -0.309917,0.4515428 -0.734911,0.5880195 -1.181528,0.3794198 z"
       id="path36"
       transform="scale(0.26458333)" />
    <path
       style="fill:#333333;fill-rule:evenodd;stroke:#282828;stroke-width:0.0250457;stroke-linecap:round;stroke-opacity:1"
       d="M 25.904486,9.9462656 C 25.569016,9.3463881 25.236613,8.9642867 24.789012,8.6640142 24.23675,8.2935309 23.994028,8.2894867 23.453339,8.6417596 22.997114,8.9390022 22.664033,9.3008289 22.330958,9.8610069 L 22.088745,10.26837 21.543255,9.7869488 C 21.243236,9.5221671 20.888398,9.2440592 20.754725,9.1689311 20.58263,9.0722081 20.299044,8.7517017 19.783233,8.0709604 19.147633,7.232128 19.076378,7.1153898 19.224215,7.155116 c 0.09319,0.025041 0.456691,0.042905 0.807783,0.039698 1.107714,-0.01012 2.255617,-0.4031751 3.471555,-1.1887004 l 0.522991,-0.3378648 0.419334,0.2717645 c 0.535163,0.3468322 1.465989,0.8146809 1.951961,0.9810889 0.555562,0.1902368 1.153345,0.2656013 1.924928,0.2426821 l 0.685265,-0.020355 -0.434534,0.5471563 C 28.334504,7.9915215 27.996726,8.4339974 27.82288,8.6738652 27.624953,8.9469583 27.348789,9.227124 27.084111,9.4233381 26.851634,9.5956803 26.540167,9.8715566 26.391961,10.036397 l -0.269464,0.299709 z"
       id="path37"
       transform="scale(0.26458333)" />
    <path
       style="fill:#333333;fill-rule:evenodd;stroke:#282828;stroke-width:0.0250457;stroke-linecap:round;stroke-opacity:1"
       d="m 21.460683,29.535759 c -1.233575,-0.07258 -3.486766,-0.264079 -3.522028,-0.29934 -0.01568,-0.01568 0.03843,-0.355873 0.120241,-0.755976 0.08182,-0.400105 0.368794,-2.054317 0.637729,-3.676027 0.935335,-5.640169 1.358679,-7.377336 2.159239,-8.860314 0.148745,-0.27554 0.269738,-0.535439 0.268873,-0.577554 -8.65e-4,-0.04211 -0.567196,-0.473259 -1.258512,-0.9581 -2.109351,-1.479353 -2.631301,-1.88917 -2.951321,-2.317276 -0.639842,-0.85595 -1.003146,-1.881391 -0.934451,-2.6375282 0.04063,-0.4471905 0.145279,-0.7599392 0.254289,-0.7599392 0.163273,0 0.849131,0.5874026 1.152569,0.9871165 0.171003,0.2252595 0.47056,0.7108609 0.665683,1.0791139 0.195123,0.368253 0.389523,0.669551 0.432001,0.669551 0.08915,0 0.128644,-0.224978 0.181412,-1.033518 0.04834,-0.7406585 0.115473,-0.9933049 0.3268,-1.2298208 l 0.171142,-0.1915419 0.316512,0.1315362 c 0.954182,0.3965405 1.980568,1.2180515 2.314091,1.8521815 0.08354,0.158828 0.193137,0.288777 0.243558,0.288777 0.05263,0 0.290902,-0.332167 0.559439,-0.779893 0.526571,-0.8779399 0.847024,-1.2439299 1.242223,-1.4187451 l 0.270666,-0.1197287 0.270744,0.1310648 c 0.381328,0.1845977 0.781586,0.6644484 1.263183,1.514371 0.228131,0.402605 0.437542,0.746075 0.465358,0.763266 0.02782,0.01719 0.138641,-0.124785 0.246276,-0.315504 0.403961,-0.715781 1.108551,-1.2962844 2.202649,-1.8147369 0.539085,-0.2554526 0.590674,-0.2426965 0.784265,0.193923 0.114968,0.259294 0.230615,1.1246969 0.232468,1.7395919 0.0014,0.477118 0.117531,0.459528 0.401251,-0.06079 0.500393,-0.917693 0.713725,-1.2453529 1.04091,-1.5987513 0.365479,-0.3947606 0.80085,-0.7266629 0.953197,-0.7266629 0.218712,0 0.296829,1.0758254 0.125988,1.7350872 -0.05164,0.19929 -0.20591,0.594886 -0.342814,0.879104 -0.356187,0.739455 -0.913746,1.272319 -2.511852,2.400594 -1.698012,1.198809 -2.158999,1.543156 -2.196422,1.640678 -0.0172,0.04482 0.03505,0.186621 0.116112,0.315122 0.39726,0.629768 0.849013,1.883877 1.201035,3.334191 0.290973,1.198793 0.468474,2.182287 1.058829,5.86673 0.254487,1.588273 0.527396,3.216063 0.606464,3.617311 0.07907,0.401248 0.137364,0.73648 0.129548,0.74496 -0.02716,0.02946 -2.077306,0.19382 -3.195384,0.256167 -1.31016,0.07306 -4.189868,0.06851 -5.50196,-0.0087 z m 5.916363,-11.190797 c 0.02377,-0.206552 -0.03905,-0.233576 -0.900764,-0.387537 -0.549772,-0.09823 -0.942039,-0.113501 -2.826974,-0.110082 -2.653911,0.0048 -3.068292,0.05765 -3.068292,0.391198 0,0.252806 0.06516,0.26572 0.888795,0.17615 1.061423,-0.115431 3.872316,-0.101221 4.580905,0.02316 0.284218,0.04989 0.694585,0.08701 0.911927,0.08249 0.383547,-0.008 0.395734,-0.01313 0.414403,-0.175374 z"
       id="path38"
       transform="scale(0.26458333)" />
    <path
       style="fill:#333333;fill-rule:evenodd;stroke:#282828;stroke-width:0.0250457;stroke-linecap:round;stroke-opacity:1"
       d="m 20.305576,31.185183 c -1.546207,-0.119655 -2.709067,-0.349842 -3.013764,-0.596571 l -0.138018,-0.11176 0.208,-0.290256 0.208001,-0.290255 0.486361,0.03659 c 2.011324,0.151315 3.052541,0.170415 7.204223,0.132149 2.424207,-0.02234 4.574576,-0.04559 4.7786,-0.05165 0.39526,-0.01175 0.619048,0.06944 0.744319,0.270029 0.247625,0.39651 -0.274909,0.614065 -1.966403,0.818705 -0.690154,0.0835 -1.512294,0.105979 -4.346852,0.118873 -1.922647,0.0087 -3.796657,-0.0074 -4.164467,-0.03585 z"
       id="path39"
       transform="scale(0.26458333)" />
    <path
       style="fill:#333333;fill-rule:evenodd;stroke:#282828;stroke-width:0.0250457;stroke-linecap:round;stroke-opacity:1"
       d="m 21.51844,33.009931 c -0.87652,-0.07216 -1.17871,-0.158875 -1.809401,-0.519195 -0.321321,-0.183573 -0.769954,-0.403658 -0.996961,-0.489077 -0.227008,-0.08542 -0.426421,-0.170428 -0.443139,-0.188908 -0.01672,-0.01848 0.188465,-0.0163 0.455963,0.0048 2.996248,0.236853 8.838478,0.225077 10.820395,-0.02181 0.233435,-0.02908 0.431443,-0.04585 0.440019,-0.03728 0.0086,0.0086 -0.141379,0.07861 -0.333233,0.155626 -0.191855,0.07702 -0.704478,0.311382 -1.139164,0.52081 -0.434685,0.209427 -0.940804,0.41091 -1.12471,0.447741 -0.819958,0.164211 -4.461827,0.24316 -5.869769,0.127246 z"
       id="path40"
       transform="scale(0.26458333)" />
    <path
       style="fill:#333333;fill-rule:evenodd;stroke:#282828;stroke-width:0.0250457;stroke-linecap:round;stroke-opacity:1"
       d="m 20.062395,40.17848 c -0.815912,-0.100694 -3.288709,-0.488787 -4.073274,-0.63928 -0.525208,-0.100744 -0.861718,-0.198598 -1.00312,-0.291699 -0.289437,-0.19057 -1.803093,-1.649471 -2.016554,-1.943607 -0.225798,-0.311137 -0.219644,-0.540036 0.02551,-0.949053 0.377954,-0.630573 0.347039,-0.619021 4.970002,-1.857089 0.691869,-0.185288 1.17498,-0.355695 1.557002,-0.549198 l 0.553882,-0.280555 1.209177,0.07452 c 1.431801,0.08824 5.521612,0.04739 6.239246,-0.06231 l 0.470434,-0.07191 0.311084,0.228357 c 0.41878,0.307412 0.754778,0.421176 3.142995,1.064174 1.127136,0.303468 2.235177,0.615793 2.462315,0.694057 0.479533,0.165231 0.863572,0.457631 1.130665,0.860868 0.347929,0.525277 0.25099,0.755852 -0.699082,1.662809 -0.992301,0.947268 -1.309283,1.196487 -1.650041,1.297295 -0.382642,0.113199 -2.551702,0.485487 -3.571769,0.613042 -0.401248,0.05017 -1.148925,0.119636 -1.661504,0.154359 -1.101671,0.07463 -6.783298,0.07097 -7.396972,-0.0048 z"
       id="path41"
       transform="scale(0.26458333)" />
    <path
       style="fill:#333333;fill-rule:evenodd;stroke:#282828;stroke-width:0.0250457;stroke-linecap:round;stroke-opacity:1"
       d="m 20.943925,44.947152 c -3.618102,-0.370529 -6.679901,-0.911681 -9.392849,-1.660125 -1.264227,-0.348773 -1.192301,-0.302794 -0.874559,-0.559059 0.59741,-0.481822 2.542043,-1.708682 3.593639,-2.26721 l 0.59125,-0.314027 1.414989,0.232413 c 3.492818,0.573699 4.568241,0.669231 7.494504,0.665754 3.254975,-0.0039 4.478679,-0.100545 7.695435,-0.607968 l 1.798307,-0.283672 1.651941,1.034482 c 1.647857,1.031925 2.624415,1.697081 2.624415,1.787548 0,0.130994 -2.883086,0.893036 -4.711623,1.245351 -2.101355,0.40488 -3.716731,0.609673 -5.562755,0.705232 -1.087021,0.05627 -5.82531,0.07222 -6.322694,0.02128 z"
       id="path42"
       transform="scale(0.26458333)" />
  </g>
  <metadata
     id="metadata1">
    <rdf:RDF>
      <cc:License
         rdf:about="http://creativecommons.org/licenses/by-sa/4.0/">
        <cc:permits
           rdf:resource="http://creativecommons.org/ns#Reproduction" />
        <cc:permits
           rdf:resource="http://creativecommons.org/ns#Distribution" />
        <cc:requires
           rdf:resource="http://creativecommons.org/ns#Notice" />
        <cc:requires
           rdf:resource="http://creativecommons.org/ns#Attribution" />
        <cc:permits
           rdf:resource="http://creativecommons.org/ns#DerivativeWorks" />
        <cc:requires
           rdf:resource="http://creativecommons.org/ns#ShareAlike" />
      </cc:License>
      <cc:Work
         rdf:about="">
        <cc:license
           rdf:resource="http://creativecommons.org/licenses/by-sa/4.0/" />
        <dc:creator>
          <cc:Agent>
            <dc:title>Curtis Walker</dc:title>
          </cc:Agent>
        </dc:creator>
      </cc:Work>
    </rdf:RDF>
  </metadata>
</svg>
