<?xml version="1.0" encoding="UTF-8" standalone="no"?>
<!-- Created with Inkscape (http://www.inkscape.org/) -->

<svg
   width="48"
   height="48"
   viewBox="0 0 12.7 12.7"
   version="1.1"
   id="svg1"
   inkscape:version="1.3 (0e150ed6c4, 2023-07-21)"
   sodipodi:docname="bRook.svg"
   xmlns:inkscape="http://www.inkscape.org/namespaces/inkscape"
   xmlns:sodipodi="http://sodipodi.sourceforge.net/DTD/sodipodi-0.dtd"
   xmlns="http://www.w3.org/2000/svg"
   xmlns:svg="http://www.w3.org/2000/svg"
   xmlns:rdf="http://www.w3.org/1999/02/22-rdf-syntax-ns#"
   xmlns:cc="http://creativecommons.org/ns#"
   xmlns:dc="http://purl.org/dc/elements/1.1/">
  <sodipodi:namedview
     id="namedview1"
     pagecolor="#505050"
     bordercolor="#eeeeee"
     borderopacity="1"
     inkscape:showpageshadow="0"
     inkscape:pageopacity="0"
     inkscape:pagecheckerboard="0"
     inkscape:deskcolor="#d1d1d1"
     inkscape:document-units="mm"
     inkscape:zoom="16.448684"
     inkscape:cx="28.087353"
     inkscape:cy="24.287657"
     inkscape:window-width="1920"
     inkscape:window-height="1011"
     inkscape:window-x="0"
     inkscape:window-y="0"
     inkscape:window-maximized="1"
     inkscape:current-layer="layer1" />
  <defs
     id="defs1">
    <inkscape:path-effect
       effect="mirror_symmetry"
       start_point="6.3577583,1.622602"
       end_point="6.3577583,3.0813944"
       center_point="6.3577583,2.3519982"
       id="path-effect10"
       is_visible="true"
       lpeversion="1.2"
       lpesatellites=""
       mode="free"
       discard_orig_path="false"
       fuse_paths="false"
       oposite_fuse="false"
       split_items="false"
       split_open="false"
       link_styles="false" />
    <inkscape:path-effect
       effect="mirror_symmetry"
       start_point="6.35,0.38214236"
       end_point="6.35,1.3832394"
       center_point="6.35,0.88269088"
       id="path-effect9"
       is_visible="true"
       lpeversion="1.2"
       lpesatellites=""
       mode="free"
       discard_orig_path="false"
       fuse_paths="false"
       oposite_fuse="false"
       split_items="false"
       split_open="false"
       link_styles="false" />
    <inkscape:path-effect
       effect="mirror_symmetry"
       start_point="6.5883282,1.7801991"
       end_point="6.5883282,3.9917237"
       center_point="6.5883282,2.8859614"
       id="path-effect8"
       is_visible="true"
       lpeversion="1.2"
       lpesatellites=""
       mode="free"
       discard_orig_path="false"
       fuse_paths="false"
       oposite_fuse="false"
       split_items="false"
       split_open="false"
       link_styles="false" />
    <inkscape:path-effect
       effect="mirror_symmetry"
       start_point="6.8275181,4.7868426"
       end_point="6.8062803,12.273485"
       center_point="6.8168992,8.5301638"
       id="path-effect1"
       is_visible="true"
       lpeversion="1.2"
       lpesatellites=""
       mode="free"
       discard_orig_path="false"
       fuse_paths="false"
       oposite_fuse="false"
       split_items="false"
       split_open="false"
       link_styles="false" />
  </defs>
  <g
     inkscape:label="Layer 1"
     inkscape:groupmode="layer"
     id="layer1">
    <path
       id="path1"
       style="fill:none;fill-opacity:1;fill-rule:evenodd;stroke:#282828;stroke-width:0.1;stroke-linecap:round;stroke-dasharray:none;stroke-opacity:1"
       inkscape:path-effect="#path-effect1"
       inkscape:original-d="m 7.0448778,3.3424316 0.3364402,0.015943 0.055297,0.490222 0.5011184,-0.027837 0.081883,-0.4641799 0.3873735,-0.02115 c 0.3915382,0.023141 0.4935094,-0.024828 0.5507442,0.034005 0.034453,0.035415 0.01966,0.5561004 -0.0094,0.8253879 0.017611,0.6318646 0.2136795,1.5584169 -0.1850529,1.5027734 -0.1759585,0.8718581 -0.5264961,2.0696059 -0.2359571,3.0943928 0.3467394,0.2392437 0.2249575,0.368207 0,0.472885 C 8.648337,9.4634336 8.3996407,9.5286745 8.1358088,9.588457 7.8713712,9.7081129 7.9060772,9.8277687 8.1447288,9.9474246 l 1.408413,0.3585284 c 0.3746077,0.253193 0.5413452,0.532458 0,0.90053 -0.1778342,0.143847 -0.4230073,0.284709 -0.010305,0.454726 l 0.8099872,0.490227 c 0.0847,0.117534 0.337613,0.243207 0.01684,0.341123"
       d="m 7.0448778,3.3424316 0.3364402,0.015943 0.055297,0.490222 0.5011184,-0.027837 0.081883,-0.4641799 0.3873735,-0.02115 c 0.3915382,0.023141 0.4935094,-0.024828 0.5507442,0.034005 0.034453,0.035415 0.01966,0.5561004 -0.0094,0.8253879 0.017611,0.6318646 0.2136795,1.5584169 -0.1850529,1.5027734 -0.1759585,0.8718581 -0.5264961,2.0696059 -0.2359571,3.0943928 0.3467394,0.2392437 0.2249575,0.368207 0,0.472885 C 8.648337,9.4634336 8.3996407,9.5286745 8.1358088,9.588457 7.8713712,9.7081129 7.9060772,9.8277687 8.1447288,9.9474246 l 1.408413,0.3585284 c 0.3746077,0.253193 0.5413452,0.532458 0,0.90053 -0.1778342,0.143847 -0.4230073,0.284709 -0.010305,0.454726 l 0.8099872,0.490227 c 0.0847,0.117534 0.337613,0.243207 0.01684,0.341123 M 6.6183567,3.3412217 6.2818315,3.3552556 6.2237541,3.845156 5.7228017,3.8144764 5.6435535,3.3498394 5.2563063,3.326492 C 4.8646431,3.3474112 4.7629457,3.2988645 4.705378,3.3573718 4.6707246,3.3925908 4.6825633,3.9133517 4.710095,4.1827997 4.6888995,4.8145543 4.4875773,5.7399793 4.886619,5.6865988 5.0576282,6.5594412 5.4013648,7.7591585 5.1050164,8.7822805 4.7569252,9.0195532 4.8779735,9.1492053 5.1023335,9.2551579 4.980196,9.453028 5.2285182,9.5196788 5.4920066,9.5809572 5.7557611,9.7021114 5.7203768,9.8215684 5.4810502,9.9398684 L 4.0706257,10.2904 c -0.3760381,0.251064 -0.5443573,0.529379 -0.00511,0.900516 0.1770152,0.144854 0.4213852,0.287104 0.00773,0.454777 l -0.8127555,0.485624 c -0.085365,0.117051 -0.3389874,0.241287 -0.018775,0.341022"
       sodipodi:nodetypes="ccccccsccccccccccc"
       transform="translate(-0.45602208,-0.98158515)" />
    <path
       style="fill:none;fill-opacity:1;fill-rule:evenodd;stroke:#282828;stroke-width:0.1;stroke-linecap:round;stroke-dasharray:none;stroke-opacity:1"
       d="M 7.189927,4.8547845 C 6.5894835,4.7348459 6.0379152,4.7479319 5.510073,4.8255942"
       id="path2"
       sodipodi:nodetypes="cc" />
    <path
       style="fill:none;fill-opacity:1;fill-rule:evenodd;stroke:#282828;stroke-width:0.1;stroke-linecap:round;stroke-dasharray:none;stroke-opacity:1"
       d="M 4.6388458,7.8006857 C 5.7121933,7.9159566 6.829881,7.957548 8.0611542,7.8103957"
       id="path3"
       sodipodi:nodetypes="cc" />
    <path
       style="fill:none;fill-opacity:1;fill-rule:evenodd;stroke:#282828;stroke-width:0.1;stroke-linecap:round;stroke-dasharray:none;stroke-opacity:1"
       d="m 4.6375044,8.2735631 c 1.1786521,0.1592944 2.3180041,0.1527809 3.4249912,0.00972"
       id="path4"
       sodipodi:nodetypes="cc" />
    <path
       style="fill:none;fill-opacity:1;fill-rule:evenodd;stroke:#282828;stroke-width:0.1;stroke-linecap:round;stroke-dasharray:none;stroke-opacity:1"
       d="m 5.2121267,8.7742783 c 0.8000716,0.1434733 1.5534436,0.1261988 2.2757466,0.00198"
       id="path5"
       sodipodi:nodetypes="cc" />
    <path
       style="fill:none;fill-opacity:1;fill-rule:evenodd;stroke:#282828;stroke-width:0.1;stroke-linecap:round;stroke-dasharray:none;stroke-opacity:1"
       d="m 3.8407062,10.482806 c 1.7550124,0.42468 3.4153312,0.366705 5.0185875,0.01788"
       id="path6"
       sodipodi:nodetypes="cc" />
    <path
       style="fill:none;fill-opacity:1;fill-rule:evenodd;stroke:#282828;stroke-width:0.1;stroke-linecap:round;stroke-dasharray:none;stroke-opacity:1"
       d="M 9.9136418,11.510974 C 7.5737068,12.2157 5.1965844,12.186471 2.7856931,11.490754 v 0"
       id="path7"
       sodipodi:nodetypes="ccc" />
    <path
       style="fill:#333333;fill-rule:evenodd;stroke:#282828;stroke-width:0.109;stroke-linecap:round"
       d="M 6.6012991,2.3578336 6.1794138,2.3491254"
       id="path23"
       sodipodi:nodetypes="cc" />
    <path
       style="fill:#cccccc;fill-rule:evenodd;stroke:#282828;stroke-width:0.0250457;stroke-linecap:round"
       d="m 21.795057,45.165648 c -3.265923,-0.183847 -6.797619,-0.758069 -10.104613,-1.642917 -1.111643,-0.297441 -1.537656,-0.446756 -1.537656,-0.538937 0,-0.02492 0.111484,-0.171961 0.247742,-0.326758 0.183928,-0.208954 0.649802,-0.522443 1.808655,-1.217055 0.858502,-0.514582 1.684024,-0.996603 1.834492,-1.071156 0.150468,-0.07455 0.35676,-0.214488 0.458427,-0.310966 l 0.184849,-0.175414 0.818271,0.179372 c 5.364107,1.175857 11.038777,1.195585 16.927393,0.05885 l 0.910339,-0.175732 0.183974,0.174566 c 0.101185,0.09601 0.307084,0.235809 0.457552,0.310661 0.150468,0.07485 0.944197,0.542197 1.763844,1.038547 1.601185,0.969623 2.157915,1.414487 2.028699,1.621065 -0.07907,0.126411 -0.940656,0.395459 -2.576641,0.804609 -4.311412,1.07826 -8.975912,1.520607 -13.405327,1.271265 z"
       id="path24"
       transform="scale(0.26458333)" />
    <path
       style="fill:#cccccc;fill-rule:evenodd;stroke:#282828;stroke-width:0.0250457;stroke-linecap:round"
       d="M 22.585393,40.51385 C 19.864672,40.375405 17.353868,40.053345 15.289337,39.577986 14.76888,39.45815 14.735504,39.440642 14.62059,39.227173 c -0.07399,-0.13744 -0.414279,-0.461215 -0.876377,-0.833839 -0.884258,-0.713041 -1.15962,-1.062803 -1.15962,-1.472937 0,-0.354691 0.125072,-0.608327 0.475001,-0.96327 0.5191,-0.526537 0.538884,-0.533814 3.301139,-1.214149 1.417324,-0.349082 2.692201,-0.689056 2.833061,-0.755498 0.140859,-0.06644 0.363338,-0.217678 0.494397,-0.336082 l 0.238289,-0.21528 0.934289,0.126598 c 1.810794,0.245365 4.562876,0.228498 6.570433,-0.04027 l 0.711738,-0.09528 0.179309,0.202665 c 0.09862,0.111466 0.298136,0.264448 0.443369,0.33996 0.145233,0.07551 1.125831,0.356022 2.179107,0.623356 3.669337,0.931324 3.33151,0.82726 3.744195,1.153351 0.507248,0.400811 0.754645,0.784563 0.754645,1.170573 0,0.49841 -0.23872,0.818665 -1.113765,1.494175 -0.650255,0.501977 -1.014065,0.866668 -1.014065,1.016519 0,0.04899 -0.023,0.08908 -0.05111,0.08908 -0.02811,0 -0.308529,0.05356 -0.62315,0.119024 -1.629296,0.339007 -3.568122,0.610323 -5.435651,0.760655 -1.099339,0.0885 -3.826275,0.157743 -4.620431,0.117332 z"
       id="path25"
       transform="scale(0.26458333)" />
    <path
       style="fill:#cccccc;fill-rule:evenodd;stroke:#282828;stroke-width:0.0250457;stroke-linecap:round"
       d="m 22.281418,33.272947 c -0.167187,-0.01148 -0.753723,-0.07698 -1.303414,-0.145554 l -0.999437,-0.124682 -0.226755,-0.257607 c -0.252825,-0.287224 -0.437211,-0.378243 -1.257077,-0.620533 -0.592388,-0.175065 -0.890808,-0.370878 -0.825317,-0.541545 0.02071,-0.05397 0.07365,-0.08432 0.117639,-0.06744 0.04399,0.01688 0.635492,0.0861 1.314449,0.15383 3.69756,0.368831 7.214931,0.337676 10.982296,-0.09728 0.316261,-0.03651 0.324056,-0.03374 0.303976,0.108321 -0.02494,0.176437 -0.49556,0.425662 -1.015938,0.538006 -0.446976,0.0965 -0.772036,0.263167 -1.071704,0.5495 -0.236631,0.226102 -0.262828,0.23493 -0.972722,0.327792 -1.268713,0.165963 -2.151115,0.219027 -3.465323,0.208393 -0.702183,-0.0057 -1.413487,-0.01972 -1.580673,-0.0312 z"
       id="path26"
       transform="scale(0.26458333)" />
    <path
       style="fill:#cccccc;fill-rule:evenodd;stroke:#282828;stroke-width:0.0250457;stroke-linecap:round"
       d="m 21.947045,31.451582 c -2.040262,-0.108654 -4.230594,-0.337744 -4.484491,-0.469039 -0.242244,-0.12527 -0.500711,-0.400234 -0.500711,-0.532671 0,-0.06243 0.135649,-0.254235 0.301441,-0.426242 l 0.301441,-0.312739 0.4433,0.04147 c 2.910687,0.272267 5.042403,0.365939 7.31315,0.321355 1.693961,-0.03326 3.566627,-0.146744 4.650828,-0.281842 0.446505,-0.05564 0.460377,-0.05329 0.668746,0.112898 0.216574,0.172737 0.486361,0.52298 0.486361,0.631402 0,0.106442 -0.41777,0.45741 -0.622119,0.52264 -0.266287,0.085 -2.422597,0.294801 -3.815926,0.371272 -1.005213,0.05517 -3.8662,0.06814 -4.74202,0.0215 z"
       id="path27"
       transform="scale(0.26458333)" />
    <path
       style="fill:#cccccc;fill-rule:evenodd;stroke:#282828;stroke-width:0.0250457;stroke-linecap:round"
       d="m 21.855852,29.60071 c -1.063034,-0.05038 -3.176471,-0.208245 -3.699182,-0.276309 -0.292213,-0.03805 -0.294324,-0.03993 -0.254854,-0.227341 0.402132,-1.909346 0.41981,-3.696738 0.06101,-6.168071 -0.127596,-0.87884 -0.938331,-5.039178 -1.029549,-5.2832 -0.01562,-0.0418 -0.126325,-0.07599 -0.246002,-0.07599 -0.64711,0 -0.760471,-0.834963 -0.513217,-3.780123 0.108062,-1.28717 0.116209,-1.636117 0.06291,-2.694559 -0.06004,-1.1923438 -0.03658,-1.9123848 0.06448,-1.9789395 0.06106,-0.040213 2.826901,-0.013297 3.001752,0.029211 0.106036,0.025778 0.141172,0.1413347 0.26377,0.8674725 0.07779,0.460752 0.151908,0.854673 0.164705,0.875378 0.0128,0.02071 0.413899,0.05603 0.891338,0.0785 0.477439,0.02247 0.980534,0.05624 1.117988,0.07505 l 0.249918,0.0342 0.107793,-0.942306 0.107793,-0.9423071 0.767,-0.044606 c 0.738295,-0.042936 2.917597,0.00541 2.978257,0.066066 0.01622,0.016223 0.07545,0.4265399 0.131611,0.9118161 0.05616,0.485275 0.116155,0.896358 0.133313,0.913517 0.03486,0.03486 2.189529,-0.08966 2.228659,-0.128787 0.01367,-0.01367 0.09156,-0.401523 0.173089,-0.861887 0.08152,-0.4603648 0.1607,-0.8495953 0.175944,-0.864957 0.01525,-0.015362 0.731012,-0.02904 1.590594,-0.030397 l 1.562876,-0.00247 -0.0043,1.094313 c -0.0024,0.601871 -0.01157,1.436285 -0.02046,1.854251 -0.0089,0.417967 0.03024,1.317821 0.08695,1.999676 0.124654,1.498633 0.101931,2.769288 -0.05628,3.147149 -0.112797,0.269394 -0.320409,0.401975 -0.582593,0.372042 -0.143616,-0.0164 -0.154058,0.0106 -0.346152,0.89502 -0.757882,3.489365 -1.006967,4.984375 -1.118917,6.715772 -0.0772,1.193923 -0.0043,2.531382 0.189621,3.477777 0.06365,0.310669 0.09605,0.582994 0.072,0.605166 -0.06582,0.06068 -2.061074,0.227539 -3.539446,0.295993 -1.477449,0.06841 -3.247781,0.06614 -4.772418,-0.0061 z m 5.495579,-11.16786 c 0.03228,-0.06032 0.03687,-0.144971 0.01021,-0.188118 -0.205095,-0.33185 -4.004206,-0.538196 -5.840159,-0.317204 -0.775975,0.0934 -0.911927,0.139638 -0.911927,0.310131 0,0.199741 0.155415,0.223994 0.837227,0.130651 0.448625,-0.06142 1.183687,-0.08867 2.354517,-0.0873 1.425097,0.0017 1.816101,0.02187 2.401408,0.124015 0.919679,0.160498 1.075698,0.164277 1.148727,0.02782 z"
       id="path28"
       transform="scale(0.26458333)" />
    <path
       style="fill:#333333;fill-rule:evenodd;stroke:#282828;stroke-width:0.0250457;stroke-linecap:round"
       d="m 21.947045,45.134409 c -0.150468,-0.01247 -0.670267,-0.05212 -1.155108,-0.08809 -1.818263,-0.134929 -4.247162,-0.486277 -6.292297,-0.9102 -1.577673,-0.327026 -3.783676,-0.901198 -4.119352,-1.072173 l -0.167668,-0.0854 0.135282,-0.182979 c 0.214695,-0.29039 1.401616,-1.057441 3.422197,-2.211605 0.334373,-0.190995 0.678966,-0.414555 0.765762,-0.4968 l 0.157811,-0.149535 1.200867,0.245744 c 2.595536,0.531149 4.497117,0.732318 7.331429,0.775593 3.337346,0.05096 5.701311,-0.151089 9.110411,-0.778657 l 0.996486,-0.183439 0.158622,0.148976 c 0.08724,0.08194 0.568989,0.388091 1.070548,0.680345 2.177942,1.269065 3.273569,2.035194 3.164008,2.212469 -0.06735,0.108977 -0.431706,0.240447 -1.4509,0.52353 -2.497397,0.693657 -5.243174,1.187366 -8.126994,1.46129 -0.938433,0.08914 -5.483231,0.170444 -6.201104,0.110936 z"
       id="path29"
       transform="scale(0.26458333)" />
    <path
       style="fill:#333333;fill-rule:evenodd;stroke:#282828;stroke-width:0.0250457;stroke-linecap:round"
       d="M 22.099032,40.45292 C 19.1162,40.215369 17.353758,39.98297 15.62435,39.599156 14.812195,39.418911 14.820928,39.422744 14.6287,39.162193 c -0.08083,-0.109555 -0.468764,-0.478105 -0.862082,-0.819001 -0.917254,-0.795 -1.069464,-0.983991 -1.106985,-1.374485 -0.02391,-0.248857 -0.0012,-0.351163 0.125989,-0.568245 0.206757,-0.352805 0.648384,-0.751738 1.001518,-0.904698 0.157814,-0.06836 1.403069,-0.408338 2.767234,-0.755512 1.364165,-0.347174 2.57187,-0.674679 2.683789,-0.727787 0.111919,-0.05311 0.316774,-0.193531 0.455235,-0.312048 l 0.251747,-0.215486 0.803365,0.102311 c 1.801971,0.229486 4.565279,0.228616 6.501759,-0.002 l 0.834782,-0.09943 0.279374,0.245914 c 0.354637,0.312164 0.658476,0.412689 3.249046,1.07495 2.735867,0.699404 2.724685,0.69544 3.190009,1.130728 0.571686,0.534784 0.70957,0.945953 0.479682,1.430406 -0.09747,0.205394 -0.630375,0.721021 -1.420271,1.374212 -0.217342,0.179728 -0.458478,0.420758 -0.535856,0.535624 -0.139516,0.207104 -0.149151,0.210457 -1.155108,0.40191 -1.682482,0.320209 -3.512871,0.561354 -5.209284,0.686299 -0.900447,0.06632 -4.34909,0.128091 -4.863611,0.08712 z"
       id="path30"
       transform="scale(0.26458333)" />
    <path
       style="fill:#333333;fill-rule:evenodd;stroke:#282828;stroke-width:0.0250457;stroke-linecap:round"
       d="m 22.068635,33.215605 c -0.117031,-0.0148 -0.619643,-0.07798 -1.116916,-0.140388 l -0.904133,-0.113471 -0.250975,-0.24196 c -0.303122,-0.292235 -0.444308,-0.364343 -1.205332,-0.6156 -0.591937,-0.195432 -0.951714,-0.402844 -0.858634,-0.495005 0.02746,-0.02719 0.241437,-0.02533 0.475499,0.0041 3.399721,0.427963 7.238212,0.457015 11.051442,0.08364 0.561135,-0.05494 1.039896,-0.08007 1.063915,-0.05584 0.08284,0.08357 -0.31414,0.329398 -0.742588,0.459841 -0.784034,0.238704 -0.923404,0.302967 -1.236314,0.570062 -0.336709,0.287409 -0.375315,0.299022 -1.462124,0.439831 -0.685394,0.0888 -4.315506,0.167799 -4.81384,0.104759 z"
       id="path31"
       transform="scale(0.26458333)" />
    <path
       style="fill:#333333;fill-rule:evenodd;stroke:#282828;stroke-width:0.0250457;stroke-linecap:round"
       d="m 21.551876,31.393078 c -2.361465,-0.17894 -3.848675,-0.346344 -4.06551,-0.457621 -0.19959,-0.102428 -0.463728,-0.368267 -0.463728,-0.466714 0,-0.15236 0.535618,-0.731009 0.653416,-0.705912 0.154161,0.03284 2.244357,0.196672 3.450256,0.270428 2.253348,0.137822 6.261466,0.06379 8.383933,-0.154854 0.817513,-0.08422 0.851752,-0.08312 1.040264,0.03339 0.107211,0.06626 0.271533,0.231013 0.365161,0.366119 l 0.170233,0.245646 -0.202994,0.209437 c -0.303791,0.313433 -0.443688,0.341614 -2.746052,0.553163 -0.989991,0.09096 -5.771068,0.168592 -6.584979,0.106918 z"
       id="path32"
       transform="scale(0.26458333)" />
    <path
       style="fill:#333333;fill-rule:evenodd;stroke:#282828;stroke-width:0.0250457;stroke-linecap:round"
       d="m 22.038237,29.569839 c -2.575034,-0.159836 -4.016914,-0.28115 -4.078949,-0.343186 -0.01426,-0.01425 0.03248,-0.351662 0.10385,-0.749795 0.259309,-1.446498 0.216354,-3.919126 -0.10129,-5.830669 -0.256706,-1.544824 -0.96414,-4.971049 -1.042604,-5.049514 -0.04822,-0.04822 -0.163026,-0.08768 -0.255122,-0.08768 -0.222784,0 -0.409729,-0.209856 -0.487422,-0.547157 -0.09151,-0.397282 -0.0798,-1.61987 0.02853,-2.978961 0.06474,-0.812156 0.08866,-1.746161 0.07598,-2.965769 -0.01591,-1.530005 -0.0057,-1.788396 0.07268,-1.8381215 0.106853,-0.067795 0.98,-0.075944 2.145908,-0.020028 l 0.82764,0.039693 0.05751,0.1649836 c 0.03163,0.090741 0.104812,0.4532057 0.162621,0.8054769 0.05781,0.352271 0.12429,0.671532 0.147736,0.709468 0.03779,0.06115 0.316226,0.08787 2.097018,0.201222 l 0.240452,0.01531 0.104457,-0.902198 c 0.05745,-0.4962083 0.122481,-0.9202544 0.14451,-0.9423244 0.05998,-0.060086 3.05786,-0.082914 3.373277,-0.025687 0.310116,0.056266 0.270294,-0.058295 0.426084,1.2257564 l 0.07671,0.632245 1.040763,-0.04091 c 0.57242,-0.0225 1.099274,-0.05634 1.170788,-0.07521 0.114099,-0.0301 0.149112,-0.13506 0.285865,-0.856939 0.08571,-0.4524488 0.173061,-0.8399028 0.194107,-0.8610093 0.02105,-0.021106 0.720565,-0.046556 1.554485,-0.056554 l 1.516218,-0.018179 -0.01334,2.0548163 c -0.0083,1.276491 0.01732,2.450215 0.06759,3.098691 0.09742,1.256592 0.06437,2.566424 -0.07286,2.887716 -0.104421,0.244474 -0.257901,0.354465 -0.494613,0.354465 -0.08657,0 -0.179748,0.0484 -0.21308,0.11068 -0.07776,0.145293 -0.61396,2.649711 -0.880942,4.114583 -0.366226,2.009402 -0.431722,2.685455 -0.429955,4.438044 0.0015,1.503735 0.04071,1.976588 0.242523,2.925603 0.03189,0.149971 0.0435,0.148024 -1.794836,0.301272 -1.056251,0.08805 -5.417036,0.164191 -6.292297,0.109862 z m 5.36837,-11.216206 c 0.01456,-0.125423 -0.01715,-0.172487 -0.151988,-0.225601 -0.908607,-0.357903 -5.462033,-0.437727 -6.455671,-0.113171 -0.151042,0.04934 -0.225702,0.113278 -0.238682,0.204418 -0.03321,0.233191 0.163036,0.279394 0.827392,0.194795 0.869967,-0.110782 4.094948,-0.09411 4.723853,0.02441 0.267499,0.05041 0.664187,0.08761 0.88153,0.08265 0.377899,-0.0086 0.395972,-0.01594 0.413566,-0.167501 z"
       id="path33"
       transform="scale(0.26458333)" />
  </g>
  <metadata
     id="metadata1">
    <rdf:RDF>
      <cc:License
         rdf:about="http://creativecommons.org/licenses/by-sa/4.0/">
        <cc:permits
           rdf:resource="http://creativecommons.org/ns#Reproduction" />
        <cc:permits
           rdf:resource="http://creativecommons.org/ns#Distribution" />
        <cc:requires
           rdf:resource="http://creativecommons.org/ns#Notice" />
        <cc:requires
           rdf:resource="http://creativecommons.org/ns#Attribution" />
        <cc:permits
           rdf:resource="http://creativecommons.org/ns#DerivativeWorks" />
        <cc:requires
           rdf:resource="http://creativecommons.org/ns#ShareAlike" />
      </cc:License>
      <cc:Work
         rdf:about="">
        <cc:license
           rdf:resource="http://creativecommons.org/licenses/by-sa/4.0/" />
        <dc:creator>
          <cc:Agent>
            <dc:title>Curtis Walker</dc:title>
          </cc:Agent>
        </dc:creator>
      </cc:Work>
    </rdf:RDF>
  </metadata>
</svg>
