<?xml version="1.0" encoding="UTF-8" standalone="no"?>
<!-- Created with Inkscape (http://www.inkscape.org/) -->

<svg
   width="48"
   height="48"
   viewBox="0 0 12.7 12.7"
   version="1.1"
   id="svg1"
   inkscape:version="1.3 (0e150ed6c4, 2023-07-21)"
   sodipodi:docname="wRook.svg"
   xmlns:inkscape="http://www.inkscape.org/namespaces/inkscape"
   xmlns:sodipodi="http://sodipodi.sourceforge.net/DTD/sodipodi-0.dtd"
   xmlns="http://www.w3.org/2000/svg"
   xmlns:svg="http://www.w3.org/2000/svg"
   xmlns:rdf="http://www.w3.org/1999/02/22-rdf-syntax-ns#"
   xmlns:cc="http://creativecommons.org/ns#"
   xmlns:dc="http://purl.org/dc/elements/1.1/">
  <sodipodi:namedview
     id="namedview1"
     pagecolor="#505050"
     bordercolor="#eeeeee"
     borderopacity="1"
     inkscape:showpageshadow="0"
     inkscape:pageopacity="0"
     inkscape:pagecheckerboard="0"
     inkscape:deskcolor="#d1d1d1"
     inkscape:document-units="mm"
     inkscape:zoom="16.448684"
     inkscape:cx="28.087353"
     inkscape:cy="24.287657"
     inkscape:window-width="1366"
     inkscape:window-height="731"
     inkscape:window-x="0"
     inkscape:window-y="0"
     inkscape:window-maximized="1"
     inkscape:current-layer="layer1" />
  <defs
     id="defs1">
    <inkscape:path-effect
       effect="mirror_symmetry"
       start_point="6.3577583,1.622602"
       end_point="6.3577583,3.0813944"
       center_point="6.3577583,2.3519982"
       id="path-effect10"
       is_visible="true"
       lpeversion="1.2"
       lpesatellites=""
       mode="free"
       discard_orig_path="false"
       fuse_paths="false"
       oposite_fuse="false"
       split_items="false"
       split_open="false"
       link_styles="false" />
    <inkscape:path-effect
       effect="mirror_symmetry"
       start_point="6.35,0.38214236"
       end_point="6.35,1.3832394"
       center_point="6.35,0.88269088"
       id="path-effect9"
       is_visible="true"
       lpeversion="1.2"
       lpesatellites=""
       mode="free"
       discard_orig_path="false"
       fuse_paths="false"
       oposite_fuse="false"
       split_items="false"
       split_open="false"
       link_styles="false" />
    <inkscape:path-effect
       effect="mirror_symmetry"
       start_point="6.5883282,1.7801991"
       end_point="6.5883282,3.9917237"
       center_point="6.5883282,2.8859614"
       id="path-effect8"
       is_visible="true"
       lpeversion="1.2"
       lpesatellites=""
       mode="free"
       discard_orig_path="false"
       fuse_paths="false"
       oposite_fuse="false"
       split_items="false"
       split_open="false"
       link_styles="false" />
    <inkscape:path-effect
       effect="mirror_symmetry"
       start_point="6.8275181,4.7868426"
       end_point="6.8062803,12.273485"
       center_point="6.8168992,8.5301638"
       id="path-effect1"
       is_visible="true"
       lpeversion="1.2"
       lpesatellites=""
       mode="free"
       discard_orig_path="false"
       fuse_paths="false"
       oposite_fuse="false"
       split_items="false"
       split_open="false"
       link_styles="false" />
  </defs>
  <g
     inkscape:label="Layer 1"
     inkscape:groupmode="layer"
     id="layer1">
    <path
       id="path1"
       style="fill:none;fill-opacity:1;fill-rule:evenodd;stroke:#282828;stroke-width:0.1;stroke-linecap:round;stroke-dasharray:none;stroke-opacity:1"
       inkscape:path-effect="#path-effect1"
       inkscape:original-d="m 7.0448778,3.3424316 0.3364402,0.015943 0.055297,0.490222 0.5011184,-0.027837 0.081883,-0.4641799 0.3873735,-0.02115 c 0.3915382,0.023141 0.4935094,-0.024828 0.5507442,0.034005 0.034453,0.035415 0.01966,0.5561004 -0.0094,0.8253879 0.017611,0.6318646 0.2136795,1.5584169 -0.1850529,1.5027734 -0.1759585,0.8718581 -0.5264961,2.0696059 -0.2359571,3.0943928 0.3467394,0.2392437 0.2249575,0.368207 0,0.472885 C 8.648337,9.4634336 8.3996407,9.5286745 8.1358088,9.588457 7.8713712,9.7081129 7.9060772,9.8277687 8.1447288,9.9474246 l 1.408413,0.3585284 c 0.3746077,0.253193 0.5413452,0.532458 0,0.90053 -0.1778342,0.143847 -0.4230073,0.284709 -0.010305,0.454726 l 0.8099872,0.490227 c 0.0847,0.117534 0.337613,0.243207 0.01684,0.341123"
       d="m 7.0448778,3.3424316 0.3364402,0.015943 0.055297,0.490222 0.5011184,-0.027837 0.081883,-0.4641799 0.3873735,-0.02115 c 0.3915382,0.023141 0.4935094,-0.024828 0.5507442,0.034005 0.034453,0.035415 0.01966,0.5561004 -0.0094,0.8253879 0.017611,0.6318646 0.2136795,1.5584169 -0.1850529,1.5027734 -0.1759585,0.8718581 -0.5264961,2.0696059 -0.2359571,3.0943928 0.3467394,0.2392437 0.2249575,0.368207 0,0.472885 C 8.648337,9.4634336 8.3996407,9.5286745 8.1358088,9.588457 7.8713712,9.7081129 7.9060772,9.8277687 8.1447288,9.9474246 l 1.408413,0.3585284 c 0.3746077,0.253193 0.5413452,0.532458 0,0.90053 -0.1778342,0.143847 -0.4230073,0.284709 -0.010305,0.454726 l 0.8099872,0.490227 c 0.0847,0.117534 0.337613,0.243207 0.01684,0.341123 M 6.6183567,3.3412217 6.2818315,3.3552556 6.2237541,3.845156 5.7228017,3.8144764 5.6435535,3.3498394 5.2563063,3.326492 C 4.8646431,3.3474112 4.7629457,3.2988645 4.705378,3.3573718 4.6707246,3.3925908 4.6825633,3.9133517 4.710095,4.1827997 4.6888995,4.8145543 4.4875773,5.7399793 4.886619,5.6865988 5.0576282,6.5594412 5.4013648,7.7591585 5.1050164,8.7822805 4.7569252,9.0195532 4.8779735,9.1492053 5.1023335,9.2551579 4.980196,9.453028 5.2285182,9.5196788 5.4920066,9.5809572 5.7557611,9.7021114 5.7203768,9.8215684 5.4810502,9.9398684 L 4.0706257,10.2904 c -0.3760381,0.251064 -0.5443573,0.529379 -0.00511,0.900516 0.1770152,0.144854 0.4213852,0.287104 0.00773,0.454777 l -0.8127555,0.485624 c -0.085365,0.117051 -0.3389874,0.241287 -0.018775,0.341022"
       sodipodi:nodetypes="ccccccsccccccccccc"
       transform="translate(-0.45602208,-0.98158515)" />
    <path
       style="fill:none;fill-opacity:1;fill-rule:evenodd;stroke:#282828;stroke-width:0.1;stroke-linecap:round;stroke-dasharray:none;stroke-opacity:1"
       d="M 7.189927,4.8547845 C 6.5894835,4.7348459 6.0379152,4.7479319 5.510073,4.8255942"
       id="path2"
       sodipodi:nodetypes="cc" />
    <path
       style="fill:none;fill-opacity:1;fill-rule:evenodd;stroke:#282828;stroke-width:0.1;stroke-linecap:round;stroke-dasharray:none;stroke-opacity:1"
       d="M 4.6388458,7.8006857 C 5.7121933,7.9159566 6.829881,7.957548 8.0611542,7.8103957"
       id="path3"
       sodipodi:nodetypes="cc" />
    <path
       style="fill:none;fill-opacity:1;fill-rule:evenodd;stroke:#282828;stroke-width:0.1;stroke-linecap:round;stroke-dasharray:none;stroke-opacity:1"
       d="m 4.6375044,8.2735631 c 1.1786521,0.1592944 2.3180041,0.1527809 3.4249912,0.00972"
       id="path4"
       sodipodi:nodetypes="cc" />
    <path
       style="fill:none;fill-opacity:1;fill-rule:evenodd;stroke:#282828;stroke-width:0.1;stroke-linecap:round;stroke-dasharray:none;stroke-opacity:1"
       d="m 5.2121267,8.7742783 c 0.8000716,0.1434733 1.5534436,0.1261988 2.2757466,0.00198"
       id="path5"
       sodipodi:nodetypes="cc" />
    <path
       style="fill:none;fill-opacity:1;fill-rule:evenodd;stroke:#282828;stroke-width:0.1;stroke-linecap:round;stroke-dasharray:none;stroke-opacity:1"
       d="m 3.8407062,10.482806 c 1.7550124,0.42468 3.4153312,0.366705 5.0185875,0.01788"
       id="path6"
       sodipodi:nodetypes="cc" />
    <path
       style="fill:none;fill-opacity:1;fill-rule:evenodd;stroke:#282828;stroke-width:0.1;stroke-linecap:round;stroke-dasharray:none;stroke-opacity:1"
       d="M 9.9136418,11.510974 C 7.5737068,12.2157 5.1965844,12.186471 2.7856931,11.490754 v 0"
       id="path7"
       sodipodi:nodetypes="ccc" />
    <path
       style="fill:#333333;fill-rule:evenodd;stroke:#282828;stroke-width:0.109;stroke-linecap:round"
       d="M 6.6012991,2.3578336 6.1794138,2.3491254"
       id="path23"
       sodipodi:nodetypes="cc" />
    <path
       style="fill:#cccccc;fill-rule:evenodd;stroke:#282828;stroke-width:0.0250457;stroke-linecap:round"
       d="m 21.795057,45.165648 c -3.265923,-0.183847 -6.797619,-0.758069 -10.104613,-1.642917 -1.111643,-0.297441 -1.537656,-0.446756 -1.537656,-0.538937 0,-0.02492 0.111484,-0.171961 0.247742,-0.326758 0.183928,-0.208954 0.649802,-0.522443 1.808655,-1.217055 0.858502,-0.514582 1.684024,-0.996603 1.834492,-1.071156 0.150468,-0.07455 0.35676,-0.214488 0.458427,-0.310966 l 0.184849,-0.175414 0.818271,0.179372 c 5.364107,1.175857 11.038777,1.195585 16.927393,0.05885 l 0.910339,-0.175732 0.183974,0.174566 c 0.101185,0.09601 0.307084,0.235809 0.457552,0.310661 0.150468,0.07485 0.944197,0.542197 1.763844,1.038547 1.601185,0.969623 2.157915,1.414487 2.028699,1.621065 -0.07907,0.126411 -0.940656,0.395459 -2.576641,0.804609 -4.311412,1.07826 -8.975912,1.520607 -13.405327,1.271265 z"
       id="path24"
       transform="scale(0.26458333)" />
    <path
       style="fill:#cccccc;fill-rule:evenodd;stroke:#282828;stroke-width:0.0250457;stroke-linecap:round"
       d="M 22.585393,40.51385 C 19.864672,40.375405 17.353868,40.053345 15.289337,39.577986 14.76888,39.45815 14.735504,39.440642 14.62059,39.227173 c -0.07399,-0.13744 -0.414279,-0.461215 -0.876377,-0.833839 -0.884258,-0.713041 -1.15962,-1.062803 -1.15962,-1.472937 0,-0.354691 0.125072,-0.608327 0.475001,-0.96327 0.5191,-0.526537 0.538884,-0.533814 3.301139,-1.214149 1.417324,-0.349082 2.692201,-0.689056 2.833061,-0.755498 0.140859,-0.06644 0.363338,-0.217678 0.494397,-0.336082 l 0.238289,-0.21528 0.934289,0.126598 c 1.810794,0.245365 4.562876,0.228498 6.570433,-0.04027 l 0.711738,-0.09528 0.179309,0.202665 c 0.09862,0.111466 0.298136,0.264448 0.443369,0.33996 0.145233,0.07551 1.125831,0.356022 2.179107,0.623356 3.669337,0.931324 3.33151,0.82726 3.744195,1.153351 0.507248,0.400811 0.754645,0.784563 0.754645,1.170573 0,0.49841 -0.23872,0.818665 -1.113765,1.494175 -0.650255,0.501977 -1.014065,0.866668 -1.014065,1.016519 0,0.04899 -0.023,0.08908 -0.05111,0.08908 -0.02811,0 -0.308529,0.05356 -0.62315,0.119024 -1.629296,0.339007 -3.568122,0.610323 -5.435651,0.760655 -1.099339,0.0885 -3.826275,0.157743 -4.620431,0.117332 z"
       id="path25"
       transform="scale(0.26458333)" />
    <path
       style="fill:#cccccc;fill-rule:evenodd;stroke:#282828;stroke-width:0.0250457;stroke-linecap:round"
       d="m 22.281418,33.272947 c -0.167187,-0.01148 -0.753723,-0.07698 -1.303414,-0.145554 l -0.999437,-0.124682 -0.226755,-0.257607 c -0.252825,-0.287224 -0.437211,-0.378243 -1.257077,-0.620533 -0.592388,-0.175065 -0.890808,-0.370878 -0.825317,-0.541545 0.02071,-0.05397 0.07365,-0.08432 0.117639,-0.06744 0.04399,0.01688 0.635492,0.0861 1.314449,0.15383 3.69756,0.368831 7.214931,0.337676 10.982296,-0.09728 0.316261,-0.03651 0.324056,-0.03374 0.303976,0.108321 -0.02494,0.176437 -0.49556,0.425662 -1.015938,0.538006 -0.446976,0.0965 -0.772036,0.263167 -1.071704,0.5495 -0.236631,0.226102 -0.262828,0.23493 -0.972722,0.327792 -1.268713,0.165963 -2.151115,0.219027 -3.465323,0.208393 -0.702183,-0.0057 -1.413487,-0.01972 -1.580673,-0.0312 z"
       id="path26"
       transform="scale(0.26458333)" />
    <path
       style="fill:#cccccc;fill-rule:evenodd;stroke:#282828;stroke-width:0.0250457;stroke-linecap:round"
       d="m 21.947045,31.451582 c -2.040262,-0.108654 -4.230594,-0.337744 -4.484491,-0.469039 -0.242244,-0.12527 -0.500711,-0.400234 -0.500711,-0.532671 0,-0.06243 0.135649,-0.254235 0.301441,-0.426242 l 0.301441,-0.312739 0.4433,0.04147 c 2.910687,0.272267 5.042403,0.365939 7.31315,0.321355 1.693961,-0.03326 3.566627,-0.146744 4.650828,-0.281842 0.446505,-0.05564 0.460377,-0.05329 0.668746,0.112898 0.216574,0.172737 0.486361,0.52298 0.486361,0.631402 0,0.106442 -0.41777,0.45741 -0.622119,0.52264 -0.266287,0.085 -2.422597,0.294801 -3.815926,0.371272 -1.005213,0.05517 -3.8662,0.06814 -4.74202,0.0215 z"
       id="path27"
       transform="scale(0.26458333)" />
    <path
       style="fill:#cccccc;fill-rule:evenodd;stroke:#282828;stroke-width:0.0250457;stroke-linecap:round"
       d="m 21.855852,29.60071 c -1.063034,-0.05038 -3.176471,-0.208245 -3.699182,-0.276309 -0.292213,-0.03805 -0.294324,-0.03993 -0.254854,-0.227341 0.402132,-1.909346 0.41981,-3.696738 0.06101,-6.168071 -0.127596,-0.87884 -0.938331,-5.039178 -1.029549,-5.2832 -0.01562,-0.0418 -0.126325,-0.07599 -0.246002,-0.07599 -0.64711,0 -0.760471,-0.834963 -0.513217,-3.780123 0.108062,-1.28717 0.116209,-1.636117 0.06291,-2.694559 -0.06004,-1.1923438 -0.03658,-1.9123848 0.06448,-1.9789395 0.06106,-0.040213 2.826901,-0.013297 3.001752,0.029211 0.106036,0.025778 0.141172,0.1413347 0.26377,0.8674725 0.07779,0.460752 0.151908,0.854673 0.164705,0.875378 0.0128,0.02071 0.413899,0.05603 0.891338,0.0785 0.477439,0.02247 0.980534,0.05624 1.117988,0.07505 l 0.249918,0.0342 0.107793,-0.942306 0.107793,-0.9423071 0.767,-0.044606 c 0.738295,-0.042936 2.917597,0.00541 2.978257,0.066066 0.01622,0.016223 0.07545,0.4265399 0.131611,0.9118161 0.05616,0.485275 0.116155,0.896358 0.133313,0.913517 0.03486,0.03486 2.189529,-0.08966 2.228659,-0.128787 0.01367,-0.01367 0.09156,-0.401523 0.173089,-0.861887 0.08152,-0.4603648 0.1607,-0.8495953 0.175944,-0.864957 0.01525,-0.015362 0.731012,-0.02904 1.590594,-0.030397 l 1.562876,-0.00247 -0.0043,1.094313 c -0.0024,0.601871 -0.01157,1.436285 -0.02046,1.854251 -0.0089,0.417967 0.03024,1.317821 0.08695,1.999676 0.124654,1.498633 0.101931,2.769288 -0.05628,3.147149 -0.112797,0.269394 -0.320409,0.401975 -0.582593,0.372042 -0.143616,-0.0164 -0.154058,0.0106 -0.346152,0.89502 -0.757882,3.489365 -1.006967,4.984375 -1.118917,6.715772 -0.0772,1.193923 -0.0043,2.531382 0.189621,3.477777 0.06365,0.310669 0.09605,0.582994 0.072,0.605166 -0.06582,0.06068 -2.061074,0.227539 -3.539446,0.295993 -1.477449,0.06841 -3.247781,0.06614 -4.772418,-0.0061 z m 5.495579,-11.16786 c 0.03228,-0.06032 0.03687,-0.144971 0.01021,-0.188118 -0.205095,-0.33185 -4.004206,-0.538196 -5.840159,-0.317204 -0.775975,0.0934 -0.911927,0.139638 -0.911927,0.310131 0,0.199741 0.155415,0.223994 0.837227,0.130651 0.448625,-0.06142 1.183687,-0.08867 2.354517,-0.0873 1.425097,0.0017 1.816101,0.02187 2.401408,0.124015 0.919679,0.160498 1.075698,0.164277 1.148727,0.02782 z"
       id="path28"
       transform="scale(0.26458333)" />
  </g>
  <metadata
     id="metadata1">
    <rdf:RDF>
      <cc:License
         rdf:about="http://creativecommons.org/licenses/by-sa/4.0/">
        <cc:permits
           rdf:resource="http://creativecommons.org/ns#Reproduction" />
        <cc:permits
           rdf:resource="http://creativecommons.org/ns#Distribution" />
        <cc:requires
           rdf:resource="http://creativecommons.org/ns#Notice" />
        <cc:requires
           rdf:resource="http://creativecommons.org/ns#Attribution" />
        <cc:permits
           rdf:resource="http://creativecommons.org/ns#DerivativeWorks" />
        <cc:requires
           rdf:resource="http://creativecommons.org/ns#ShareAlike" />
      </cc:License>
      <cc:Work
         rdf:about="">
        <cc:license
           rdf:resource="http://creativecommons.org/licenses/by-sa/4.0/" />
        <dc:creator>
          <cc:Agent>
            <dc:title>Curtis Walker</dc:title>
          </cc:Agent>
        </dc:creator>
      </cc:Work>
    </rdf:RDF>
  </metadata>
</svg>
